<svg width="402" height="700" viewBox="0 0 402 700" fill="none" xmlns="http://www.w3.org/2000/svg">
<g clip-path="url(#clip0_976_3035)">
<rect width="402" height="700" fill="white"/>
<mask id="mask0_976_3035" style="mask-type:luminance" maskUnits="userSpaceOnUse" x="-1" y="52" width="16" height="20">
<path d="M-0.22168 52.6021H14.6247V71.2687H-0.22168V52.6021Z" fill="white"/>
</mask>
<g mask="url(#mask0_976_3035)">
<mask id="mask1_976_3035" style="mask-type:luminance" maskUnits="userSpaceOnUse" x="-4" y="49" width="22" height="26">
<path d="M-3.19141 66.1428L3.64603 49.2334L17.0889 57.8303L10.2573 74.7396L-3.19141 66.1428Z" fill="white"/>
</mask>
<g mask="url(#mask1_976_3035)">
<mask id="mask2_976_3035" style="mask-type:luminance" maskUnits="userSpaceOnUse" x="0" y="53" width="14" height="18">
<path d="M0.224609 57.6919L5.89638 57.9252L10.3677 53.5283L10.1763 60.6596L13.6733 66.2814L8.00154 66.0408L3.53024 70.4377L3.72162 63.3064L0.224609 57.6919Z" fill="white"/>
</mask>
<g mask="url(#mask2_976_3035)">
<path d="M-3.19141 66.1428L3.64603 49.2334L17.0889 57.8303L10.2573 74.7396L-3.19141 66.1428Z" fill="#7450A5"/>
</g>
</g>
</g>
<mask id="mask3_976_3035" style="mask-type:luminance" maskUnits="userSpaceOnUse" x="-1" y="26" width="16" height="20">
<path d="M-0.22168 26.4688H14.6247V45.1354H-0.22168V26.4688Z" fill="white"/>
</mask>
<g mask="url(#mask3_976_3035)">
<mask id="mask4_976_3035" style="mask-type:luminance" maskUnits="userSpaceOnUse" x="-3" y="22" width="21" height="27">
<path d="M-2.33887 39.5573L4.49857 22.6479L17.9415 31.2375L11.1098 48.1469L-2.33887 39.5573Z" fill="white"/>
</mask>
<g mask="url(#mask4_976_3035)">
<mask id="mask5_976_3035" style="mask-type:luminance" maskUnits="userSpaceOnUse" x="1" y="26" width="14" height="18">
<path d="M1.07715 31.0991L6.74892 31.3397L11.2202 26.9429L11.0288 34.0741L14.5259 39.696L8.85408 39.4554L4.38858 43.8522L4.57416 36.721L1.07715 31.0991Z" fill="white"/>
</mask>
<g mask="url(#mask5_976_3035)">
<path d="M-2.33887 39.5573L4.49857 22.6479L17.9415 31.2375L11.1098 48.1469L-2.33887 39.5573Z" fill="#7450A5"/>
</g>
</g>
</g>
<mask id="mask6_976_3035" style="mask-type:luminance" maskUnits="userSpaceOnUse" x="1" y="0" width="16" height="20">
<path d="M1.26367 0.334961H16.11V19.0016H1.26367V0.334961Z" fill="white"/>
</mask>
<g mask="url(#mask6_976_3035)">
<mask id="mask7_976_3035" style="mask-type:luminance" maskUnits="userSpaceOnUse" x="-2" y="-4" width="21" height="27">
<path d="M-1.50293 13.5109L5.33451 -3.39844L18.7832 5.19115L11.9458 22.1005L-1.50293 13.5109Z" fill="white"/>
</mask>
<g mask="url(#mask7_976_3035)">
<mask id="mask8_976_3035" style="mask-type:luminance" maskUnits="userSpaceOnUse" x="1" y="0" width="15" height="18">
<path d="M1.91895 5.05274L7.58492 5.29336L12.0562 0.896484L11.8648 8.02774L15.3619 13.6496L9.69008 13.409L5.22458 17.8059L5.41016 10.6746L1.91895 5.05274Z" fill="white"/>
</mask>
<g mask="url(#mask8_976_3035)">
<path d="M-1.50293 13.5109L5.33451 -3.39844L18.7832 5.19115L11.9458 22.1005L-1.50293 13.5109Z" fill="#7450A5"/>
</g>
</g>
</g>
<mask id="mask9_976_3035" style="mask-type:luminance" maskUnits="userSpaceOnUse" x="19" y="52" width="15" height="20">
<path d="M19.0791 52.6021H33.9255V71.2687H19.0791V52.6021Z" fill="white"/>
</mask>
<g mask="url(#mask9_976_3035)">
<mask id="mask10_976_3035" style="mask-type:luminance" maskUnits="userSpaceOnUse" x="15" y="49" width="22" height="26">
<path d="M15.8545 66.1862L22.6861 49.2769L36.1348 57.8737L29.2974 74.7831L15.8545 66.1862Z" fill="white"/>
</mask>
<g mask="url(#mask10_976_3035)">
<mask id="mask11_976_3035" style="mask-type:luminance" maskUnits="userSpaceOnUse" x="19" y="53" width="14" height="18">
<path d="M19.2705 57.7354L24.9423 57.976L29.4136 53.5791L29.2222 60.7104L32.7192 66.3249L27.0474 66.0843L22.5761 70.4812L22.7675 63.3499L19.2705 57.7354Z" fill="white"/>
</mask>
<g mask="url(#mask11_976_3035)">
<path d="M15.8545 66.1862L22.6861 49.2769L36.1348 57.8737L29.2974 74.7831L15.8545 66.1862Z" fill="#7450A5"/>
</g>
</g>
</g>
<mask id="mask12_976_3035" style="mask-type:luminance" maskUnits="userSpaceOnUse" x="19" y="26" width="15" height="20">
<path d="M19.0791 26.4688H33.9255V45.1354H19.0791V26.4688Z" fill="white"/>
</mask>
<g mask="url(#mask12_976_3035)">
<mask id="mask13_976_3035" style="mask-type:luminance" maskUnits="userSpaceOnUse" x="16" y="22" width="21" height="27">
<path d="M16.707 39.6013L23.5387 22.6919L36.9874 31.2815L30.1557 48.1909L16.707 39.6013Z" fill="white"/>
</mask>
<g mask="url(#mask13_976_3035)">
<mask id="mask14_976_3035" style="mask-type:luminance" maskUnits="userSpaceOnUse" x="20" y="26" width="14" height="18">
<path d="M20.123 31.1431L25.7948 31.3837L30.2661 26.9868L30.0747 34.1181L33.5718 39.7399L27.9 39.4993L23.4287 43.8962L23.6201 36.7649L20.123 31.1431Z" fill="white"/>
</mask>
<g mask="url(#mask14_976_3035)">
<path d="M16.707 39.6013L23.5387 22.6919L36.9874 31.2815L30.1557 48.1909L16.707 39.6013Z" fill="#7450A5"/>
</g>
</g>
</g>
<mask id="mask15_976_3035" style="mask-type:luminance" maskUnits="userSpaceOnUse" x="20" y="0" width="16" height="20">
<path d="M20.5635 0.334961H35.4098V19.0016H20.5635V0.334961Z" fill="white"/>
</mask>
<g mask="url(#mask15_976_3035)">
<mask id="mask16_976_3035" style="mask-type:luminance" maskUnits="userSpaceOnUse" x="17" y="-4" width="21" height="27">
<path d="M17.542 13.5549L24.3736 -3.35449L37.8223 5.24238L30.9907 22.1445L17.542 13.5549Z" fill="white"/>
</mask>
<g mask="url(#mask16_976_3035)">
<mask id="mask17_976_3035" style="mask-type:luminance" maskUnits="userSpaceOnUse" x="20" y="0" width="15" height="18">
<path d="M20.958 5.09668L26.6298 5.33731L31.1011 0.94043L30.9097 8.07168L34.4067 13.6936L28.7349 13.4529L24.2636 17.8498L24.455 10.7186L20.958 5.09668Z" fill="white"/>
</mask>
<g mask="url(#mask17_976_3035)">
<path d="M17.542 13.5549L24.3736 -3.35449L37.8223 5.24238L30.9907 22.1445L17.542 13.5549Z" fill="#7450A5"/>
</g>
</g>
</g>
<mask id="mask18_976_3035" style="mask-type:luminance" maskUnits="userSpaceOnUse" x="38" y="54" width="16" height="20">
<path d="M38.3789 54.4683H53.2253V73.1349H38.3789V54.4683Z" fill="white"/>
</mask>
<g mask="url(#mask18_976_3035)">
<mask id="mask19_976_3035" style="mask-type:luminance" maskUnits="userSpaceOnUse" x="35" y="50" width="22" height="26">
<path d="M35.833 67.1994L42.6704 50.29L56.1192 58.8869L49.2817 75.7963L35.833 67.1994Z" fill="white"/>
</mask>
<g mask="url(#mask19_976_3035)">
<mask id="mask20_976_3035" style="mask-type:luminance" maskUnits="userSpaceOnUse" x="39" y="54" width="14" height="18">
<path d="M39.2549 58.7485L44.9267 58.9892L49.3922 54.5923L49.2008 61.7235L52.6978 67.3381L47.026 67.0975L42.5605 71.4944L42.7519 64.3631L39.2549 58.7485Z" fill="white"/>
</mask>
<g mask="url(#mask20_976_3035)">
<path d="M35.833 67.1994L42.6704 50.29L56.1192 58.8869L49.2817 75.7963L35.833 67.1994Z" fill="#7450A5"/>
</g>
</g>
</g>
<mask id="mask21_976_3035" style="mask-type:luminance" maskUnits="userSpaceOnUse" x="39" y="26" width="16" height="20">
<path d="M39.8643 26.4688H54.7106V45.1354H39.8643V26.4688Z" fill="white"/>
</mask>
<g mask="url(#mask21_976_3035)">
<mask id="mask22_976_3035" style="mask-type:luminance" maskUnits="userSpaceOnUse" x="36" y="23" width="21" height="27">
<path d="M36.6865 40.6145L43.524 23.7051L56.9727 32.2947L50.1352 49.204L36.6865 40.6145Z" fill="white"/>
</mask>
<g mask="url(#mask22_976_3035)">
<mask id="mask23_976_3035" style="mask-type:luminance" maskUnits="userSpaceOnUse" x="40" y="28" width="14" height="17">
<path d="M40.1084 32.1563L45.7802 32.3969L50.2457 28L50.0601 35.1313L53.5571 40.7531L47.8853 40.5125L43.414 44.9094L43.6054 37.7781L40.1084 32.1563Z" fill="white"/>
</mask>
<g mask="url(#mask23_976_3035)">
<path d="M36.6865 40.6145L43.524 23.7051L56.9727 32.2947L50.1352 49.204L36.6865 40.6145Z" fill="#7450A5"/>
</g>
</g>
</g>
<mask id="mask24_976_3035" style="mask-type:luminance" maskUnits="userSpaceOnUse" x="39" y="0" width="16" height="20">
<path d="M39.8643 0.334961H54.7106V19.0016H39.8643V0.334961Z" fill="white"/>
</mask>
<g mask="url(#mask24_976_3035)">
<mask id="mask25_976_3035" style="mask-type:luminance" maskUnits="userSpaceOnUse" x="37" y="-3" width="21" height="27">
<path d="M37.5273 14.5681L44.359 -2.34131L57.8077 6.25557L50.9702 23.1576L37.5273 14.5681Z" fill="white"/>
</mask>
<g mask="url(#mask25_976_3035)">
<mask id="mask26_976_3035" style="mask-type:luminance" maskUnits="userSpaceOnUse" x="40" y="1" width="15" height="18">
<path d="M40.9434 6.10986L46.6151 6.35049L51.0864 1.95361L50.8951 9.08486L54.3921 14.7067L48.7203 14.4661L44.249 18.863L44.4404 11.7317L40.9434 6.10986Z" fill="white"/>
</mask>
<g mask="url(#mask26_976_3035)">
<path d="M37.5273 14.5681L44.359 -2.34131L57.8077 6.25557L50.9702 23.1576L37.5273 14.5681Z" fill="#7450A5"/>
</g>
</g>
</g>
<mask id="mask27_976_3035" style="mask-type:luminance" maskUnits="userSpaceOnUse" x="57" y="54" width="16" height="20">
<path d="M57.6797 54.4683H72.526V73.1349H57.6797V54.4683Z" fill="white"/>
</mask>
<g mask="url(#mask27_976_3035)">
<mask id="mask28_976_3035" style="mask-type:luminance" maskUnits="userSpaceOnUse" x="54" y="50" width="22" height="26">
<path d="M54.8789 67.2434L61.7105 50.334L75.1593 58.9309L68.3276 75.8402L54.8789 67.2434Z" fill="white"/>
</mask>
<g mask="url(#mask28_976_3035)">
<mask id="mask29_976_3035" style="mask-type:luminance" maskUnits="userSpaceOnUse" x="58" y="54" width="14" height="18">
<path d="M58.2949 58.7925L63.9667 59.0331L68.438 54.6362L68.2466 61.7675L71.7436 67.3821L66.0719 67.1487L61.6006 71.5456L61.7919 64.4144L58.2949 58.7925Z" fill="white"/>
</mask>
<g mask="url(#mask29_976_3035)">
<path d="M54.8789 67.2434L61.7105 50.334L75.1593 58.9309L68.3276 75.8402L54.8789 67.2434Z" fill="#7450A5"/>
</g>
</g>
</g>
<mask id="mask30_976_3035" style="mask-type:luminance" maskUnits="userSpaceOnUse" x="57" y="26" width="18" height="20">
<path d="M57.6797 26.4688H74.0107V45.1354H57.6797V26.4688Z" fill="white"/>
</mask>
<g mask="url(#mask30_976_3035)">
<mask id="mask31_976_3035" style="mask-type:luminance" maskUnits="userSpaceOnUse" x="55" y="23" width="22" height="27">
<path d="M55.7314 40.6584L62.5689 23.749L76.0118 32.3459L69.1802 49.248L55.7314 40.6584Z" fill="white"/>
</mask>
<g mask="url(#mask31_976_3035)">
<mask id="mask32_976_3035" style="mask-type:luminance" maskUnits="userSpaceOnUse" x="59" y="28" width="14" height="17">
<path d="M59.1475 32.2002L64.8192 32.4408L69.2905 28.0439L69.0992 35.1752L72.5962 40.7971L66.9244 40.5564L62.4531 44.9533L62.6445 37.8221L59.1475 32.2002Z" fill="white"/>
</mask>
<g mask="url(#mask32_976_3035)">
<path d="M55.7314 40.6584L62.5689 23.749L76.0118 32.3459L69.1802 49.248L55.7314 40.6584Z" fill="#7450A5"/>
</g>
</g>
</g>
<mask id="mask33_976_3035" style="mask-type:luminance" maskUnits="userSpaceOnUse" x="59" y="0" width="16" height="20">
<path d="M59.1641 0.334961H74.0104V19.0016H59.1641V0.334961Z" fill="white"/>
</mask>
<g mask="url(#mask33_976_3035)">
<mask id="mask34_976_3035" style="mask-type:luminance" maskUnits="userSpaceOnUse" x="56" y="-3" width="21" height="27">
<path d="M56.5664 14.612L63.4038 -2.29736L76.8468 6.29951L70.0151 23.2089L56.5664 14.612Z" fill="white"/>
</mask>
<g mask="url(#mask34_976_3035)">
<mask id="mask35_976_3035" style="mask-type:luminance" maskUnits="userSpaceOnUse" x="59" y="2" width="15" height="17">
<path d="M59.9824 6.16113L65.6542 6.40176L70.1255 2.00488L69.9341 9.13613L73.4311 14.7507L67.7594 14.5101L63.2939 18.907L63.4794 11.7757L59.9824 6.16113Z" fill="white"/>
</mask>
<g mask="url(#mask35_976_3035)">
<path d="M56.5664 14.612L63.4038 -2.29736L76.8468 6.29951L70.0151 23.2089L56.5664 14.612Z" fill="#7450A5"/>
</g>
</g>
</g>
<path d="M35.0957 52.6699V52.6699C211.301 52.6699 354.143 195.512 354.143 371.718V380.952C354.143 557.157 211.301 700 35.0957 700V700V52.6699Z" fill="#7450A5"/>
<mask id="mask36_976_3035" style="mask-type:luminance" maskUnits="userSpaceOnUse" x="105" y="200" width="103" height="54">
<path d="M105.286 200.485H207.051V253.155H105.286V200.485Z" fill="white"/>
</mask>
<g mask="url(#mask36_976_3035)">
<path d="M105.718 227.161C105.317 208.098 123.962 194.716 140.321 205.173C145.718 208.617 150.289 213.725 155.213 219.298C155.438 219.548 155.542 219.521 155.751 219.289C163.449 210.639 174.588 197.435 190.201 202.57C196.769 204.735 201.332 209.485 203.674 216.65C211.501 240.632 189.047 260.482 169.792 247.323C164.941 244.005 160.747 239.425 155.791 233.789C155.526 233.485 155.406 233.53 155.165 233.807C149.528 240.14 143.465 247.028 135.983 249.909C120.746 255.777 106.135 245.642 105.718 227.161ZM115.253 226.785C115.734 237.797 123.329 242.931 131.42 240.981C138.405 239.291 144.267 232.429 149.263 226.704C149.431 226.517 149.335 226.436 149.223 226.311C144.884 221.794 140.65 216.283 135.309 213.439C124.965 207.937 115.213 216.006 115.253 226.785ZM195.711 226.32C195.398 215.684 187.876 209.887 179.207 212.15C172.383 213.94 166.552 220.765 161.709 226.32C161.54 226.508 161.605 226.597 161.741 226.74C167.803 233.047 174.949 243.003 184.604 241.187C191.035 239.979 195.727 233.727 195.711 226.32Z" fill="#FAF9FA"/>
</g>
<mask id="mask37_976_3035" style="mask-type:luminance" maskUnits="userSpaceOnUse" x="75" y="434" width="16" height="20">
<path d="M75.7158 434.933H90.5622V453.6H75.7158V434.933Z" fill="white"/>
</mask>
<g mask="url(#mask37_976_3035)">
<mask id="mask38_976_3035" style="mask-type:luminance" maskUnits="userSpaceOnUse" x="72" y="431" width="21" height="26">
<path d="M79.1722 431.338L92.8819 439.243L86.5954 456.48L72.8857 448.576L79.1722 431.338Z" fill="white"/>
</mask>
<g mask="url(#mask38_976_3035)">
<mask id="mask39_976_3035" style="mask-type:luminance" maskUnits="userSpaceOnUse" x="76" y="435" width="14" height="18">
<path d="M86.0274 435.291L86.068 442.422L89.739 447.861L84.0672 447.912L79.7409 452.528L79.7061 445.397L76.0293 439.957L81.7069 439.906L86.0274 435.291Z" fill="white"/>
</mask>
<g mask="url(#mask39_976_3035)">
<path d="M79.1722 431.338L92.8819 439.243L86.5954 456.48L72.8857 448.576L79.1722 431.338Z" fill="white"/>
</g>
</g>
</g>
<mask id="mask40_976_3035" style="mask-type:luminance" maskUnits="userSpaceOnUse" x="96" y="434" width="16" height="20">
<path d="M96.501 434.933H111.347V453.6H96.501V434.933Z" fill="white"/>
</mask>
<g mask="url(#mask40_976_3035)">
<mask id="mask41_976_3035" style="mask-type:luminance" maskUnits="userSpaceOnUse" x="94" y="431" width="21" height="26">
<path d="M100.334 431.338L114.05 439.243L107.763 456.48L94.0479 448.576L100.334 431.338Z" fill="white"/>
</mask>
<g mask="url(#mask41_976_3035)">
<mask id="mask42_976_3035" style="mask-type:luminance" maskUnits="userSpaceOnUse" x="97" y="435" width="14" height="18">
<path d="M107.195 435.291L107.23 442.422L110.907 447.861L105.229 447.912L100.909 452.528L100.868 445.397L97.1914 439.957L102.869 439.906L107.195 435.291Z" fill="white"/>
</mask>
<g mask="url(#mask42_976_3035)">
<path d="M100.334 431.338L114.05 439.243L107.763 456.48L94.0479 448.576L100.334 431.338Z" fill="white"/>
</g>
</g>
</g>
<mask id="mask43_976_3035" style="mask-type:luminance" maskUnits="userSpaceOnUse" x="117" y="434" width="16" height="20">
<path d="M117.286 434.933H132.132V453.6H117.286V434.933Z" fill="white"/>
</mask>
<g mask="url(#mask43_976_3035)">
<mask id="mask44_976_3035" style="mask-type:luminance" maskUnits="userSpaceOnUse" x="114" y="431" width="21" height="26">
<path d="M121.068 431.338L134.783 439.243L128.491 456.48L114.781 448.576L121.068 431.338Z" fill="white"/>
</mask>
<g mask="url(#mask44_976_3035)">
<mask id="mask45_976_3035" style="mask-type:luminance" maskUnits="userSpaceOnUse" x="117" y="435" width="15" height="18">
<path d="M127.923 435.291L127.963 442.422L131.64 447.861L125.963 447.912L121.636 452.528L121.602 445.397L117.925 439.957L123.602 439.906L127.923 435.291Z" fill="white"/>
</mask>
<g mask="url(#mask45_976_3035)">
<path d="M121.068 431.338L134.783 439.243L128.491 456.48L114.781 448.576L121.068 431.338Z" fill="white"/>
</g>
</g>
</g>
<mask id="mask46_976_3035" style="mask-type:luminance" maskUnits="userSpaceOnUse" x="75" y="459" width="16" height="19">
<path d="M75.7158 459.2H90.5622V477.866H75.7158V459.2Z" fill="white"/>
</mask>
<g mask="url(#mask46_976_3035)">
<mask id="mask47_976_3035" style="mask-type:luminance" maskUnits="userSpaceOnUse" x="73" y="455" width="21" height="26">
<path d="M79.9027 455.262L93.6182 463.166L87.3317 480.411L73.6162 472.5L79.9027 455.262Z" fill="white"/>
</mask>
<g mask="url(#mask47_976_3035)">
<mask id="mask48_976_3035" style="mask-type:luminance" maskUnits="userSpaceOnUse" x="76" y="459" width="15" height="18">
<path d="M86.7579 459.214L86.7984 466.353L90.4752 471.785L84.7977 471.836L80.4714 476.459L80.4366 469.321L76.7598 463.881L82.4373 463.837L86.7579 459.214Z" fill="white"/>
</mask>
<g mask="url(#mask48_976_3035)">
<path d="M79.9027 455.262L93.6182 463.166L87.3317 480.411L73.6162 472.5L79.9027 455.262Z" fill="white"/>
</g>
</g>
</g>
<mask id="mask49_976_3035" style="mask-type:luminance" maskUnits="userSpaceOnUse" x="96" y="459" width="17" height="19">
<path d="M96.501 459.2H112.832V477.866H96.501V459.2Z" fill="white"/>
</mask>
<g mask="url(#mask49_976_3035)">
<mask id="mask50_976_3035" style="mask-type:luminance" maskUnits="userSpaceOnUse" x="94" y="455" width="21" height="26">
<path d="M101.071 455.262L114.78 463.166L108.494 480.411L94.7842 472.5L101.071 455.262Z" fill="white"/>
</mask>
<g mask="url(#mask50_976_3035)">
<mask id="mask51_976_3035" style="mask-type:luminance" maskUnits="userSpaceOnUse" x="97" y="459" width="15" height="18">
<path d="M107.926 459.214L107.961 466.353L111.637 471.785L105.96 471.836L101.639 476.459L101.599 469.321L97.9277 463.881L103.6 463.837L107.926 459.214Z" fill="white"/>
</mask>
<g mask="url(#mask51_976_3035)">
<path d="M101.071 455.262L114.78 463.166L108.494 480.411L94.7842 472.5L101.071 455.262Z" fill="white"/>
</g>
</g>
</g>
<mask id="mask52_976_3035" style="mask-type:luminance" maskUnits="userSpaceOnUse" x="117" y="459" width="17" height="19">
<path d="M117.286 459.2H133.617V477.866H117.286V459.2Z" fill="white"/>
</mask>
<g mask="url(#mask52_976_3035)">
<mask id="mask53_976_3035" style="mask-type:luminance" maskUnits="userSpaceOnUse" x="115" y="455" width="21" height="26">
<path d="M121.798 455.262L135.514 463.166L129.227 480.411L115.512 472.5L121.798 455.262Z" fill="white"/>
</mask>
<g mask="url(#mask53_976_3035)">
<mask id="mask54_976_3035" style="mask-type:luminance" maskUnits="userSpaceOnUse" x="118" y="459" width="15" height="18">
<path d="M128.659 459.214L128.694 466.353L132.371 471.785L126.693 471.836L122.367 476.459L122.332 469.321L118.655 463.881L124.333 463.837L128.659 459.214Z" fill="white"/>
</mask>
<g mask="url(#mask54_976_3035)">
<path d="M121.798 455.262L135.514 463.166L129.227 480.411L115.512 472.5L121.798 455.262Z" fill="white"/>
</g>
</g>
</g>
<mask id="mask55_976_3035" style="mask-type:luminance" maskUnits="userSpaceOnUse" x="75" y="483" width="16" height="20">
<path d="M75.7158 483.466H90.5622V502.133H75.7158V483.466Z" fill="white"/>
</mask>
<g mask="url(#mask55_976_3035)">
<mask id="mask56_976_3035" style="mask-type:luminance" maskUnits="userSpaceOnUse" x="73" y="480" width="21" height="26">
<path d="M79.9027 480.411L93.6182 488.315L87.3317 505.553L73.6162 497.649L79.9027 480.411Z" fill="white"/>
</mask>
<g mask="url(#mask56_976_3035)">
<mask id="mask57_976_3035" style="mask-type:luminance" maskUnits="userSpaceOnUse" x="76" y="484" width="15" height="18">
<path d="M86.7579 484.363L86.7984 491.495L90.4752 496.934L84.7977 496.978L80.4714 501.601L80.4366 494.47L76.7598 489.03L82.4373 488.979L86.7579 484.363Z" fill="white"/>
</mask>
<g mask="url(#mask57_976_3035)">
<path d="M79.9027 480.411L93.6182 488.315L87.3317 505.553L73.6162 497.649L79.9027 480.411Z" fill="white"/>
</g>
</g>
</g>
<mask id="mask58_976_3035" style="mask-type:luminance" maskUnits="userSpaceOnUse" x="96" y="483" width="17" height="20">
<path d="M96.501 483.466H112.832V502.133H96.501V483.466Z" fill="white"/>
</mask>
<g mask="url(#mask58_976_3035)">
<mask id="mask59_976_3035" style="mask-type:luminance" maskUnits="userSpaceOnUse" x="94" y="480" width="21" height="26">
<path d="M101.071 480.411L114.78 488.315L108.494 505.553L94.7842 497.649L101.071 480.411Z" fill="white"/>
</mask>
<g mask="url(#mask59_976_3035)">
<mask id="mask60_976_3035" style="mask-type:luminance" maskUnits="userSpaceOnUse" x="97" y="484" width="15" height="18">
<path d="M107.926 484.363L107.961 491.495L111.637 496.934L105.96 496.978L101.639 501.601L101.599 494.47L97.9277 489.03L103.6 488.979L107.926 484.363Z" fill="white"/>
</mask>
<g mask="url(#mask60_976_3035)">
<path d="M101.071 480.411L114.78 488.315L108.494 505.553L94.7842 497.649L101.071 480.411Z" fill="white"/>
</g>
</g>
</g>
<mask id="mask61_976_3035" style="mask-type:luminance" maskUnits="userSpaceOnUse" x="117" y="483" width="17" height="20">
<path d="M117.286 483.466H133.617V502.133H117.286V483.466Z" fill="white"/>
</mask>
<g mask="url(#mask61_976_3035)">
<mask id="mask62_976_3035" style="mask-type:luminance" maskUnits="userSpaceOnUse" x="115" y="480" width="21" height="26">
<path d="M121.798 480.411L135.514 488.315L129.227 505.553L115.512 497.649L121.798 480.411Z" fill="white"/>
</mask>
<g mask="url(#mask62_976_3035)">
<mask id="mask63_976_3035" style="mask-type:luminance" maskUnits="userSpaceOnUse" x="118" y="484" width="15" height="18">
<path d="M128.659 484.363L128.694 491.495L132.371 496.934L126.693 496.978L122.367 501.601L122.332 494.47L118.655 489.03L124.333 488.979L128.659 484.363Z" fill="white"/>
</mask>
<g mask="url(#mask63_976_3035)">
<path d="M121.798 480.411L135.514 488.315L129.227 505.553L115.512 497.649L121.798 480.411Z" fill="white"/>
</g>
</g>
</g>
<mask id="mask64_976_3035" style="mask-type:luminance" maskUnits="userSpaceOnUse" x="77" y="507" width="16" height="20">
<path d="M77.2002 507.733H92.0465V526.4H77.2002V507.733Z" fill="white"/>
</mask>
<g mask="url(#mask64_976_3035)">
<mask id="mask65_976_3035" style="mask-type:luminance" maskUnits="userSpaceOnUse" x="74" y="504" width="21" height="26">
<path d="M80.6332 504.335L94.3487 512.24L88.0622 529.477L74.3467 521.573L80.6332 504.335Z" fill="white"/>
</mask>
<g mask="url(#mask65_976_3035)">
<mask id="mask66_976_3035" style="mask-type:luminance" maskUnits="userSpaceOnUse" x="77" y="508" width="15" height="18">
<path d="M87.4941 508.288L87.5289 515.419L91.2057 520.858L85.5281 520.909L81.2076 525.525L81.167 518.394L77.4902 512.954L83.1678 512.903L87.4941 508.288Z" fill="white"/>
</mask>
<g mask="url(#mask66_976_3035)">
<path d="M80.6332 504.335L94.3487 512.24L88.0622 529.477L74.3467 521.573L80.6332 504.335Z" fill="white"/>
</g>
</g>
</g>
<mask id="mask67_976_3035" style="mask-type:luminance" maskUnits="userSpaceOnUse" x="97" y="507" width="16" height="20">
<path d="M97.9854 507.733H112.832V526.4H97.9854V507.733Z" fill="white"/>
</mask>
<g mask="url(#mask67_976_3035)">
<mask id="mask68_976_3035" style="mask-type:luminance" maskUnits="userSpaceOnUse" x="95" y="504" width="21" height="26">
<path d="M101.801 504.335L115.511 512.24L109.224 529.477L95.5146 521.573L101.801 504.335Z" fill="white"/>
</mask>
<g mask="url(#mask68_976_3035)">
<mask id="mask69_976_3035" style="mask-type:luminance" maskUnits="userSpaceOnUse" x="98" y="508" width="15" height="18">
<path d="M108.656 508.288L108.697 515.419L112.368 520.858L106.696 520.909L102.37 525.525L102.329 518.394L98.6582 512.954L104.33 512.903L108.656 508.288Z" fill="white"/>
</mask>
<g mask="url(#mask69_976_3035)">
<path d="M101.801 504.335L115.511 512.24L109.224 529.477L95.5146 521.573L101.801 504.335Z" fill="white"/>
</g>
</g>
</g>
<mask id="mask70_976_3035" style="mask-type:luminance" maskUnits="userSpaceOnUse" x="118" y="507" width="16" height="20">
<path d="M118.771 507.733H133.617V526.4H118.771V507.733Z" fill="white"/>
</mask>
<g mask="url(#mask70_976_3035)">
<mask id="mask71_976_3035" style="mask-type:luminance" maskUnits="userSpaceOnUse" x="116" y="504" width="21" height="26">
<path d="M122.534 504.335L136.244 512.24L129.958 529.477L116.242 521.573L122.534 504.335Z" fill="white"/>
</mask>
<g mask="url(#mask71_976_3035)">
<mask id="mask72_976_3035" style="mask-type:luminance" maskUnits="userSpaceOnUse" x="119" y="508" width="15" height="18">
<path d="M129.39 508.288L129.424 515.419L133.101 520.858L127.424 520.909L123.103 525.525L123.063 518.394L119.392 512.954L125.063 512.903L129.39 508.288Z" fill="white"/>
</mask>
<g mask="url(#mask72_976_3035)">
<path d="M122.534 504.335L136.244 512.24L129.958 529.477L116.242 521.573L122.534 504.335Z" fill="white"/>
</g>
</g>
</g>
</g>
<defs>
<clipPath id="clip0_976_3035">
<rect width="402" height="700" fill="white"/>
</clipPath>
</defs>
</svg>
