<svg width="80" height="80" viewBox="0 0 80 80" fill="none" xmlns="http://www.w3.org/2000/svg">
<path d="M38.1893 41.3568C38.3767 41.4939 38.5975 41.5622 38.8183 41.5622C39.0391 41.5622 39.2599 41.4939 39.4474 41.3568C42.0975 39.4224 49.6621 32.9486 49.6621 28.7187C49.6621 24.5886 46.5517 21.228 42.7287 21.228C41.3255 21.228 39.9663 21.6886 38.8183 22.54C37.6693 21.6886 36.3111 21.228 34.9069 21.228C31.0839 21.228 27.9746 24.5886 27.9746 28.7187C27.9749 32.9486 35.5394 39.4224 38.1893 41.3568ZM34.9071 23.3614C36.0677 23.3614 37.1914 23.8374 38.0717 24.7014C38.4863 25.1086 39.1509 25.1086 39.5655 24.7014C40.4458 23.8374 41.5698 23.3614 42.729 23.3614C45.3759 23.3614 47.529 25.7646 47.529 28.7187C47.529 31.2155 42.5842 36.2656 38.8186 39.1619C35.053 36.2656 30.1082 31.2155 30.1082 28.7187C30.1082 25.7646 32.2613 23.3614 34.9071 23.3614Z" fill="#7450A5"/>
<path d="M41.094 30.0694C41.6836 30.0694 42.1607 29.5918 42.1607 29.0027C42.1607 28.7934 42.3316 28.623 42.5409 28.623C42.7503 28.623 42.9201 28.7934 42.9201 29.0027C42.9201 29.5918 43.3972 30.0694 43.9868 30.0694C44.5764 30.0694 45.0535 29.5918 45.0535 29.0027C45.0535 27.6168 43.9263 26.4896 42.5409 26.4896C41.1545 26.4896 40.0273 27.6168 40.0273 29.0027C40.0273 29.5918 40.5044 30.0694 41.094 30.0694Z" fill="#7450A5"/>
<path d="M34.8579 29.0027C34.8579 28.7934 35.0278 28.623 35.2371 28.623C35.4465 28.623 35.6174 28.7934 35.6174 29.0027C35.6174 29.5918 36.0945 30.0694 36.6841 30.0694C37.2737 30.0694 37.7507 29.5918 37.7507 29.0027C37.7507 27.6168 36.6235 26.4896 35.2371 26.4896C33.8518 26.4896 32.7246 27.6168 32.7246 29.0027C32.7246 29.5918 33.2017 30.0694 33.7913 30.0694C34.3809 30.0694 34.8579 29.5918 34.8579 29.0027Z" fill="#7450A5"/>
<path d="M14.8538 13.8666C15.4434 13.8666 15.9204 13.389 15.9204 12.8V10.6666C15.9204 10.0776 15.4434 9.59998 14.8538 9.59998C14.2642 9.59998 13.7871 10.0776 13.7871 10.6666V12.8C13.7871 13.389 14.2642 13.8666 14.8538 13.8666Z" fill="#7450A5"/>
<path d="M14.8538 16C14.2642 16 13.7871 16.4776 13.7871 17.0667V19.2C13.7871 19.7891 14.2642 20.2667 14.8538 20.2667C15.4434 20.2667 15.9204 19.7891 15.9204 19.2V17.0667C15.9204 16.4776 15.4434 16 14.8538 16Z" fill="#7450A5"/>
<path d="M12.7195 16C13.3091 16 13.7862 15.5224 13.7862 14.9334C13.7862 14.3443 13.3091 13.8667 12.7195 13.8667H10.5862C9.9966 13.8667 9.51953 14.3443 9.51953 14.9334C9.51953 15.5224 9.9966 16 10.5862 16H12.7195Z" fill="#7450A5"/>
<path d="M16.9866 16H19.1199C19.7095 16 20.1866 15.5224 20.1866 14.9334C20.1866 14.3443 19.7095 13.8667 19.1199 13.8667H16.9866C16.397 13.8667 15.9199 14.3443 15.9199 14.9334C15.9199 15.5224 16.397 16 16.9866 16Z" fill="#7450A5"/>
<path d="M60.1865 19.1999C62.2449 19.1999 63.9198 17.525 63.9198 15.4666C63.9198 13.4082 62.2449 11.7333 60.1865 11.7333C58.1281 11.7333 56.4531 13.4082 56.4531 15.4666C56.4531 17.525 58.1281 19.1999 60.1865 19.1999ZM60.1865 13.8666C61.0689 13.8666 61.7865 14.5842 61.7865 15.4666C61.7865 16.349 61.0689 17.0666 60.1865 17.0666C59.3041 17.0666 58.5865 16.349 58.5865 15.4666C58.5865 14.5842 59.3041 13.8666 60.1865 13.8666Z" fill="#7450A5"/>
<path d="M28.734 16.7851C29.3639 16.7851 29.8743 16.2744 29.8743 15.6448C29.8743 15.0149 29.3636 14.5043 28.734 14.5043C28.1042 14.5043 27.5938 15.0149 27.5938 15.6448C27.5935 16.2747 28.1042 16.7851 28.734 16.7851Z" fill="#7450A5"/>
<path d="M69.3395 28.2974C68.7096 28.2974 68.1992 28.808 68.1992 29.4376C68.1992 30.0675 68.7096 30.5782 69.3395 30.5782C69.9694 30.5782 70.4798 30.0675 70.4798 29.4376C70.4798 28.808 69.9694 28.2974 69.3395 28.2974Z" fill="#7450A5"/>
<path d="M62.5731 42.3949C64.2497 41.2472 65.3526 39.3205 65.3526 37.14C65.3526 33.6301 62.4974 30.7744 58.987 30.7744C55.4766 30.7744 52.6214 33.6301 52.6214 37.14C52.6214 39.3688 53.775 41.3304 55.5142 42.468C52.9113 43.7893 51.1195 46.4861 51.1195 49.6V56.7176C49.7417 56.2667 48.1625 56.5798 47.0779 57.6422L44.9457 59.7323C44.8315 59.8445 44.6969 59.9245 44.5614 60.0016C44.2089 58.4909 43.2734 57.2051 42.0033 56.3925C43.0059 55.512 43.6529 54.2363 43.6529 52.8C43.6529 50.1531 41.4998 48 38.8529 48C36.2059 48 34.0529 50.1531 34.0529 52.8C34.0529 54.2363 34.6998 55.5123 35.7025 56.3925C34.4331 57.2048 33.4982 58.4896 33.1451 59.9989C33.0097 59.9216 32.8734 59.8443 32.759 59.7323L30.6278 57.6422C29.5433 56.5798 27.9641 56.2664 26.5862 56.7176V49.6C26.5862 46.4043 24.6987 43.6485 21.9838 42.3677C23.6393 41.2171 24.727 39.3043 24.727 37.14C24.727 33.6301 21.8718 30.7744 18.3614 30.7744C14.851 30.7744 11.9947 33.6301 11.9947 37.14C11.9947 39.3859 13.1673 41.3595 14.9294 42.4928C12.3534 43.8238 10.5859 46.5067 10.5859 49.6V69.3334C10.5859 69.9224 11.063 70.4 11.6526 70.4H66.0526C66.6422 70.4 67.1193 69.9224 67.1193 69.3334V49.6C67.1193 46.4267 65.2574 43.6872 62.5731 42.3949ZM58.987 32.9077C61.3203 32.9077 63.2193 34.8061 63.2193 37.14C63.2193 39.4739 61.3203 41.3723 58.987 41.3723C56.6537 41.3723 54.7547 39.4739 54.7547 37.14C54.7547 34.8061 56.6537 32.9077 58.987 32.9077ZM36.1859 52.8C36.1859 51.3296 37.3817 50.1333 38.8526 50.1333C40.3235 50.1333 41.5193 51.3296 41.5193 52.8C41.5193 54.2704 40.3235 55.4667 38.8526 55.4667C37.3817 55.4667 36.1859 54.2704 36.1859 52.8ZM18.3609 32.9077C20.6942 32.9077 22.5931 34.8061 22.5931 37.14C22.5931 39.4739 20.6942 41.3723 18.3609 41.3723C16.0265 41.3723 14.1275 39.4739 14.1275 37.14C14.1275 34.8061 16.0265 32.9077 18.3609 32.9077ZM24.4526 68.2667H12.7193V49.6C12.7193 46.3651 15.3515 43.7333 18.5859 43.7333C21.8203 43.7333 24.4526 46.3651 24.4526 49.6V68.2667ZM26.5859 59.1136C26.6019 59.1013 26.6217 59.0981 26.6369 59.0851C27.3587 58.4664 28.4555 58.5013 29.1337 59.1659L31.2659 61.256C31.7465 61.7275 32.3417 62.0635 32.9857 62.2419V68.2667H26.5857L26.5859 59.1136ZM35.1193 68.2667V61.3333C35.1193 59.275 36.7942 57.6 38.8526 57.6C40.911 57.6 42.5859 59.275 42.5859 61.3333V68.2667H35.1193ZM44.7193 68.2667V62.2435C45.3654 62.0667 45.9523 61.7331 46.439 61.2557L48.5713 59.1661C49.2473 58.5005 50.3451 58.4651 51.0691 59.0848L51.1193 59.1278V68.2667H44.7193ZM64.9859 68.2667H53.2526V49.6C53.2526 46.3651 55.8849 43.7333 59.1193 43.7333C62.3537 43.7333 64.9859 46.3651 64.9859 49.6V68.2667Z" fill="#7450A5"/>
</svg>
