<svg width="80" height="80" viewBox="0 0 80 80" fill="none" xmlns="http://www.w3.org/2000/svg">
<path d="M40.0003 42.7825C27.9928 42.7825 18.5303 54.9325 18.1328 55.45C17.7891 55.8975 17.7891 56.5225 18.1328 56.9712C18.5303 57.4887 27.9928 69.6387 40.0003 69.6387C52.0078 69.6387 61.4703 57.4887 61.8678 56.9712C62.2116 56.5237 62.2116 55.8987 61.8678 55.45C61.4703 54.9325 52.0078 42.7825 40.0003 42.7825ZM40.0003 67.1375C30.8653 67.1375 22.9803 58.805 20.7466 56.21C22.9803 53.615 30.8653 45.2825 40.0003 45.2825C49.1353 45.2825 57.0203 53.615 59.2541 56.21C57.0203 58.805 49.1353 67.1375 40.0003 67.1375Z" fill="#7450A5"/>
<path d="M40.0003 48.4363C35.7141 48.4363 32.2266 51.9238 32.2266 56.21C32.2266 60.4963 35.7141 63.9838 40.0003 63.9838C44.2866 63.9838 47.7741 60.4963 47.7741 56.21C47.7741 51.9238 44.2866 48.4363 40.0003 48.4363ZM40.0003 61.4838C37.0928 61.4838 34.7266 59.1175 34.7266 56.21C34.7266 53.3025 37.0928 50.9363 40.0003 50.9363C42.9078 50.9363 45.2741 53.3025 45.2741 56.21C45.2741 59.1175 42.9078 61.4838 40.0003 61.4838Z" fill="#7450A5"/>
<path d="M74.114 37.1775H57.2327L47.0427 11.535C46.8952 7.77379 43.7977 4.75879 40.0002 4.75879C36.2027 4.75879 33.0927 7.78754 32.9565 11.56L22.7765 37.1775H5.88648C3.99648 37.1775 2.45898 38.7138 2.45898 40.6038V71.8138C2.45898 73.7038 3.99648 75.2413 5.88648 75.2413H74.1127C76.0027 75.2413 77.5402 73.7038 77.5402 71.8138V40.6038C77.5402 38.7138 76.004 37.1775 74.114 37.1775ZM40.0002 7.25879C42.5127 7.25879 44.5565 9.30254 44.5565 11.815C44.5565 14.3275 42.5127 16.3725 40.0002 16.3725C37.4877 16.3725 35.4452 14.3288 35.444 11.8175C35.444 11.8075 35.4465 11.7988 35.4465 11.7888C35.4615 9.28879 37.4977 7.25879 40.0002 7.25879ZM34.0465 15.5863C35.299 17.5575 37.4965 18.8713 40.0002 18.8713C42.504 18.8713 44.7065 17.5538 45.959 15.5775L54.5427 37.1775H25.4677L34.0465 15.5863ZM75.0402 71.8138C75.0402 72.325 74.624 72.7413 74.1127 72.7413H5.88648C5.37523 72.7413 4.95898 72.325 4.95898 71.8138V40.6038C4.95898 40.0925 5.37523 39.6775 5.88648 39.6775H23.5965C23.6052 39.6775 23.614 39.6825 23.6227 39.6825C23.634 39.6825 23.644 39.6775 23.6552 39.6775H56.3527C56.364 39.6775 56.374 39.6825 56.3852 39.6825C56.394 39.6825 56.4027 39.6775 56.4115 39.6775H74.1127C74.624 39.6775 75.0402 40.0925 75.0402 40.6038V71.8138Z" fill="#7450A5"/>
</svg>
