<svg width="80" height="80" viewBox="0 0 80 80" fill="none" xmlns="http://www.w3.org/2000/svg">
<path d="M73.2314 37.4346C72.5844 29.5174 69.1458 22.0875 63.5288 16.4705C57.9118 10.8536 50.4819 7.41487 42.5647 6.76796C42.2289 6.74237 41.9153 6.59067 41.6867 6.34334C41.4582 6.09601 41.3317 5.77137 41.3327 5.43463V2.66663H38.666V5.43996C38.667 5.77649 38.5407 6.10095 38.3125 6.34825C38.0842 6.59555 37.7709 6.74738 37.4353 6.77329C29.518 7.41994 22.088 10.8585 16.471 16.4756C10.8539 22.0926 7.41533 29.5226 6.76868 37.44C6.74309 37.7757 6.5914 38.0894 6.34407 38.3179C6.09674 38.5465 5.77209 38.6729 5.43535 38.672H2.66602V41.3386H5.43935C5.77609 41.3377 6.10074 41.4641 6.34807 41.6927C6.5954 41.9212 6.74709 42.2349 6.77268 42.5706C7.41933 50.4879 10.8579 57.918 16.475 63.535C22.092 69.152 29.522 72.5907 37.4394 73.2373C37.7749 73.2632 38.0882 73.415 38.3165 73.6623C38.5447 73.9096 38.671 74.2341 38.67 74.5706V77.3333H41.3367V74.56C41.3357 74.2232 41.4622 73.8986 41.6907 73.6512C41.9193 73.4039 42.2329 73.2522 42.5687 73.2266C50.4859 72.5797 57.9158 69.141 63.5328 63.524C69.1497 57.9071 72.5884 50.4772 73.2354 42.56C73.2609 42.2242 73.4126 41.9105 73.66 41.682C73.9073 41.4535 74.2319 41.327 74.5687 41.328H77.3327V38.6666H74.5593C74.2235 38.6663 73.9002 38.5392 73.654 38.3108C73.4078 38.0824 73.2569 37.7695 73.2314 37.4346ZM69.2153 41.3333C69.4011 41.3325 69.585 41.3706 69.7553 41.4451C69.9255 41.5195 70.0783 41.6287 70.2038 41.7657C70.3293 41.9027 70.4249 42.0643 70.4843 42.2404C70.5436 42.4164 70.5656 42.6029 70.5487 42.788C69.8989 49.9307 66.7653 56.6195 61.6932 61.6904C56.6211 66.7613 49.9315 69.8932 42.7887 70.5413C42.7483 70.5433 42.7078 70.5433 42.6674 70.5413C42.3137 70.5413 41.9746 70.4008 41.7245 70.1508C41.4745 69.9007 41.334 69.5616 41.334 69.208V66.6666H38.666V69.2133C38.6659 69.3985 38.6272 69.5817 38.5523 69.7511C38.4775 69.9205 38.3682 70.0725 38.2313 70.1973C38.0956 70.3235 37.9346 70.4194 37.759 70.4787C37.5833 70.538 37.3972 70.5593 37.2127 70.5413C30.0722 69.8903 23.3858 66.757 18.3164 61.6864C13.247 56.6157 10.1153 49.9286 9.46602 42.788C9.44911 42.6029 9.47105 42.4164 9.53045 42.2404C9.58984 42.0643 9.68537 41.9027 9.81091 41.7657C9.93644 41.6287 10.0892 41.5195 10.2594 41.4451C10.4297 41.3706 10.6136 41.3325 10.7993 41.3333H13.3327V38.6666H10.7873C10.6016 38.6674 10.4177 38.6293 10.2474 38.5549C10.0772 38.4804 9.92445 38.3712 9.79891 38.2342C9.67337 38.0973 9.57784 37.9356 9.51845 37.7595C9.45905 37.5835 9.43711 37.397 9.45402 37.212C10.1038 30.0693 13.2374 23.3805 18.3095 18.3096C23.3816 13.2387 30.0712 10.1067 37.214 9.45863C37.3989 9.44191 37.5853 9.46401 37.7612 9.52349C37.9371 9.58297 38.0986 9.67853 38.2354 9.80405C38.3722 9.92957 38.4813 10.0823 38.5557 10.2524C38.6301 10.4225 38.6681 10.6063 38.6674 10.792V13.3333H41.334V10.7866C41.3332 10.6008 41.3713 10.4169 41.4458 10.2467C41.5202 10.0765 41.6295 9.92372 41.7664 9.79818C41.9034 9.67265 42.0651 9.57712 42.2411 9.51772C42.4171 9.45833 42.6037 9.43638 42.7887 9.45329C49.9314 10.1027 56.6204 13.236 61.6915 18.3079C66.7626 23.3797 69.895 30.0691 70.5434 37.212C70.5603 37.397 70.5383 37.5835 70.4789 37.7595C70.4195 37.9356 70.324 38.0973 70.1985 38.2342C70.0729 38.3712 69.9201 38.4804 69.7499 38.5549C69.5797 38.6293 69.3958 38.6674 69.21 38.6666H66.666V41.3333H69.2153Z" fill="#7450A5"/>
<path d="M50.3574 24.4905C52.7627 24.4908 55.0773 25.4065 56.832 27.051H56.833C57.678 27.8874 58.3488 28.8834 58.8066 29.9807C59.2644 31.0778 59.5 32.2548 59.5 33.4436C59.5 34.6325 59.2644 35.8102 58.8066 36.9075C58.3489 38.0046 57.6779 38.9999 56.833 39.8362V39.8372L39.999 56.5042L23.1758 39.8381L23.1748 39.8372L22.8652 39.5168C22.1627 38.7517 21.5971 37.8698 21.1953 36.9094C20.7362 35.8119 20.5 34.6333 20.5 33.4436C20.5 32.254 20.7362 31.0762 21.1953 29.9788C21.6544 28.8812 22.3267 27.8854 23.1738 27.05C24.9293 25.4054 27.2456 24.4905 29.6514 24.4905C32.0611 24.4905 34.3802 25.4092 36.1367 27.0588L38.7012 29.6145H38.7021C39.0455 29.9553 39.5094 30.1466 39.9932 30.1467C40.4767 30.1467 40.9408 29.9559 41.2842 29.6155L43.8711 27.0588C45.6275 25.4086 47.9474 24.4902 50.3574 24.4905ZM27.501 37.6448C27.0146 37.6465 26.5488 37.8416 26.2061 38.1868C25.8634 38.5319 25.6721 38.9993 25.6738 39.4856C25.6757 39.9718 25.8698 40.4379 26.2148 40.7805L26.4004 40.9641C26.5704 41.1339 26.7722 41.2686 26.9941 41.3606C27.2167 41.4528 27.4554 41.5002 27.6963 41.5002C27.9372 41.5002 28.1759 41.4528 28.3984 41.3606C28.5651 41.2915 28.7204 41.1983 28.8594 41.0842L28.9932 40.9631C29.1642 40.7923 29.2993 40.5889 29.3916 40.3655C29.4839 40.1417 29.5311 39.9014 29.5303 39.6594C29.5294 39.4175 29.4805 39.1783 29.3867 38.9553C29.2929 38.7322 29.1558 38.5294 28.9834 38.3596L28.7998 38.177C28.4546 37.8343 27.9874 37.6431 27.501 37.6448ZM28.0205 27.2004C27.5814 26.9916 27.0773 26.9664 26.6191 27.1292L26.6162 27.1301C25.7202 27.4548 24.903 27.9667 24.2207 28.6321C23.5397 29.2962 23.0082 30.098 22.6611 30.9836C22.2983 31.8817 22.1317 32.8469 22.1719 33.8147C22.2121 34.7826 22.4584 35.731 22.8945 36.5959L22.8955 36.5979C23.0049 36.8124 23.1557 37.0031 23.3389 37.1594C23.5222 37.3158 23.7347 37.4348 23.9639 37.509C24.193 37.5832 24.4348 37.6112 24.6748 37.592C24.9148 37.5728 25.1489 37.5063 25.3633 37.3967H25.3643C25.7965 37.1747 26.1226 36.79 26.2715 36.3274C26.4198 35.8662 26.3791 35.3654 26.1592 34.9338H26.1602C25.9608 34.5348 25.8489 34.0974 25.832 33.6516C25.8152 33.206 25.8939 32.7617 26.0625 32.3489L26.0664 32.3391C26.2214 31.936 26.4607 31.5707 26.7686 31.2678C27.0763 30.965 27.4451 30.7307 27.8506 30.5823C28.307 30.4189 28.6804 30.0817 28.8887 29.6438C29.0974 29.2047 29.1238 28.7006 28.9609 28.2424C28.7981 27.7842 28.4597 27.4093 28.0205 27.2004Z" stroke="#7450A5"/>
</svg>
