<svg width="80" height="80" viewBox="0 0 80 80" fill="none" xmlns="http://www.w3.org/2000/svg">
<path d="M59.393 39.505L53.1692 57.645C52.8192 58.63 52.858 59.7062 53.2717 60.6662L56.7142 68.8562C56.853 69.1787 56.8892 69.555 56.8105 69.895L55.7055 74.775C55.6942 74.8225 55.7067 74.8687 55.7017 74.9162C55.6967 74.9625 55.6742 75.0037 55.6742 75.0512C55.6742 75.0887 55.693 75.1212 55.6955 75.1575C55.703 75.245 55.7205 75.3262 55.7467 75.4087C55.7692 75.4837 55.7942 75.5537 55.8292 75.6225C55.8667 75.695 55.9117 75.7575 55.963 75.82C56.013 75.8825 56.063 75.94 56.1242 75.9912C56.183 76.0425 56.248 76.0812 56.3167 76.1212C56.3917 76.1637 56.4655 76.1987 56.5492 76.225C56.5842 76.2362 56.6117 76.2612 56.6492 76.27C56.7405 76.2912 56.833 76.3012 56.923 76.3012H69.028C69.028 76.3012 69.0305 76.3012 69.0317 76.3012C69.1855 76.3012 69.3317 76.265 69.4717 76.2112C69.5167 76.1937 69.5555 76.17 69.598 76.1475C69.688 76.1012 69.7692 76.0475 69.8467 75.98C69.8855 75.945 69.9217 75.9112 69.9567 75.8725C70.023 75.7987 70.0755 75.7162 70.123 75.6262C70.1467 75.5812 70.1742 75.54 70.193 75.4925C70.1992 75.475 70.213 75.4612 70.2192 75.4425L76.4642 56.6312C77.028 54.935 77.228 53.1675 77.0592 51.3762L75.9217 39.4537C75.8455 38.7537 75.6917 38.0962 75.4667 37.5062L69.2092 20.8325C68.3767 18.5812 65.8017 17.3137 63.368 18.2475C61.288 19.0762 60.1355 21.3312 60.6867 23.4937C61.5617 26.9437 63.093 32.975 64.0467 36.7075C62.0592 36.4012 60.073 37.5437 59.3942 39.5037L59.393 39.505ZM64.9155 40.045C64.9342 40.1012 64.9555 40.155 64.983 40.2087C65.0755 40.3937 65.1267 40.6312 65.1267 40.8775C65.1267 41.0412 65.1005 41.205 65.0442 41.3837L61.1155 54.1187C60.913 54.7787 61.283 55.4787 61.9417 55.6812C62.603 55.8837 63.3017 55.5137 63.5055 54.855L67.4317 42.125C67.5617 41.7125 67.6267 41.2912 67.6267 40.8762C67.6267 40.255 67.488 39.655 67.268 39.1975C66.9505 38.0212 64.3592 27.8087 63.108 22.875C62.8667 21.9262 63.3755 20.935 64.278 20.5762C65.388 20.15 66.4967 20.7075 66.8642 21.705L73.128 38.3937C73.2792 38.7887 73.383 39.2362 73.4342 39.7062L74.5705 51.6125C74.7055 53.0537 74.5442 54.4762 74.0905 55.8425L68.1292 73.7987H58.4892L59.248 70.45C59.4442 69.595 59.3605 68.6762 59.013 67.8737L55.5705 59.6837C55.403 59.295 55.3867 58.8687 55.5292 58.4675L61.7567 40.3187C62.068 39.42 63.0592 38.935 63.9555 39.2387C64.393 39.3837 64.7442 39.6937 64.9155 40.045Z" fill="#7450A5"/>
<path d="M16.6197 18.2438C14.2484 17.3363 11.6259 18.585 10.7959 20.8275L4.53966 37.4988C4.30966 38.0975 4.15591 38.755 4.07966 39.47L2.94341 51.3788C2.77341 53.1675 2.97341 54.935 3.53841 56.6313L9.78341 75.4438C9.78966 75.4625 9.80216 75.4763 9.80966 75.4938C9.82841 75.5413 9.85591 75.5825 9.87966 75.6275C9.92716 75.7175 9.97966 75.8 10.0459 75.8738C10.0809 75.9125 10.1172 75.9463 10.1559 75.9813C10.2322 76.0488 10.3147 76.1025 10.4047 76.1488C10.4472 76.1713 10.4859 76.195 10.5309 76.2113C10.6709 76.265 10.8184 76.3013 10.9709 76.3013H10.9747H23.0784C23.1697 76.3013 23.2622 76.2913 23.3534 76.27C23.3909 76.2613 23.4172 76.2363 23.4534 76.225C23.5372 76.1988 23.6109 76.1638 23.6859 76.1213C23.7547 76.0825 23.8184 76.0425 23.8784 75.9913C23.9397 75.9388 23.9897 75.8825 24.0397 75.82C24.0909 75.7563 24.1359 75.6938 24.1734 75.6225C24.2097 75.5538 24.2334 75.4838 24.2572 75.4088C24.2822 75.3263 24.2997 75.2463 24.3072 75.1588C24.3109 75.1213 24.3284 75.09 24.3284 75.0525C24.3284 75.005 24.3059 74.9638 24.3009 74.9175C24.2959 74.87 24.3084 74.8238 24.2972 74.7763L23.1909 69.8913C23.1134 69.5563 23.1497 69.18 23.2934 68.8463L26.7259 60.6788C27.1447 59.7088 27.1834 58.6325 26.8384 57.66L20.6084 39.5038C19.9284 37.5463 17.9384 36.4038 15.9572 36.71C16.9109 32.9775 18.4409 26.9463 19.3172 23.4963C19.8684 21.335 18.7172 19.0788 16.6222 18.245L16.6197 18.2438ZM16.8922 22.88C15.6584 27.74 13.1234 37.7363 12.7384 39.18C12.4997 39.6925 12.3734 40.2775 12.3734 40.8775C12.3734 41.2938 12.4397 41.7138 12.5659 42.1213L16.4947 54.8563C16.6984 55.515 17.3972 55.8875 18.0584 55.6825C18.7172 55.4788 19.0872 54.7788 18.8847 54.12L14.9534 41.3788C14.8997 41.2063 14.8734 41.0425 14.8734 40.8788C14.8734 40.6325 14.9247 40.395 15.0084 40.2275C15.0309 40.1838 15.0572 40.1175 15.0834 40.0488C15.2897 39.665 15.6284 39.3788 16.0472 39.24C16.9447 38.9375 17.9322 39.4225 18.2409 40.3175L24.4747 58.4825C24.6122 58.87 24.5959 59.2975 24.4234 59.6963L20.9909 67.8638C20.6397 68.6763 20.5547 69.5963 20.7509 70.4463L21.5097 73.8H11.8697L5.90841 55.8438C5.45466 54.4788 5.29341 53.0563 5.42841 51.6163L6.56341 39.7238C6.61591 39.2388 6.71966 38.7913 6.87466 38.3875L13.1372 21.7013C13.5009 20.7113 14.6584 20.1675 15.7072 20.5725C16.6234 20.9375 17.1334 21.9275 16.8897 22.88H16.8922Z" fill="#7450A5"/>
<path d="M39.9996 3.69995C30.5496 3.69995 22.8496 12.45 22.8496 23.2C22.8496 33.95 30.5496 42.6875 39.9996 42.6875C49.4496 42.6875 57.1496 33.95 57.1496 23.2C57.1496 12.45 49.4496 3.69995 39.9996 3.69995ZM42.3246 39.9624C44.2496 36.2624 46.9246 28.625 40.8996 22.325C34.9621 16.125 39.2871 8.32495 40.6371 6.22495C48.4246 6.61245 54.6496 14.075 54.6496 23.2C54.6496 31.65 49.2996 38.6749 42.3246 39.9624Z" fill="#7450A5"/>
<path d="M46.5352 11.44C46.0477 11.9287 46.0477 12.72 46.5377 13.2075C48.1815 14.8487 49.4952 17.0412 50.4415 19.7225C50.624 20.2362 51.1052 20.5562 51.6202 20.5562C51.7577 20.5562 51.899 20.5325 52.0365 20.4837C52.6877 20.2537 53.029 19.54 52.799 18.8887C51.7265 15.8512 50.214 13.345 48.3015 11.4375C47.8152 10.9487 47.0227 10.9487 46.534 11.4375L46.5352 11.44Z" fill="#7450A5"/>
<path d="M44.8403 8.94752C44.554 8.81752 44.394 8.76627 44.394 8.76627C43.744 8.56002 43.044 8.91002 42.8253 9.55877C42.6078 10.2063 42.949 10.9088 43.5928 11.135C43.6153 11.1425 43.6903 11.1713 43.8078 11.2238C43.9753 11.3 44.1503 11.3363 44.3228 11.3363C44.799 11.3363 45.2528 11.0625 45.4628 10.6013C45.7478 9.97252 45.469 9.23252 44.8403 8.94752Z" fill="#7450A5"/>
</svg>
