<svg width="358" height="493" viewBox="0 0 358 493" fill="none" xmlns="http://www.w3.org/2000/svg">
<path d="M324.449 259.198C324.433 255.99 324.735 252.807 325.35 249.661C325.964 246.51 326.886 243.453 328.11 240.49C329.334 237.521 330.834 234.703 332.621 232.036C334.402 229.37 336.428 226.906 338.704 224.641C340.209 223.13 341.636 221.552 342.985 219.906C344.334 218.255 345.6 216.547 346.782 214.776C347.964 213 349.053 211.177 350.058 209.297C351.058 207.417 351.97 205.495 352.782 203.526C353.595 201.557 354.313 199.552 354.928 197.516C355.548 195.479 356.063 193.411 356.475 191.323C356.891 189.234 357.204 187.13 357.412 185.01C357.621 182.891 357.725 180.766 357.725 178.635C357.725 176.505 357.621 174.38 357.412 172.26C357.204 170.141 356.891 168.036 356.475 165.948C356.063 163.859 355.548 161.792 354.928 159.755C354.313 157.714 353.595 155.714 352.782 153.745C351.97 151.776 351.058 149.854 350.058 147.974C349.053 146.094 347.964 144.266 346.782 142.495C345.6 140.724 344.334 139.01 342.985 137.365C341.636 135.719 340.209 134.141 338.704 132.63C336.423 130.37 334.386 127.911 332.6 125.245C330.813 122.578 329.308 119.76 328.084 116.792C326.86 113.828 325.938 110.766 325.329 107.615C324.72 104.464 324.423 101.281 324.449 98.0729C324.438 95.9479 324.324 93.8229 324.1 91.7083C323.881 89.5885 323.558 87.4896 323.136 85.4063C322.709 83.3177 322.183 81.2604 321.558 79.224C320.928 77.1927 320.204 75.1927 319.381 73.2344C318.558 71.2708 317.641 69.3542 316.631 67.4792C315.621 65.6042 314.522 63.7865 313.334 62.0208C312.141 60.2604 310.871 58.5573 309.516 56.9167C308.157 55.276 306.725 53.7031 305.214 52.2031C303.709 50.7031 302.126 49.2813 300.48 47.9375C298.829 46.5938 297.121 45.3333 295.345 44.1563C293.574 42.9792 291.746 41.8906 289.865 40.8906C287.99 39.8958 286.063 38.9896 284.095 38.1771C282.131 37.3698 280.126 36.6563 278.089 36.0469C276.048 35.4323 273.985 34.9167 271.902 34.5052C269.813 34.0938 267.709 33.7865 265.589 33.5833C263.475 33.375 261.35 33.276 259.22 33.2813C256.011 33.3021 252.829 33.0104 249.678 32.3958C246.527 31.7865 243.47 30.8698 240.501 29.6458C237.537 28.4219 234.72 26.9167 232.053 25.125C229.386 23.3385 226.923 21.3073 224.662 19.026C223.157 17.5208 221.579 16.0937 219.928 14.7448C218.282 13.3958 216.574 12.1302 214.798 10.9479C213.027 9.76562 211.204 8.67187 209.324 7.67187C207.443 6.66667 205.522 5.76042 203.553 4.94271C201.584 4.13021 199.579 3.41667 197.542 2.79687C195.501 2.18229 193.438 1.66667 191.35 1.25C189.261 0.833333 187.157 0.520833 185.037 0.3125C182.917 0.104167 180.792 0 178.662 0C176.532 0 174.407 0.104167 172.287 0.3125C170.167 0.520833 168.063 0.833333 165.97 1.25C163.881 1.66667 161.818 2.18229 159.782 2.79687C157.74 3.41667 155.735 4.13021 153.772 4.94271C151.803 5.76042 149.876 6.66667 147.996 7.67187C146.121 8.67187 144.292 9.76562 142.522 10.9479C140.746 12.1302 139.037 13.3958 137.391 14.7448C135.74 16.0937 134.162 17.5208 132.657 19.026C130.397 21.3021 127.928 23.3333 125.261 25.1198C122.595 26.901 119.777 28.4063 116.813 29.6302C113.845 30.8542 110.787 31.776 107.636 32.3854C104.485 33 101.308 33.2969 98.0997 33.2813C95.9695 33.2813 93.8445 33.3906 91.7247 33.599C89.605 33.8125 87.5008 34.125 85.4122 34.5417C83.3237 34.9583 81.2612 35.4792 79.2247 36.099C77.1883 36.7188 75.1831 37.4375 73.2195 38.2552C71.2508 39.0729 69.3289 39.9792 67.4487 40.9844C65.5737 41.9896 63.7456 43.0833 61.9747 44.2708C60.2091 45.4531 58.5008 46.7188 56.855 48.0729C55.2039 49.4219 53.631 50.8542 52.1258 52.3594C50.6206 53.8646 49.1883 55.4427 47.8393 57.0885C46.4852 58.7344 45.2195 60.4427 44.0372 62.2135C42.8497 63.9844 41.756 65.8073 40.7508 67.6823C39.7456 69.5625 38.8341 71.4844 38.0216 73.4531C37.2039 75.4167 36.4852 77.4219 35.8654 79.4583C35.2456 81.4948 34.7247 83.5573 34.3081 85.6458C33.8914 87.7344 33.5789 89.8385 33.3654 91.9583C33.157 94.0781 33.0477 96.2031 33.0477 98.3333C33.0581 101.542 32.7612 104.719 32.1414 107.87C31.5268 111.016 30.6049 114.073 29.381 117.042C28.1622 120.005 26.657 122.823 24.8758 125.49C23.0893 128.161 21.0633 130.625 18.7924 132.891C17.2977 134.401 15.881 135.979 14.5424 137.625C13.1987 139.276 11.9435 140.984 10.7716 142.755C9.60495 144.531 8.52162 146.354 7.52682 148.234C6.53724 150.109 5.6362 152.031 4.83411 154C4.02682 155.964 3.3237 157.964 2.71432 160C2.10495 162.036 1.59974 164.094 1.19349 166.177C0.787239 168.266 0.485157 170.365 0.287239 172.479C0.0841141 174.594 -0.00963549 176.714 0.000780508 178.839C0.00598851 180.958 0.120573 183.078 0.334114 185.193C0.547655 187.302 0.870573 189.401 1.29245 191.484C1.70911 193.568 2.23516 195.62 2.85495 197.651C3.47995 199.682 4.1987 201.677 5.02161 203.635C5.83932 205.599 6.75078 207.51 7.75599 209.38C8.76641 211.255 9.86016 213.068 11.0477 214.833C12.2299 216.594 13.5008 218.297 14.8497 219.932C16.2039 221.573 17.631 223.141 19.1362 224.641C21.4018 226.911 23.4227 229.38 25.1987 232.047C26.9799 234.719 28.4799 237.536 29.7039 240.5C30.9279 243.464 31.8497 246.521 32.4695 249.667C33.0893 252.813 33.3966 255.99 33.3914 259.198C33.3862 261.078 33.4695 262.953 33.6258 264.828C33.7872 266.698 34.0268 268.563 34.3497 270.417C34.6727 272.266 35.0737 274.104 35.5529 275.922C36.0372 277.74 36.5945 279.531 37.2299 281.302C37.8706 283.068 38.5789 284.807 39.3654 286.516C40.1518 288.224 41.0112 289.891 41.9435 291.526C42.8758 293.156 43.881 294.745 44.9487 296.292C46.0164 297.839 47.1518 299.339 48.355 300.786C49.5529 302.234 50.8133 303.625 52.131 304.964C53.4539 306.302 54.8289 307.578 56.2612 308.802C57.6935 310.021 59.1727 311.172 60.7039 312.266C62.2352 313.354 63.8133 314.38 65.4331 315.333C67.0529 316.286 68.7091 317.167 70.407 317.979C72.105 318.786 73.8289 319.526 75.5893 320.182C77.3497 320.844 79.1362 321.427 80.9487 321.932C82.7612 322.438 84.5893 322.865 86.4383 323.214L20.8654 481.396C20.6362 482.01 20.4852 482.646 20.407 483.292C20.3341 483.943 20.3341 484.594 20.4122 485.24C20.4904 485.891 20.6466 486.521 20.8758 487.135C21.1049 487.745 21.4018 488.323 21.7716 488.865C22.1414 489.406 22.5633 489.896 23.0529 490.333C23.5372 490.776 24.0633 491.151 24.6414 491.464C25.2143 491.776 25.8185 492.016 26.4487 492.182C27.0841 492.349 27.7247 492.443 28.381 492.458H29.9331L178.876 463.516L327.818 492.458H329.371C330.589 492.422 331.746 492.141 332.845 491.609C333.943 491.083 334.886 490.359 335.678 489.432C336.183 488.849 336.6 488.203 336.917 487.5C337.235 486.792 337.449 486.057 337.558 485.292C337.667 484.526 337.662 483.76 337.548 482.995C337.433 482.229 337.214 481.495 336.886 480.792L271.141 323.214C272.996 322.87 274.829 322.448 276.647 321.948C278.464 321.448 280.256 320.865 282.022 320.208C283.787 319.552 285.522 318.823 287.225 318.016C288.923 317.208 290.589 316.328 292.214 315.375C293.839 314.422 295.423 313.401 296.959 312.313C298.496 311.224 299.985 310.073 301.423 308.854C302.86 307.635 304.24 306.354 305.568 305.016C306.897 303.682 308.162 302.286 309.365 300.839C310.574 299.391 311.714 297.896 312.787 296.349C313.865 294.802 314.871 293.208 315.808 291.573C316.746 289.943 317.61 288.271 318.402 286.563C319.199 284.849 319.912 283.109 320.553 281.339C321.199 279.568 321.761 277.771 322.246 275.953C322.73 274.13 323.136 272.292 323.464 270.438C323.792 268.583 324.037 266.714 324.199 264.839C324.365 262.958 324.449 261.078 324.449 259.198ZM259.22 308.094C254.949 308.083 250.714 308.484 246.516 309.313C242.324 310.135 238.251 311.365 234.298 312.995C230.345 314.625 226.595 316.63 223.037 319.005C219.485 321.375 216.193 324.078 213.173 327.099C212.042 328.234 210.86 329.307 209.621 330.328C208.386 331.344 207.105 332.297 205.772 333.188C204.443 334.078 203.068 334.901 201.657 335.656C200.246 336.417 198.803 337.099 197.324 337.714C195.845 338.328 194.339 338.865 192.808 339.333C191.277 339.797 189.725 340.188 188.152 340.5C186.584 340.813 185.001 341.047 183.407 341.203C181.813 341.359 180.22 341.438 178.615 341.438C177.016 341.438 175.417 341.359 173.824 341.203C172.23 341.047 170.652 340.813 169.079 340.5C167.511 340.188 165.959 339.797 164.428 339.333C162.897 338.865 161.391 338.328 159.912 337.714C158.433 337.099 156.985 336.417 155.574 335.656C154.162 334.901 152.792 334.078 151.459 333.188C150.131 332.297 148.85 331.344 147.61 330.328C146.376 329.307 145.188 328.234 144.058 327.099C141.048 324.078 137.766 321.375 134.22 319C130.673 316.625 126.928 314.625 122.985 312.995C119.037 311.359 114.975 310.135 110.782 309.307C106.595 308.484 102.365 308.078 98.0997 308.094C96.506 308.078 94.9175 307.99 93.3341 307.818C91.7508 307.651 90.1779 307.406 88.6206 307.083C87.0633 306.76 85.5216 306.359 84.0008 305.885C82.48 305.417 80.9852 304.87 79.5164 304.25C78.0529 303.63 76.6206 302.943 75.2195 302.182C73.8185 301.422 72.4591 300.599 71.1414 299.703C69.8185 298.813 68.5477 297.859 67.3237 296.844C66.0945 295.823 64.9227 294.75 63.8029 293.62C62.6779 292.49 61.6154 291.307 60.6102 290.073C59.605 288.839 58.6622 287.557 57.782 286.229C56.9018 284.901 56.0893 283.536 55.3445 282.13C54.5945 280.724 53.9175 279.281 53.3133 277.807C52.7091 276.339 52.1727 274.839 51.7143 273.313C51.256 271.786 50.8706 270.245 50.5633 268.682C50.2508 267.12 50.0216 265.547 49.8654 263.964C49.7091 262.375 49.631 260.786 49.631 259.198C49.6466 254.927 49.2404 250.698 48.4175 246.51C47.5945 242.323 46.3654 238.255 44.7352 234.313C43.105 230.365 41.0997 226.62 38.7247 223.073C36.3497 219.526 33.6518 216.245 30.6258 213.234C29.4904 212.104 28.4174 210.922 27.4018 209.682C26.381 208.448 25.4279 207.161 24.5372 205.833C23.6466 204.505 22.8237 203.13 22.0685 201.719C21.3133 200.307 20.6258 198.865 20.0164 197.385C19.4018 195.906 18.8602 194.401 18.3966 192.87C17.9279 191.339 17.5424 189.786 17.2299 188.214C16.9174 186.646 16.6779 185.063 16.5216 183.469C16.3654 181.875 16.2872 180.281 16.2872 178.677C16.2872 177.078 16.3654 175.479 16.5216 173.885C16.6779 172.292 16.9174 170.714 17.2299 169.141C17.5424 167.573 17.9279 166.021 18.3966 164.49C18.8602 162.953 19.4018 161.448 20.0164 159.969C20.6258 158.495 21.3133 157.047 22.0685 155.635C22.8237 154.224 23.6466 152.854 24.5372 151.521C25.4279 150.193 26.381 148.906 27.4018 147.672C28.4174 146.438 29.4904 145.25 30.6258 144.12C33.657 141.104 36.3549 137.818 38.7352 134.26C41.1102 130.708 43.1154 126.953 44.7456 123C46.3758 119.052 47.605 114.974 48.4279 110.781C49.2508 106.583 49.6518 102.349 49.631 98.0729C49.6362 96.4792 49.7143 94.8854 49.8758 93.2969C50.0372 91.7083 50.2716 90.1302 50.5841 88.5625C50.8966 87 51.2872 85.4531 51.756 83.9219C52.2195 82.3958 52.7612 80.8958 53.3706 79.4219C53.9852 77.9479 54.6675 76.5052 55.4227 75.099C56.1779 73.6927 57.0008 72.3229 57.8862 70.9948C58.7768 69.6719 59.73 68.3906 60.7456 67.1563C61.756 65.9219 62.8289 64.7448 63.9591 63.6146C65.0893 62.4844 66.2716 61.4167 67.506 60.4063C68.7404 59.3906 70.0268 58.4427 71.355 57.5573C72.6831 56.6719 74.0477 55.849 75.4591 55.099C76.8654 54.349 78.3081 53.6667 79.7872 53.0573C81.2612 52.4427 82.7612 51.9063 84.2925 51.4427C85.8185 50.9844 87.3654 50.5938 88.9331 50.2865C90.5008 49.974 92.0737 49.7396 93.6675 49.5833C95.256 49.4271 96.8497 49.349 98.4435 49.349C102.714 49.3646 106.943 48.9583 111.131 48.1354C115.318 47.3073 119.386 46.0833 123.329 44.4479C127.272 42.8177 131.022 40.8177 134.568 38.4427C138.115 36.0677 141.391 33.3646 144.407 30.3438C145.537 29.2083 146.72 28.1354 147.954 27.1146C149.193 26.099 150.475 25.1458 151.808 24.2552C153.136 23.3646 154.506 22.5417 155.923 21.7865C157.334 21.026 158.777 20.3437 160.256 19.7292C161.735 19.1146 163.24 18.5781 164.772 18.1094C166.303 17.6458 167.855 17.2552 169.423 16.9427C170.996 16.6302 172.579 16.3958 174.173 16.2396C175.766 16.0833 177.36 16.0052 178.964 16.0052C180.563 16.0052 182.162 16.0833 183.756 16.2396C185.35 16.3958 186.928 16.6302 188.501 16.9427C190.068 17.2552 191.621 17.6458 193.152 18.1094C194.683 18.5781 196.188 19.1146 197.667 19.7292C199.147 20.3437 200.595 21.026 202.006 21.7865C203.417 22.5417 204.787 23.3646 206.115 24.2552C207.449 25.1458 208.73 26.099 209.97 27.1146C211.204 28.1354 212.391 29.2083 213.522 30.3438C216.511 33.3698 219.766 36.0781 223.287 38.4635C226.813 40.849 230.532 42.8698 234.454 44.5208C238.376 46.1719 242.417 47.4271 246.589 48.2813C250.756 49.1406 254.964 49.5833 259.22 49.6094C260.818 49.6094 262.407 49.6927 263.996 49.849C265.584 50.0104 267.157 50.2448 268.72 50.5573C270.287 50.8698 271.829 51.2604 273.355 51.724C274.881 52.1875 276.381 52.7292 277.855 53.3385C279.329 53.9531 280.766 54.6354 282.173 55.3854C283.579 56.1406 284.943 56.9583 286.272 57.8438C287.6 58.7344 288.876 59.6823 290.11 60.6927C291.345 61.7083 292.522 62.776 293.652 63.9063C294.777 65.0313 295.85 66.2135 296.86 67.4427C297.871 68.6771 298.824 69.9583 299.709 71.2813C300.595 72.6094 301.417 73.974 302.167 75.3802C302.923 76.7865 303.605 78.2292 304.214 79.6979C304.829 81.1719 305.365 82.6719 305.829 84.1979C306.292 85.724 306.683 87.2708 306.996 88.8333C307.308 90.3958 307.548 91.974 307.704 93.5573C307.865 95.1458 307.943 96.7396 307.949 98.3333C307.928 102.609 308.329 106.844 309.152 111.042C309.975 115.234 311.204 119.307 312.834 123.26C314.464 127.214 316.47 130.969 318.845 134.521C321.225 138.078 323.923 141.365 326.954 144.38C328.095 145.51 329.173 146.688 330.193 147.922C331.214 149.156 332.173 150.443 333.068 151.771C333.964 153.099 334.792 154.469 335.553 155.88C336.313 157.292 337.001 158.74 337.615 160.219C338.235 161.698 338.777 163.203 339.246 164.734C339.714 166.266 340.105 167.818 340.417 169.391C340.735 170.964 340.97 172.547 341.126 174.141C341.287 175.734 341.365 177.333 341.365 178.938C341.365 180.542 341.287 182.141 341.126 183.734C340.97 185.328 340.735 186.911 340.417 188.484C340.105 190.057 339.714 191.609 339.246 193.141C338.777 194.672 338.235 196.177 337.615 197.656C337.001 199.135 336.313 200.583 335.553 201.995C334.792 203.406 333.964 204.776 333.068 206.104C332.173 207.432 331.214 208.714 330.193 209.953C329.173 211.188 328.095 212.365 326.954 213.495C323.959 216.5 321.287 219.766 318.938 223.292C316.584 226.823 314.605 230.552 312.985 234.469C311.371 238.391 310.152 242.432 309.334 246.594C308.516 250.755 308.11 254.953 308.121 259.198C308.121 260.797 308.042 262.396 307.886 263.99C307.725 265.583 307.49 267.167 307.178 268.734C306.865 270.307 306.48 271.859 306.016 273.391C305.548 274.922 305.011 276.427 304.397 277.906C303.787 279.391 303.1 280.833 302.345 282.245C301.589 283.661 300.766 285.031 299.881 286.365C298.99 287.693 298.037 288.979 297.022 290.219C296.006 291.453 294.928 292.641 293.798 293.771C292.667 294.906 291.48 295.979 290.24 296.995C289.006 298.01 287.72 298.964 286.386 299.854C285.058 300.745 283.683 301.568 282.272 302.323C280.86 303.078 279.412 303.76 277.933 304.37C276.454 304.984 274.949 305.526 273.417 305.99C271.881 306.453 270.334 306.844 268.761 307.156C267.188 307.469 265.61 307.703 264.016 307.859C262.423 308.016 260.824 308.094 259.22 308.094ZM170.756 405.198V448.396L109.246 460.49L132.829 395.526C133.016 395.026 133.147 394.51 133.23 393.99C133.313 393.464 133.345 392.932 133.324 392.401C133.303 391.87 133.23 391.344 133.105 390.828C132.98 390.313 132.803 389.813 132.579 389.328C132.355 388.844 132.084 388.391 131.766 387.964C131.449 387.531 131.095 387.141 130.704 386.781C130.308 386.422 129.886 386.109 129.428 385.833C128.97 385.563 128.49 385.333 127.99 385.156C127.1 384.818 126.178 384.646 125.225 384.641C124.397 384.667 123.584 384.813 122.798 385.078C122.011 385.339 121.277 385.708 120.595 386.182C119.912 386.656 119.308 387.219 118.792 387.87C118.272 388.516 117.855 389.224 117.537 389.995L90.5841 464.12L41.7716 473.625L103.714 324.682C106.454 324.979 109.147 325.5 111.798 326.25C114.443 327 117.011 327.969 119.496 329.151C121.985 330.339 124.355 331.719 126.605 333.307C128.855 334.891 130.959 336.651 132.917 338.594C134.423 340.099 135.996 341.531 137.641 342.885C139.287 344.24 140.996 345.51 142.766 346.698C144.537 347.885 146.365 348.979 148.246 349.984C150.121 350.995 152.048 351.906 154.016 352.724C155.985 353.542 157.985 354.255 160.027 354.875C162.068 355.495 164.131 356.016 166.225 356.432C168.313 356.849 170.417 357.161 172.542 357.37C174.662 357.578 176.787 357.688 178.917 357.688C181.053 357.688 183.178 357.578 185.298 357.37C187.417 357.161 189.527 356.849 191.615 356.432C193.709 356.016 195.772 355.495 197.813 354.875C199.85 354.255 201.855 353.542 203.824 352.724C205.792 351.906 207.714 350.995 209.595 349.984C211.475 348.979 213.298 347.885 215.068 346.698C216.845 345.51 218.553 344.24 220.199 342.885C221.845 341.531 223.417 340.099 224.923 338.594C226.871 336.656 228.97 334.896 231.214 333.313C233.459 331.734 235.824 330.349 238.303 329.167C240.777 327.984 243.339 327.016 245.98 326.26C248.621 325.51 251.308 324.984 254.037 324.682L316.068 473.625L267.167 464.12L240.214 389.995C239.933 389.214 239.537 388.49 239.032 387.828C238.527 387.172 237.938 386.599 237.256 386.12C236.579 385.641 235.839 385.276 235.048 385.021C234.256 384.771 233.443 384.641 232.61 384.641C231.631 384.651 230.683 384.823 229.761 385.156C229.261 385.333 228.782 385.563 228.324 385.833C227.871 386.109 227.443 386.422 227.048 386.781C226.657 387.141 226.303 387.536 225.985 387.964C225.667 388.391 225.402 388.849 225.173 389.328C224.949 389.813 224.772 390.313 224.647 390.828C224.522 391.344 224.449 391.87 224.428 392.401C224.407 392.932 224.438 393.464 224.522 393.99C224.605 394.51 224.74 395.026 224.923 395.526L248.511 460.49L187.084 448.484V405.286C187.141 404.714 187.141 404.146 187.079 403.573C187.022 403 186.902 402.443 186.72 401.896C186.542 401.349 186.308 400.828 186.022 400.333C185.735 399.833 185.397 399.375 185.011 398.948C184.626 398.521 184.204 398.141 183.74 397.802C183.272 397.464 182.777 397.177 182.256 396.948C181.73 396.714 181.183 396.536 180.626 396.417C180.063 396.297 179.496 396.24 178.917 396.24C178.345 396.24 177.777 396.297 177.214 396.417C176.652 396.536 176.11 396.714 175.584 396.948C175.058 397.177 174.563 397.464 174.1 397.802C173.636 398.141 173.209 398.521 172.824 398.948C172.443 399.375 172.105 399.833 171.818 400.333C171.527 400.828 171.298 401.349 171.115 401.896C170.938 402.443 170.818 403 170.756 403.573C170.699 404.146 170.699 404.714 170.756 405.286V405.198Z" fill="white"/>
<path d="M231.575 126.755C230.299 125.99 228.919 125.615 227.429 125.636C226.726 125.63 226.028 125.719 225.346 125.901C224.664 126.078 224.018 126.344 223.403 126.693C222.789 127.042 222.231 127.464 221.726 127.959C221.226 128.448 220.794 129 220.434 129.61L165.575 221.703L126.867 172.802C126.091 171.839 125.143 171.089 124.018 170.557C122.898 170.031 121.716 169.771 120.476 169.781C118.601 169.755 116.929 170.334 115.466 171.505C115.044 171.839 114.658 172.209 114.309 172.62C113.961 173.031 113.653 173.469 113.393 173.938C113.127 174.406 112.914 174.901 112.752 175.412C112.586 175.922 112.476 176.448 112.414 176.979C112.356 177.516 112.346 178.052 112.393 178.589C112.44 179.125 112.539 179.651 112.69 180.167C112.841 180.682 113.039 181.177 113.289 181.656C113.539 182.13 113.83 182.578 114.169 183L160.132 240.969C160.929 241.906 161.888 242.636 163.002 243.162C164.117 243.693 165.289 243.969 166.523 243.99H167.044C168.382 243.906 169.627 243.511 170.773 242.807C171.924 242.104 172.836 241.177 173.523 240.016L234.429 138.245C234.695 137.771 234.914 137.276 235.086 136.761C235.263 136.24 235.382 135.714 235.455 135.172C235.528 134.63 235.549 134.089 235.523 133.547C235.492 133 235.414 132.464 235.278 131.938C235.148 131.406 234.971 130.896 234.742 130.401C234.513 129.906 234.242 129.438 233.924 128.995C233.606 128.547 233.252 128.141 232.856 127.766C232.461 127.386 232.033 127.052 231.575 126.755Z" fill="white"/>
<path d="M178.875 60.4946C176.938 60.4946 175 60.5415 173.068 60.6353C171.135 60.729 169.203 60.8748 167.276 61.0623C165.349 61.255 163.427 61.4894 161.51 61.7759C159.594 62.0571 157.682 62.3905 155.786 62.7655C153.885 63.1457 151.995 63.5675 150.115 64.0415C148.24 64.5103 146.37 65.0259 144.516 65.5884C142.667 66.1509 140.823 66.7603 139 67.4113C137.177 68.0623 135.37 68.7603 133.583 69.4998C131.792 70.2446 130.021 71.0259 128.271 71.854C126.521 72.6821 124.792 73.5571 123.083 74.4686C121.375 75.38 119.688 76.3384 118.026 77.3332C116.365 78.328 114.729 79.3644 113.12 80.4373C111.51 81.5155 109.927 82.63 108.37 83.7863C106.813 84.9373 105.286 86.13 103.792 87.3592C102.292 88.5884 100.828 89.854 99.3906 91.1509C97.9531 92.453 96.5521 93.7915 95.1823 95.1613C93.8125 96.5311 92.4792 97.9321 91.1771 99.3644C89.875 100.802 88.6146 102.265 87.3854 103.765C86.1563 105.26 84.9635 106.792 83.8073 108.344C82.6563 109.901 81.5417 111.484 80.4635 113.094C79.3906 114.703 78.3542 116.344 77.3542 118.005C76.3594 119.667 75.4063 121.349 74.4948 123.057C73.5781 124.765 72.7083 126.495 71.8802 128.245C71.0521 129.995 70.2656 131.765 69.526 133.557C68.7865 135.349 68.0885 137.151 67.4375 138.979C66.7813 140.802 66.1771 142.64 65.6146 144.495C65.0521 146.349 64.5365 148.213 64.0625 150.094C63.5938 151.969 63.1719 153.859 62.7917 155.76C62.4115 157.661 62.0833 159.568 61.7969 161.484C61.5156 163.401 61.276 165.323 61.0885 167.25C60.8958 169.177 60.7552 171.109 60.6615 173.042C60.5625 174.979 60.5156 176.911 60.5156 178.849C60.5156 180.786 60.5625 182.724 60.6615 184.656C60.7552 186.594 60.8958 188.526 61.0885 190.453C61.276 192.38 61.5156 194.302 61.7969 196.219C62.0833 198.135 62.4115 200.042 62.7917 201.943C63.1719 203.844 63.5938 205.729 64.0625 207.609C64.5365 209.489 65.0521 211.354 65.6146 213.208C66.1771 215.062 66.7813 216.901 67.4375 218.724C68.0885 220.547 68.7865 222.354 69.526 224.146C70.2656 225.932 71.0521 227.703 71.8802 229.453C72.7083 231.208 73.5781 232.937 74.4948 234.646C75.4063 236.354 76.3594 238.036 77.3542 239.698C78.3542 241.359 79.3906 242.995 80.4635 244.609C81.5417 246.219 82.6563 247.802 83.8073 249.354C84.9635 250.911 86.1563 252.437 87.3854 253.937C88.6146 255.432 89.875 256.901 91.1771 258.333C92.4792 259.771 93.8125 261.172 95.1823 262.542C96.5521 263.911 97.9531 265.25 99.3906 266.547C100.828 267.849 102.292 269.114 103.792 270.344C105.286 271.573 106.813 272.765 108.37 273.917C109.927 275.073 111.51 276.187 113.12 277.26C114.729 278.338 116.365 279.375 118.026 280.37C119.688 281.364 121.375 282.318 123.083 283.234C124.792 284.146 126.521 285.015 128.271 285.844C130.021 286.672 131.792 287.458 133.583 288.198C135.37 288.943 137.177 289.635 139 290.292C140.823 290.943 142.667 291.552 144.516 292.114C146.37 292.677 148.24 293.193 150.115 293.661C151.995 294.13 153.885 294.557 155.786 294.932C157.682 295.312 159.594 295.646 161.51 295.927C163.427 296.213 165.349 296.448 167.276 296.64C169.203 296.828 171.135 296.974 173.068 297.068C175 297.161 176.938 297.208 178.875 297.208C180.813 297.208 182.75 297.161 184.682 297.068C186.62 296.974 188.547 296.828 190.474 296.64C192.406 296.448 194.328 296.213 196.24 295.927C198.156 295.646 200.068 295.312 201.964 294.932C203.865 294.557 205.755 294.13 207.635 293.661C209.51 293.193 211.38 292.677 213.234 292.114C215.089 291.552 216.927 290.943 218.75 290.292C220.573 289.635 222.38 288.943 224.167 288.198C225.958 287.458 227.729 286.672 229.479 285.844C231.229 285.015 232.958 284.146 234.667 283.234C236.375 282.318 238.063 281.364 239.724 280.37C241.385 279.375 243.021 278.338 244.63 277.26C246.24 276.187 247.823 275.073 249.38 273.917C250.938 272.765 252.464 271.573 253.958 270.344C255.458 269.114 256.927 267.849 258.359 266.547C259.797 265.25 261.198 263.911 262.568 262.542C263.938 261.172 265.271 259.771 266.573 258.333C267.875 256.901 269.141 255.432 270.37 253.937C271.594 252.437 272.786 250.911 273.943 249.354C275.094 247.802 276.208 246.219 277.286 244.609C278.365 242.995 279.401 241.359 280.396 239.698C281.391 238.036 282.344 236.354 283.26 234.646C284.172 232.937 285.042 231.208 285.87 229.453C286.698 227.703 287.484 225.932 288.224 224.146C288.964 222.354 289.661 220.547 290.313 218.724C290.969 216.901 291.573 215.062 292.135 213.208C292.698 211.354 293.214 209.489 293.688 207.609C294.156 205.729 294.583 203.844 294.958 201.943C295.339 200.042 295.667 198.135 295.953 196.219C296.234 194.302 296.474 192.38 296.661 190.453C296.854 188.526 296.995 186.594 297.089 184.656C297.188 182.724 297.234 180.786 297.234 178.849C297.229 176.917 297.182 174.979 297.083 173.047C296.984 171.114 296.839 169.182 296.646 167.255C296.453 165.328 296.219 163.406 295.932 161.495C295.646 159.578 295.313 157.672 294.932 155.771C294.552 153.875 294.125 151.984 293.651 150.109C293.182 148.229 292.661 146.364 292.099 144.51C291.536 142.661 290.927 140.823 290.271 139C289.62 137.177 288.922 135.37 288.177 133.583C287.438 131.797 286.651 130.026 285.823 128.276C284.99 126.526 284.12 124.797 283.208 123.094C282.292 121.385 281.339 119.703 280.344 118.042C279.344 116.38 278.307 114.745 277.234 113.135C276.156 111.526 275.042 109.943 273.891 108.39C272.734 106.833 271.542 105.307 270.313 103.812C269.089 102.318 267.823 100.849 266.521 99.4165C265.219 97.979 263.885 96.578 262.516 95.2082C261.146 93.8384 259.745 92.505 258.313 91.203C256.875 89.9061 255.411 88.6405 253.917 87.4113C252.417 86.1821 250.891 84.9894 249.339 83.8384C247.781 82.6821 246.198 81.5675 244.589 80.4946C242.979 79.4165 241.344 78.38 239.688 77.3853C238.026 76.3853 236.344 75.4321 234.635 74.5207C232.927 73.604 231.198 72.7342 229.448 71.9061C227.698 71.078 225.932 70.2915 224.141 69.5467C222.354 68.8071 220.547 68.1092 218.724 67.453C216.901 66.8019 215.068 66.1925 213.214 65.63C211.359 65.0623 209.495 64.5467 207.62 64.0728C205.74 63.5988 203.854 63.1769 201.953 62.7967C200.057 62.4165 198.151 62.0832 196.234 61.7967C194.318 61.5103 192.396 61.2707 190.469 61.078C188.547 60.8853 186.615 60.7394 184.682 60.6457C182.745 60.5467 180.813 60.4946 178.875 60.4946ZM178.875 280.88C177.203 280.88 175.536 280.838 173.87 280.76C172.203 280.677 170.536 280.552 168.875 280.39C167.214 280.224 165.557 280.021 163.906 279.776C162.255 279.531 160.609 279.245 158.969 278.922C157.333 278.594 155.703 278.229 154.083 277.823C152.464 277.417 150.854 276.974 149.255 276.489C147.661 276.005 146.073 275.479 144.5 274.917C142.932 274.354 141.375 273.755 139.828 273.114C138.286 272.474 136.76 271.797 135.25 271.083C133.745 270.37 132.25 269.62 130.781 268.833C129.307 268.047 127.854 267.224 126.422 266.364C124.99 265.505 123.578 264.614 122.193 263.687C120.802 262.76 119.438 261.797 118.094 260.802C116.755 259.807 115.438 258.781 114.146 257.719C112.859 256.661 111.594 255.573 110.354 254.448C109.12 253.328 107.911 252.177 106.729 250.995C105.547 249.818 104.396 248.609 103.276 247.37C102.156 246.13 101.063 244.87 100.005 243.578C98.9479 242.286 97.9167 240.969 96.9219 239.63C95.9271 238.286 94.9688 236.922 94.0417 235.536C93.1146 234.146 92.2188 232.734 91.3594 231.307C90.5052 229.875 89.6823 228.422 88.8906 226.948C88.1042 225.474 87.3542 223.984 86.6406 222.474C85.9271 220.963 85.25 219.437 84.6146 217.896C83.974 216.354 83.3698 214.797 82.8073 213.224C82.2448 211.651 81.724 210.068 81.2396 208.469C80.7552 206.87 80.3073 205.26 79.901 203.64C79.5 202.021 79.1302 200.396 78.8073 198.755C78.4792 197.12 78.1927 195.474 77.9479 193.823C77.7031 192.172 77.5 190.515 77.3385 188.854C77.1719 187.187 77.0521 185.526 76.9688 183.859C76.8854 182.187 76.8438 180.521 76.8438 178.849C76.8438 177.182 76.8854 175.51 76.9688 173.844C77.0521 172.177 77.1719 170.51 77.3385 168.849C77.5 167.187 77.7031 165.531 77.9479 163.88C78.1927 162.229 78.4792 160.583 78.8073 158.948C79.1302 157.307 79.5 155.677 79.901 154.057C80.3073 152.437 80.7552 150.833 81.2396 149.234C81.724 147.635 82.2448 146.052 82.8073 144.479C83.3698 142.906 83.974 141.349 84.6146 139.807C85.25 138.265 85.9271 136.739 86.6406 135.229C87.3542 133.719 88.1042 132.229 88.8906 130.755C89.6823 129.281 90.5052 127.828 91.3594 126.396C92.2188 124.963 93.1146 123.552 94.0417 122.167C94.9688 120.776 95.9271 119.411 96.9219 118.073C97.9167 116.729 98.9479 115.417 100.005 114.125C101.063 112.833 102.156 111.568 103.276 110.333C104.396 109.094 105.547 107.885 106.729 106.703C107.911 105.526 109.12 104.375 110.354 103.25C111.594 102.13 112.859 101.042 114.146 99.979C115.438 98.9217 116.755 97.8957 118.094 96.9009C119.438 95.9061 120.802 94.9425 122.193 94.0155C123.578 93.0884 124.99 92.1978 126.422 91.3384C127.854 90.479 129.307 89.6561 130.781 88.8696C132.25 88.0832 133.745 87.3332 135.25 86.6144C136.76 85.9009 138.286 85.229 139.828 84.5884C141.375 83.9478 142.932 83.3488 144.5 82.7863C146.073 82.2238 147.661 81.6978 149.255 81.2134C150.854 80.729 152.464 80.2863 154.083 79.88C155.703 79.4738 157.333 79.1092 158.969 78.7811C160.609 78.4582 162.255 78.1717 163.906 77.9269C165.557 77.6821 167.214 77.4738 168.875 77.3123C170.536 77.1509 172.203 77.0259 173.87 76.9425C175.536 76.8644 177.203 76.8228 178.875 76.8228C180.547 76.8228 182.214 76.8644 183.88 76.9425C185.547 77.0259 187.214 77.1509 188.875 77.3123C190.536 77.4738 192.193 77.6821 193.844 77.9269C195.5 78.1717 197.141 78.4582 198.781 78.7811C200.417 79.1092 202.047 79.4738 203.667 79.88C205.286 80.2863 206.896 80.729 208.495 81.2134C210.089 81.6978 211.677 82.2238 213.25 82.7863C214.818 83.3488 216.38 83.9478 217.922 84.5884C219.464 85.229 220.99 85.9009 222.5 86.6144C224.01 87.3332 225.5 88.0832 226.974 88.8696C228.443 89.6561 229.896 90.479 231.328 91.3384C232.76 92.1978 234.172 93.0884 235.563 94.0155C236.948 94.9425 238.313 95.9061 239.656 96.9009C240.995 97.8957 242.313 98.9217 243.604 99.979C244.891 101.042 246.156 102.13 247.396 103.25C248.63 104.375 249.839 105.526 251.021 106.703C252.203 107.885 253.354 109.094 254.474 110.333C255.594 111.568 256.688 112.833 257.745 114.125C258.807 115.417 259.833 116.729 260.828 118.073C261.823 119.411 262.781 120.776 263.708 122.167C264.635 123.552 265.531 124.963 266.391 126.396C267.25 127.828 268.073 129.281 268.859 130.755C269.646 132.229 270.396 133.719 271.109 135.229C271.823 136.739 272.5 138.265 273.141 139.807C273.776 141.349 274.38 142.906 274.943 144.479C275.505 146.052 276.026 147.635 276.51 149.234C276.995 150.833 277.443 152.437 277.849 154.057C278.255 155.677 278.62 157.307 278.943 158.948C279.271 160.583 279.557 162.229 279.802 163.88C280.047 165.531 280.25 167.187 280.411 168.849C280.578 170.51 280.698 172.177 280.781 173.844C280.865 175.51 280.906 177.182 280.906 178.849C280.901 180.521 280.859 182.187 280.776 183.854C280.688 185.521 280.563 187.187 280.396 188.844C280.234 190.505 280.026 192.161 279.776 193.812C279.531 195.463 279.245 197.109 278.917 198.745C278.589 200.38 278.219 202.01 277.813 203.625C277.406 205.245 276.958 206.854 276.474 208.448C275.984 210.047 275.464 211.63 274.896 213.203C274.333 214.771 273.734 216.328 273.094 217.87C272.453 219.411 271.776 220.937 271.063 222.443C270.344 223.953 269.594 225.443 268.807 226.911C268.021 228.385 267.198 229.838 266.339 231.265C265.479 232.698 264.583 234.109 263.656 235.495C262.729 236.88 261.766 238.245 260.771 239.588C259.776 240.927 258.75 242.239 257.693 243.531C256.635 244.823 255.542 246.083 254.422 247.323C253.302 248.557 252.151 249.765 250.969 250.948C249.792 252.125 248.583 253.276 247.344 254.396C246.109 255.521 244.844 256.609 243.557 257.667C242.266 258.729 240.953 259.755 239.609 260.75C238.271 261.745 236.906 262.703 235.521 263.63C234.13 264.562 232.724 265.453 231.292 266.312C229.859 267.172 228.411 267.995 226.938 268.781C225.469 269.568 223.974 270.323 222.469 271.036C220.958 271.75 219.438 272.427 217.896 273.068C216.354 273.708 214.797 274.312 213.224 274.875C211.656 275.437 210.073 275.963 208.474 276.448C206.875 276.932 205.271 277.38 203.651 277.792C202.031 278.198 200.406 278.562 198.771 278.89C197.13 279.219 195.49 279.505 193.839 279.755C192.188 280 190.531 280.208 188.87 280.375C187.208 280.542 185.547 280.667 183.88 280.75C182.214 280.833 180.547 280.88 178.875 280.88Z" fill="white"/>
</svg>
