<svg width="486" height="499" viewBox="0 0 486 499" fill="none" xmlns="http://www.w3.org/2000/svg">
<path d="M66.9239 162.01H155.94C155.664 163.917 155.434 165.839 155.288 167.781C155.007 171.495 156.294 175.187 158.82 177.906C161.341 180.62 164.924 182.182 168.648 182.182H317.137C320.861 182.182 324.445 180.62 326.966 177.901C329.486 175.182 330.773 171.495 330.497 167.781C330.351 165.839 330.117 163.917 329.846 162.01H418.856C422.393 162.01 425.794 160.531 428.19 157.948C430.585 155.365 431.809 151.865 431.544 148.339C429.257 117.849 409.325 92.3281 382.283 81.5469C392.731 73.1406 399.44 60.2604 399.44 45.8333C399.44 20.5625 378.882 0 353.606 0C328.335 0 307.773 20.5625 307.773 45.8333C307.773 60.2552 314.476 73.1354 324.924 81.5417C313.242 86.1823 302.726 93.6302 294.367 103.349C287.945 98.6771 280.882 94.8594 273.351 92.0417C285.851 82.724 293.966 67.8281 293.966 51.0729C293.966 22.9115 271.054 0 242.893 0C214.731 0 191.82 22.9115 191.82 51.0729C191.82 67.8281 199.934 82.724 212.434 92.0417C204.903 94.8594 197.841 98.6771 191.419 103.349C183.059 93.6302 172.549 86.1823 160.861 81.5417C171.309 73.1354 178.012 60.2552 178.012 45.8333C178.012 20.5625 157.45 0 132.179 0C106.903 0 86.3458 20.5625 86.3458 45.8333C86.3458 60.2604 93.0489 73.1406 103.497 81.5469C76.4604 92.3281 56.5229 117.844 54.2364 148.333C53.976 151.859 55.1947 155.365 57.5906 157.943C59.9864 160.526 63.3875 162.01 66.9239 162.01ZM323.403 45.8333C323.403 29.1771 336.955 15.6302 353.606 15.6302C370.262 15.6302 383.815 29.1771 383.815 45.8333C383.815 62.4844 370.268 76.0313 353.617 76.0365C353.617 76.0365 353.611 76.0365 353.606 76.0365C353.606 76.0365 353.601 76.0365 353.596 76.0365C336.945 76.0313 323.403 62.4844 323.403 45.8333ZM353.596 91.6667C353.601 91.6667 353.606 91.6667 353.606 91.6667C353.611 91.6667 353.617 91.6667 353.617 91.6667C385.096 91.6719 411.752 115.458 415.648 146.38H326.132C321.929 133.984 315.028 122.839 306.148 113.615C318.007 99.7708 335.304 91.6667 353.596 91.6667ZM207.45 51.0729C207.45 31.526 223.346 15.6302 242.893 15.6302C262.44 15.6302 278.335 31.526 278.335 51.0729C278.335 70.6146 262.44 86.5156 242.893 86.5156C223.346 86.5156 207.45 70.6146 207.45 51.0729ZM314.695 166.552H171.091C175.038 130.245 206.122 102.146 242.893 102.146C279.664 102.146 310.747 130.245 314.695 166.552ZM101.971 45.8333C101.971 29.1771 115.523 15.6302 132.179 15.6302C148.835 15.6302 162.382 29.1771 162.382 45.8333C162.382 62.4844 148.841 76.0313 132.19 76.0365C132.184 76.0365 132.179 76.0365 132.179 76.0365C132.174 76.0365 132.174 76.0365 132.169 76.0365C115.518 76.0313 101.971 62.4844 101.971 45.8333ZM132.169 91.6667C132.169 91.6667 132.174 91.6667 132.179 91.6667C132.179 91.6667 132.184 91.6667 132.19 91.6667C150.481 91.6667 167.778 99.7708 179.637 113.615C170.762 122.839 163.861 133.984 159.658 146.38H70.1375C74.0333 115.458 100.69 91.6719 132.169 91.6667ZM485.466 371.849L451.825 202.995C450.971 198.703 448.486 194.99 444.83 192.552C441.179 190.109 436.804 189.24 432.502 190.094L389.216 198.714C384.924 199.573 381.216 202.057 378.773 205.708C376.335 209.365 375.46 213.745 376.315 218.036L376.695 219.948C350.835 228.49 319.419 230.88 280.346 198.646C262.398 183.839 239.007 183.354 222.137 197.438L204.679 212.016H109.528C108.393 205.526 103.403 200.078 96.5697 198.714L53.2833 190.094C48.9864 189.234 44.6114 190.109 40.9552 192.552C37.2989 194.99 34.8145 198.703 33.9604 202.995L0.319744 371.849C-0.534423 376.141 0.335368 380.521 2.77808 384.177C5.22079 387.833 8.92912 390.318 13.2208 391.172L56.5072 399.797C57.5854 400.01 58.6635 400.115 59.7416 400.115C62.95 400.115 66.0958 399.167 68.8354 397.339C72.4916 394.896 74.976 391.188 75.8302 386.891L75.9656 386.234L178.377 488.646C184.721 494.99 193.054 498.161 201.393 498.161C209.726 498.161 218.059 494.99 224.403 488.646C228.684 484.359 231.627 479.083 233.007 473.318L247.023 487.333C259.716 500.026 280.361 500.021 293.054 487.333C297.434 482.953 300.304 477.62 301.658 472C307.716 477.771 315.653 480.938 324.096 480.938C332.809 480.938 340.981 477.563 347.111 471.432C354.106 464.438 357.242 455.026 356.528 445.865C357.372 445.927 358.221 445.958 359.075 445.958C367.783 445.958 375.96 442.583 382.085 436.453C390.643 427.901 393.585 415.13 390.106 403.771L409.46 384.411L409.955 386.891C410.809 391.188 413.294 394.896 416.95 397.339C419.69 399.167 422.835 400.115 426.049 400.115C427.122 400.115 428.2 400.01 429.278 399.797L472.565 391.172C476.856 390.318 480.565 387.833 483.007 384.177C485.45 380.521 486.32 376.141 485.466 371.849ZM60.1583 384.339C60.0281 384.427 59.8197 384.521 59.5645 384.469L16.2781 375.844C16.0177 375.792 15.8614 375.625 15.7729 375.495C15.6895 375.37 15.5958 375.161 15.6479 374.901L49.2833 206.047C49.3354 205.792 49.502 205.635 49.6322 205.547C49.7364 205.479 49.8927 205.406 50.0802 205.406C50.127 205.406 50.1791 205.411 50.226 205.417L93.5125 214.042C93.9343 214.125 94.226 214.568 94.1427 214.984L60.5072 383.839C60.4552 384.094 60.2885 384.255 60.1583 384.339ZM371.033 425.401C367.856 428.578 363.606 430.328 359.07 430.328C354.533 430.328 350.283 428.583 347.106 425.406L273.466 351.76C270.413 348.708 265.466 348.708 262.414 351.76C259.361 354.813 259.361 359.76 262.414 362.812L336.059 436.453C342.653 443.052 342.653 453.786 336.059 460.38C332.882 463.557 328.632 465.307 324.091 465.307C319.554 465.307 315.304 463.557 312.132 460.38L234.315 382.568C231.262 379.516 226.315 379.516 223.262 382.568C220.21 385.62 220.21 390.563 223.262 393.615L282.033 452.385C288.596 458.979 288.585 469.693 282.002 476.281C275.403 482.875 264.669 482.875 258.075 476.281L195.169 413.375C192.117 410.323 187.169 410.323 184.117 413.375C181.065 416.422 181.065 421.37 184.117 424.422L213.356 453.661C213.356 453.667 213.361 453.667 213.361 453.667C216.533 456.844 218.283 461.089 218.283 465.625C218.283 470.167 216.533 474.411 213.356 477.589C206.757 484.188 196.028 484.188 189.429 477.589L79.6375 367.802L107.554 227.641H185.955L164.091 245.901C154.387 254.005 150.216 265.062 152.653 276.234L170.262 356.917C170.71 358.979 171.976 360.771 173.762 361.885C175.554 363 177.721 363.344 179.768 362.839C200.971 357.615 215.153 347.391 223.122 331.578C230.002 317.927 231.367 302.422 232.809 286C232.992 283.917 233.179 281.823 233.372 279.724C233.387 279.62 233.403 279.536 233.419 279.469C236.216 278.505 249.096 281.307 268.455 298.896L374.455 406.443C377.315 412.797 375.981 420.458 371.033 425.401ZM380.976 390.797L279.434 287.776C279.335 287.677 279.236 287.578 279.132 287.484C258.778 268.943 239.591 260.495 227.799 264.896C222.21 266.979 218.58 271.74 217.846 277.953C217.841 278.016 217.83 278.078 217.825 278.141C217.622 280.312 217.429 282.479 217.242 284.63C214.69 313.63 212.794 335.193 183.742 345.385L167.924 272.906C166.341 265.661 171.122 260.391 174.106 257.896L232.153 209.432C243.065 200.323 258.434 200.833 270.398 210.698C314.471 247.057 351.382 244.38 379.768 235.38L405.789 365.984L380.976 390.797ZM470.012 375.495C469.924 375.625 469.768 375.792 469.507 375.844L426.221 384.469C425.966 384.521 425.757 384.427 425.627 384.339C425.497 384.255 425.33 384.094 425.278 383.839L391.643 214.984C391.591 214.729 391.679 214.521 391.768 214.391C391.856 214.26 392.012 214.094 392.273 214.042L435.554 205.417C435.606 205.411 435.658 205.406 435.705 205.406C435.893 205.406 436.049 205.479 436.153 205.547C436.283 205.635 436.45 205.792 436.497 206.047L470.137 374.906C470.19 375.161 470.096 375.37 470.012 375.495Z" fill="white"/>
</svg>
