<svg width="457" height="500" viewBox="0 0 457 500" fill="none" xmlns="http://www.w3.org/2000/svg">
<mask id="mask0_345_37" style="mask-type:luminance" maskUnits="userSpaceOnUse" x="0" y="43" width="457" height="457">
<path d="M0 43.9165H457V499.917H0V43.9165Z" fill="white"/>
</mask>
<g mask="url(#mask0_345_37)">
<path fill-rule="evenodd" clip-rule="evenodd" d="M228.438 499.833C167.911 499.833 110.312 476.401 67.3594 433.448C23.4271 390.495 0 332.896 0 271.396C0 242.109 5.85938 212.818 18.5469 181.578C19.526 178.651 23.4271 176.698 27.3333 177.677C30.2656 179.63 32.2135 183.531 31.2396 187.437C19.526 215.75 13.6667 244.057 13.6667 271.396C13.6667 389.515 110.312 486.161 228.438 486.161C346.562 486.161 443.208 389.515 443.208 271.396C443.208 203.057 410.995 140.578 356.323 99.578C353.396 96.6509 352.417 92.7446 354.37 89.8175C357.302 86.8853 361.203 85.9113 364.135 87.8644C392.443 109.338 415.875 136.672 431.495 167.911C448.089 200.13 456.875 235.271 456.875 271.396C456.875 332.896 433.448 390.495 389.516 433.448C346.562 476.401 288.964 499.833 228.438 499.833ZM79.0729 114.219C77.1198 114.219 75.1719 113.245 74.1927 112.271C71.2656 109.338 71.2656 104.458 74.1927 102.505C95.6719 83.9582 119.099 69.3123 144.484 59.5519C170.839 48.8123 199.151 43.9321 228.438 43.9321C239.177 43.9321 250.891 43.9321 260.651 45.8853C264.557 46.8592 266.51 49.7915 266.51 53.6925C265.536 57.5988 261.63 60.5259 258.703 59.5519C248.938 57.5988 239.177 57.5988 228.438 57.5988C174.745 57.5988 124.958 76.1457 83.9531 112.271C82.0052 113.245 81.026 114.219 79.0729 114.219Z" fill="white"/>
</g>
<path fill-rule="evenodd" clip-rule="evenodd" d="M449.066 294.823C445.16 294.823 357.3 288.963 356.321 235.271C356.321 232.344 356.321 228.437 356.321 225.51C356.321 205.984 355.347 198.177 348.514 191.344C339.727 182.557 318.248 174.745 283.102 164.01C256.748 155.224 237.222 140.578 226.483 120.078C209.889 86.8854 221.602 49.7916 222.576 48.8124C223.555 44.9062 227.462 42.9583 230.389 43.9322C234.295 45.8854 236.243 49.7916 235.269 52.7187C235.269 53.6926 224.529 85.9114 239.175 114.219C247.962 130.818 264.555 143.505 287.009 150.344C326.061 163.031 346.561 170.844 358.274 180.604C369.988 192.318 369.988 205.01 369.988 224.536C369.988 228.437 369.988 231.37 369.988 235.271C370.967 276.276 449.066 281.156 450.04 281.156C453.946 281.156 455.899 284.083 455.899 287.99C455.899 291.896 452.967 294.823 449.066 294.823Z" fill="white"/>
<path fill-rule="evenodd" clip-rule="evenodd" d="M171.818 493C170.839 493 170.839 493 169.865 493C166.938 492.021 164.005 488.115 164.984 484.214C167.911 472.495 178.651 451.021 215.745 437.354C267.484 418.802 257.724 388.542 251.865 370.969C250.891 369.995 250.891 368.042 249.917 367.062C247.964 362.182 233.318 349.49 212.818 341.682C200.125 336.802 176.698 330.943 158.151 339.729C149.365 344.609 142.531 346.562 136.672 346.562C121.052 346.562 112.266 333.87 102.505 318.255C97.625 310.443 91.7656 300.682 83.9531 290.917C72.2396 278.229 44.9063 274.323 7.80729 280.182C3.90625 280.182 0.973959 278.229 0 274.323C0 270.417 1.95313 267.49 5.85938 266.51C30.2656 262.609 74.1927 259.677 93.7188 282.13C93.7188 282.13 93.7188 283.109 94.6927 283.109C102.505 292.87 109.339 302.635 114.219 310.443C127.885 332.896 131.792 338.755 152.292 328.016C174.745 316.302 203.057 324.109 217.698 328.99C237.224 336.802 258.703 350.469 263.583 362.182C263.583 363.161 263.583 363.161 263.583 363.161C263.583 364.135 264.557 365.109 264.557 367.062C267.484 375.849 273.344 390.495 268.464 407.089C264.557 425.635 247.964 440.281 220.63 450.042C197.198 458.828 182.557 472.495 178.651 488.115C177.672 491.047 174.745 493 171.818 493Z" fill="white"/>
<path fill-rule="evenodd" clip-rule="evenodd" d="M104.458 246.99C89.8123 246.99 74.1926 244.057 64.4321 241.13C41.979 236.25 14.6457 225.511 8.7863 217.703C6.83317 214.771 7.80713 210.87 10.7394 207.938C13.6665 205.985 17.5728 206.964 20.4998 209.891C22.453 212.818 42.953 221.604 69.3123 228.438C97.6248 235.271 119.099 234.297 129.838 227.464C142.531 217.703 132.765 193.297 122.026 174.745C108.359 152.292 112.265 143.505 123.005 128.865C127.885 123.005 132.765 115.198 137.646 103.485C142.531 92.745 143.505 79.0783 140.578 66.3856C139.599 63.4585 142.531 59.5523 145.458 58.5783C149.364 57.5992 153.265 60.5262 154.245 63.4585C157.172 79.0783 156.198 94.6981 150.338 108.365C150.338 109.339 150.338 109.339 150.338 109.339C144.484 122.031 138.625 130.818 134.719 136.672C125.932 149.365 123.979 151.318 133.745 167.912C144.484 185.485 149.364 200.13 149.364 211.844C150.338 223.557 145.458 233.323 136.672 239.177C127.885 245.037 116.172 246.99 104.458 246.99Z" fill="white"/>
<path fill-rule="evenodd" clip-rule="evenodd" d="M210.865 340.708C208.911 340.708 206.958 339.729 205.01 337.776C203.057 333.87 199.151 328.99 195.245 324.109C181.578 304.583 163.031 279.203 163.031 262.609C163.031 237.224 184.505 215.75 210.865 215.75C236.245 215.75 257.724 237.224 257.724 262.609C257.724 278.229 242.104 300.682 227.464 321.182C223.557 327.036 219.651 332.896 216.724 337.776C215.745 339.729 213.792 340.708 210.865 340.708ZM210.865 229.417C192.318 229.417 176.698 245.036 176.698 262.609C176.698 275.297 195.245 299.703 206.958 316.302C207.938 318.255 209.891 320.203 210.865 321.182C212.818 319.229 214.771 316.302 216.724 313.37C227.464 297.75 244.057 274.323 244.057 262.609C244.057 245.036 228.438 229.417 210.865 229.417Z" fill="white"/>
<path fill-rule="evenodd" clip-rule="evenodd" d="M210.865 287.99C196.224 287.99 185.484 277.25 185.484 262.609C185.484 248.943 196.224 238.203 210.865 238.203C224.531 238.203 235.271 248.943 235.271 262.609C235.271 277.25 224.531 287.99 210.865 287.99ZM210.865 251.87C204.031 251.87 199.151 256.75 199.151 262.609C199.151 269.443 204.031 274.323 210.865 274.323C216.724 274.323 221.604 269.443 221.604 262.609C221.604 256.75 216.724 251.87 210.865 251.87Z" fill="white"/>
<path fill-rule="evenodd" clip-rule="evenodd" d="M315.322 168.891C313.368 168.891 310.441 167.911 309.462 165.964C305.556 160.104 300.676 152.292 294.822 144.484C275.296 118.125 251.863 84.9323 251.863 63.4583C251.863 28.3125 280.176 0 315.322 0C331.915 0 347.535 6.83333 359.249 18.5521C370.967 30.2656 377.801 46.8594 377.801 63.4583C377.801 84.9323 354.368 119.104 334.848 145.458C329.962 153.271 324.108 160.104 321.176 165.964C320.202 167.911 317.275 168.891 315.322 168.891ZM315.322 13.6719C287.988 13.6719 265.535 36.125 265.535 63.4583C265.535 80.0521 288.962 113.245 305.556 136.672C309.462 141.557 312.389 145.458 315.322 149.365C318.249 146.438 321.176 141.557 324.108 137.651C340.702 113.245 364.134 81.0312 364.134 63.4583C364.134 36.125 342.655 13.6719 315.322 13.6719Z" fill="white"/>
<path fill-rule="evenodd" clip-rule="evenodd" d="M315.322 97.625C295.796 97.625 280.176 82.0052 280.176 63.4583C280.176 43.9323 295.796 28.3125 315.322 28.3125C333.868 28.3125 349.488 43.9323 349.488 63.4583C349.488 82.0052 333.868 97.625 315.322 97.625ZM315.322 41.9792C303.608 41.9792 293.842 51.7448 293.842 63.4583C293.842 74.1979 303.608 83.9583 315.322 83.9583C326.061 83.9583 335.822 74.1979 335.822 63.4583C335.822 51.7448 326.061 41.9792 315.322 41.9792Z" fill="white"/>
<path fill-rule="evenodd" clip-rule="evenodd" d="M55.6458 237.224C53.6927 237.224 50.7656 236.25 49.7865 234.297C46.8594 228.437 41.9792 221.604 36.1198 214.771C20.5 192.318 1.95312 165.963 1.95312 148.39C1.95312 119.104 26.3594 94.6978 55.6458 94.6978C85.9062 94.6978 109.339 118.125 109.339 148.39C109.339 167.911 88.8385 196.224 72.2396 218.677C68.3385 224.536 64.4323 229.417 61.5 234.297C60.526 236.25 57.599 237.224 55.6458 237.224ZM55.6458 108.364C33.1927 108.364 15.6198 125.937 15.6198 148.39C15.6198 162.057 34.1667 188.417 47.8333 206.963C50.7656 210.87 53.6927 214.771 55.6458 218.677C57.599 215.75 59.5521 213.797 61.5 210.87C75.1719 192.318 95.6719 163.031 95.6719 148.39C95.6719 125.937 78.099 108.364 55.6458 108.364Z" fill="white"/>
<path fill-rule="evenodd" clip-rule="evenodd" d="M55.6458 177.677C39.0469 177.677 26.3594 164.984 26.3594 148.391C26.3594 131.792 40.026 118.125 55.6458 118.125C72.2396 118.125 85.9062 131.792 85.9062 148.391C85.9062 164.984 72.2396 177.677 55.6458 177.677ZM55.6458 131.792C46.8594 131.792 40.026 139.604 40.026 148.391C40.026 157.177 46.8594 164.01 55.6458 164.01C64.4323 164.01 72.2396 157.177 72.2396 148.391C72.2396 139.604 64.4323 131.792 55.6458 131.792Z" fill="white"/>
</svg>
