<svg width="500" height="309" viewBox="0 0 500 309" fill="none" xmlns="http://www.w3.org/2000/svg">
<mask id="mask0_345_25" style="mask-type:luminance" maskUnits="userSpaceOnUse" x="0" y="0" width="500" height="309">
<path d="M0.511719 0H499.444V309H0.511719V0Z" fill="white"/>
</mask>
<g mask="url(#mask0_345_25)">
<path fill-rule="evenodd" clip-rule="evenodd" d="M129.559 228.776C129.022 227.828 128.116 227.25 127.34 226.583C120.152 220.453 113.46 213.86 107.251 206.719C98.5117 196.672 91.1836 185.672 84.7096 174.104C80.0534 165.787 75.9857 157.151 72.7878 148.146C71.6576 144.953 70.3503 141.823 69.1888 138.646C66.5951 131.563 64.9076 124.224 63.4701 116.844C62.0482 109.557 61.5013 102.146 61.7669 94.7033C61.7826 94.2866 61.8867 93.8752 61.9544 93.396C63.1888 93.2762 63.5898 94.3022 64.1836 94.9272C66.0221 96.8335 67.7617 98.8283 69.5482 100.776C72.6576 104.172 76.4753 106.693 80.2201 109.281C88.1628 114.771 96.5378 119.521 105.267 123.656C110.241 126.026 115.1 128.62 120.074 130.979C125.715 133.656 131.423 136.177 137.1 138.776C146.913 143.271 156.757 147.714 166.533 152.287C173.147 155.386 179.678 158.677 186.251 161.88C186.882 162.182 187.548 162.438 188.59 162.88C188.355 162.031 188.257 161.547 188.095 161.089C186.163 155.677 184.803 150.13 184.033 144.448C183.793 142.667 183.605 140.865 183.574 139.073C183.501 134.412 183.6 129.75 183.501 125.083C183.382 119.307 184.517 113.703 185.694 108.104C188.241 95.9585 193.199 84.7606 199.423 74.0835C201.71 70.1564 203.861 66.1356 206.21 62.2345C209.434 56.8804 212.819 51.6304 216.064 46.2918C221.579 37.2293 228.152 28.9012 234.225 20.2293C237.751 15.2033 241.71 10.4845 245.47 5.62516C246.887 3.79704 248.298 1.9585 249.798 0.00537109C250.225 0.343912 250.6 0.536621 250.835 0.833496C254.975 6.06787 259.173 11.2606 263.22 16.5679C266.559 20.9481 269.694 25.4793 272.96 29.9168C278.428 37.3439 283.288 45.172 288.272 52.9168C291.246 57.5418 293.887 62.3856 296.642 67.1564C299.23 71.6512 301.918 76.0939 304.288 80.7085C309.34 90.5522 313.137 100.833 315.168 111.776C316.616 119.557 316.548 127.36 316.595 135.198C316.626 140.636 316.012 145.995 314.829 151.271C314.116 154.469 313.017 157.578 312.085 160.719C311.913 161.297 311.72 161.865 311.413 162.849C312.267 162.547 312.746 162.432 313.173 162.224C319.84 158.974 326.48 155.677 333.168 152.474C337.751 150.281 342.392 148.203 347.012 146.099C353.85 142.985 360.678 139.849 367.543 136.792C378.376 131.969 388.97 126.641 399.564 121.318C409.147 116.511 418.293 110.932 426.668 104.229C429.871 101.667 432.522 98.4272 435.413 95.4845C436.194 94.6877 436.736 93.6147 437.861 93.2137C438.059 93.4897 438.277 93.646 438.283 93.8075C438.34 97.5106 438.574 101.214 438.074 104.912C437.757 107.214 437.585 109.542 437.298 111.849C436.163 120.927 433.861 129.724 430.944 138.37C428.1 146.802 424.736 155.031 420.97 163.094C414.262 177.474 405.788 190.766 395.892 203.12C390.996 209.24 385.678 215.021 379.793 220.245C377.262 222.49 374.725 224.735 372.236 227.037C371.642 227.583 370.772 227.922 370.543 229.011C371.204 229.011 371.824 229.125 372.387 228.99C380.793 227.057 389.355 226.531 397.923 225.995C410.137 225.229 422.272 226.219 434.397 227.495C438.72 227.953 443.043 228.375 447.314 229.11C458.064 230.969 468.793 233.037 479.246 236.198C485.418 238.057 491.428 240.474 497.501 242.662C498.173 242.906 498.793 243.313 499.35 243.599C499.694 244.787 498.965 245.36 498.371 245.906C495.949 248.12 493.574 250.401 491.001 252.443C485.204 257.063 479.454 261.776 473.382 266.016C466.965 270.5 460.204 274.49 453.585 278.677C447.574 282.469 441.199 285.594 434.866 288.787C428.616 291.922 422.069 294.386 415.47 296.693C414.673 296.969 413.845 297.188 413.069 297.521C408.501 299.505 403.767 301.042 399.007 302.453C394.548 303.781 390.059 305.026 385.507 305.958C380.538 306.979 375.491 307.656 370.465 308.396C367.954 308.761 365.413 308.938 362.876 309.198C361.96 309.287 361.027 309.412 360.21 309.089C359.949 308.271 360.496 307.99 360.809 307.604C361.882 306.297 363.121 305.094 364.012 303.672C367.73 297.735 367.954 291.495 365.147 285.156C364.241 283.11 362.647 281.5 360.819 280.156C360.158 279.672 359.501 279.172 358.632 278.511C359.241 278.104 359.616 277.766 360.059 277.578C366.418 274.839 370.741 270.068 373.585 263.896C375.491 259.755 375.746 255.313 375.491 250.833C375.475 250.438 374.949 249.823 374.585 249.761C374.199 249.698 373.527 250.083 373.34 250.453C372.866 251.386 372.579 252.417 372.236 253.412C371.59 255.313 370.918 257.203 369.152 258.766C368.757 257.985 368.434 257.271 368.048 256.594C367.059 254.839 365.522 254.099 363.533 254.313C361.986 254.479 360.486 255.078 358.866 254.464C358.475 254.307 357.699 254.854 357.251 255.25C355.574 256.703 353.908 258.193 352.324 259.745C350.126 261.901 347.475 263.057 344.517 263.729C342.387 264.219 340.517 263.792 338.814 262.542C337.788 261.792 336.814 260.958 335.908 260.073C330.741 255.052 325.569 250.057 321.35 244.146C317.574 238.86 312.866 234.38 308.111 230.011C305.605 227.708 304.204 225.057 303.637 221.854C302.569 215.807 301.59 209.75 300.59 203.688C300.35 202.229 300.121 200.761 299.986 199.287C299.491 194.125 299.09 188.958 298.548 183.807C298.241 180.865 297.939 177.891 297.251 175.026C296.413 171.557 294.283 168.969 290.798 167.719C288.303 166.823 285.814 165.927 283.309 165.057C277.892 163.182 272.783 160.625 267.741 157.927C265.277 156.61 263.173 154.766 261.658 152.438C259.892 149.724 259.199 146.615 259.194 143.38C259.194 142.255 259.777 141.36 260.564 140.604C261.329 139.875 262.1 139.151 262.918 138.474C269.949 132.682 273.85 125.089 275.486 116.281C276.814 109.13 277.059 101.938 275.105 94.8595C272.454 85.2293 263.262 77.7866 253.402 76.2866C239.34 74.1564 227.022 84.4585 224.543 96.5366C222.277 107.573 223.434 118.287 228.793 128.328C230.694 131.88 233.043 135.167 236.288 137.703C237.283 138.485 238.142 139.443 239.126 140.25C240.48 141.354 240.965 142.75 240.861 144.458C240.496 150.583 237.512 155.068 232.215 157.995C225.803 161.537 219.105 164.438 212.158 166.75C211.251 167.052 210.335 167.328 209.444 167.651C205.6 169.042 203.475 171.875 202.637 175.776C201.814 179.615 201.559 183.516 201.262 187.422C200.392 198.938 198.72 210.349 196.491 221.677C196.283 222.714 195.913 223.714 195.637 224.735C195.184 226.422 194.251 227.771 192.991 228.979C190.303 231.537 187.621 234.11 185.095 236.823C182.642 239.453 180.267 242.177 178.074 245.021C175.803 247.964 173.538 250.891 170.855 253.458C167.72 256.464 164.465 259.344 161.428 262.443C159.59 264.307 157.496 264.469 155.293 263.865C152.319 263.052 149.527 261.787 147.293 259.505C145.892 258.068 144.376 256.735 142.882 255.396C142.048 254.651 141.111 254.339 139.944 254.719C139.402 254.896 138.715 254.787 138.132 254.651C134.689 253.86 133.548 254.37 131.725 257.578C131.574 257.844 131.345 258.068 131.095 258.391C129.809 258.078 129.257 257.016 128.783 256.016C128.277 254.974 127.98 253.834 127.605 252.735C127.366 252.037 127.184 251.307 126.887 250.636C126.621 250.031 126.142 249.542 125.408 249.714C124.72 249.875 124.428 250.479 124.361 251.136C124.293 251.766 124.288 252.406 124.309 253.042C124.527 259.354 126.314 265.115 130.272 270.136C132.538 273.021 135.376 275.188 138.585 276.906C139.418 277.354 140.283 277.745 141.382 278.281C140.845 278.807 140.496 279.281 140.038 279.583C135.314 282.74 133.335 287.266 133.1 292.807C132.85 298.474 135.053 303.099 138.772 307.162C139.126 307.552 139.496 307.922 139.85 308.313C139.923 308.391 139.939 308.505 139.996 308.615C139.668 309.641 138.783 309.318 138.142 309.25C133.507 308.776 128.866 308.307 124.246 307.703C119.418 307.063 114.626 306.182 109.939 304.839C102.22 302.625 94.3867 300.771 86.9961 297.531C85.7409 296.979 84.3815 296.672 83.1003 296.177C78.2669 294.287 73.3867 292.5 68.6419 290.417C64.7773 288.719 61.0482 286.672 57.2878 284.729C48.9076 280.396 40.9388 275.375 33.0117 270.271C22.3815 263.427 12.5534 255.563 3.08984 247.203C2.08464 246.313 0.871095 245.537 0.511719 244.063C1.14193 242.875 2.39714 242.703 3.42839 242.307C12.2357 238.932 21.0638 235.636 30.3242 233.703C38.0951 232.073 45.8659 230.422 53.6784 228.979C57.6263 228.255 61.6523 227.943 65.6471 227.495C75.1315 226.427 84.6419 225.578 94.1836 225.745C105.309 225.943 116.418 226.526 127.345 228.927C127.861 229.037 128.392 229.089 128.918 229.115C129.085 229.12 129.251 228.943 129.559 228.776ZM177.21 213.766C177.21 213.938 177.204 214.104 177.204 214.276C177.314 214.235 177.423 214.193 177.533 214.146C177.402 214.037 177.267 213.927 177.142 213.818C177.147 213.505 177.246 213.151 177.142 212.88C174.97 207.365 172.798 201.86 169.595 196.818C164.204 188.344 157.611 180.932 149.939 174.495C138.012 164.479 124.85 156.495 110.361 150.745C109.496 150.396 108.658 149.99 107.257 149.979C108.257 150.682 108.908 151.167 109.585 151.62C113.798 154.464 118.059 157.229 122.215 160.151C129.757 165.448 137.012 171.115 144.194 176.891C150.413 181.891 156.095 187.458 161.272 193.469C165.621 198.511 169.397 204.047 173.408 209.375C174.361 210.641 175.236 211.974 176.204 213.235C176.418 213.505 176.871 213.589 177.21 213.766ZM391.194 150.724C391.126 150.537 391.059 150.349 390.986 150.167C390.215 150.406 389.413 150.583 388.668 150.891C375.22 156.333 362.871 163.625 351.595 172.75C345.236 177.906 339.522 183.672 334.475 190.156C329.142 197.005 325.355 204.641 322.314 212.708C322.173 213.068 322.21 213.49 322.095 214.448C323.882 212.636 324.908 210.943 326.038 209.333C330.163 203.422 334.355 197.547 339.215 192.219C344.861 186.037 350.913 180.271 357.507 175.057C366.23 168.151 375.085 161.432 384.319 155.229C386.595 153.703 388.902 152.224 391.194 150.724Z" fill="white"/>
</g>
<path fill-rule="evenodd" clip-rule="evenodd" d="M215.644 211.438C216.29 212.625 216.738 213.318 217.066 214.057C219.743 220.083 221.67 226.349 222.649 232.865C223.441 238.167 223.128 243.422 221.31 248.526C220.461 250.922 219.769 253.37 218.878 255.75C218.284 257.328 217.592 258.896 216.738 260.349C213.982 264.99 211.139 269.578 208.321 274.188C208.102 274.542 207.852 274.885 207.623 275.24C207.113 276.026 206.399 276.365 205.461 276.255C204.415 276.135 203.352 276.052 202.305 275.938C197.357 275.401 192.425 274.839 187.441 274.786C184.159 274.75 180.878 274.417 177.607 274.516C172.852 274.661 168.102 275.052 163.357 275.396C162.321 275.469 161.31 275.656 160.373 275.479C160.076 274.766 160.508 274.521 160.821 274.302C161.863 273.573 162.894 272.818 163.998 272.203C169.191 269.323 174.076 265.974 178.993 262.656C181.274 261.12 183.623 259.677 186.029 258.344C190.581 255.818 194.743 252.786 198.732 249.432C203.363 245.531 206.29 240.693 208.024 234.974C210.227 227.682 212.55 220.427 214.831 213.161C214.956 212.766 215.18 212.406 215.644 211.438Z" fill="white"/>
<path fill-rule="evenodd" clip-rule="evenodd" d="M284.547 211.427C285.088 212.979 285.448 213.948 285.76 214.932C287.078 219.057 288.396 223.188 289.693 227.323C290.521 229.938 291.401 232.547 292.109 235.203C293.656 241.026 296.76 245.813 301.401 249.62C305.417 252.917 309.672 255.828 314.172 258.453C319.104 261.323 323.797 264.589 328.615 267.662C330.484 268.854 332.411 269.958 334.297 271.13C336 272.188 337.687 273.281 339.365 274.38C339.609 274.542 339.755 274.828 339.948 275.057C339.531 275.87 338.823 275.578 338.276 275.542C334.583 275.292 330.896 274.995 327.208 274.714C322.771 274.365 318.333 274.36 313.896 274.708C309.677 275.037 305.453 275.266 301.234 275.573C299.344 275.714 297.432 275.828 295.568 276.167C293.854 276.479 292.755 275.99 291.896 274.485C290.469 272.011 288.917 269.615 287.432 267.177C287.042 266.547 286.724 265.865 286.297 265.271C281.906 259.125 279.693 252.068 277.734 244.906C276.745 241.281 276.771 237.537 277.26 233.88C278.24 226.604 280.406 219.641 283.484 212.969C283.651 212.604 283.943 212.292 284.547 211.427Z" fill="white"/>
<path fill-rule="evenodd" clip-rule="evenodd" d="M358.583 267.151C357.359 267.235 356.406 266.271 356.609 265.318C357.151 262.766 358.474 260.667 360.646 259.193C361.276 258.766 362.141 258.823 362.688 259.396C363.073 259.807 363.479 260.547 363.365 261.026C362.859 263.198 361.818 265.13 360.005 266.521C359.537 266.891 358.88 267.026 358.583 267.151Z" fill="white"/>
<path fill-rule="evenodd" clip-rule="evenodd" d="M141.623 267.307C140.883 266.896 140.029 266.63 139.477 266.073C138.217 264.802 137.284 263.281 136.79 261.531C136.519 260.573 136.774 259.776 137.472 259.328C138.185 258.87 139.071 258.896 139.805 259.469C141.508 260.802 142.566 262.599 143.269 264.599C143.524 265.333 143.337 266.073 142.769 266.625C142.498 266.901 142.092 267.037 141.623 267.307Z" fill="white"/>
<path fill-rule="evenodd" clip-rule="evenodd" d="M177.141 213.818C177.266 213.927 177.401 214.036 177.531 214.146C177.422 214.193 177.312 214.234 177.203 214.276C177.203 214.104 177.208 213.937 177.208 213.766L177.141 213.818Z" fill="white"/>
</svg>
