<svg xmlns="http://www.w3.org/2000/svg" xmlns:xlink="http://www.w3.org/1999/xlink" width="200" zoomAndPan="magnify" viewBox="0 0 150 149.999998" height="200" preserveAspectRatio="xMidYMid meet" version="1.2"><defs><clipPath id="b40603d797"><path d="M 23.421875 13 L 126 13 L 126 136.703125 L 23.421875 136.703125 Z M 23.421875 13 "/></clipPath></defs><g id="62cc38e018"><g clip-rule="nonzero" clip-path="url(#b40603d797)"><path style=" stroke:none;fill-rule:nonzero;fill:#7450a5;fill-opacity:1;" d="M 47.222656 78.808594 L 61.484375 78.808594 C 61.375 79.324219 61.285156 79.847656 61.226562 80.378906 C 60.980469 82.554688 61.625 84.566406 63.082031 86.199219 C 64.542969 87.832031 66.472656 88.695312 68.660156 88.695312 L 89.539062 88.695312 C 91.730469 88.695312 93.65625 87.832031 95.117188 86.199219 C 96.574219 84.566406 97.21875 82.554688 96.972656 80.378906 C 96.914062 79.847656 96.824219 79.324219 96.714844 78.808594 L 110.976562 78.808594 C 112.800781 78.808594 114.40625 78.089844 115.621094 76.730469 C 116.835938 75.371094 117.371094 73.695312 117.167969 71.882812 C 116.582031 66.65625 112.90625 62.46875 108.085938 61.042969 C 110.160156 59.4375 111.5 56.925781 111.5 54.109375 C 111.5 49.273438 107.566406 45.34375 102.734375 45.34375 C 97.902344 45.34375 93.96875 49.277344 93.96875 54.109375 C 93.96875 56.933594 95.3125 59.449219 97.390625 61.050781 C 93.722656 62.15625 90.660156 64.882812 89.179688 68.464844 C 87.875 67.707031 86.449219 67.132812 84.945312 66.773438 C 87.863281 64.863281 89.796875 61.566406 89.796875 57.824219 C 89.796875 51.929688 85 47.132812 79.105469 47.132812 C 73.207031 47.132812 68.410156 51.925781 68.410156 57.824219 C 68.410156 61.566406 70.34375 64.863281 73.261719 66.773438 C 71.757812 67.132812 70.335938 67.707031 69.03125 68.464844 C 67.546875 64.882812 64.488281 62.15625 60.816406 61.050781 C 62.898438 59.449219 64.242188 56.933594 64.242188 54.109375 C 64.242188 49.273438 60.308594 45.34375 55.476562 45.34375 C 50.644531 45.34375 46.710938 49.277344 46.710938 54.109375 C 46.710938 56.925781 48.050781 59.4375 50.125 61.042969 C 45.304688 62.46875 41.632812 66.65625 41.042969 71.882812 C 40.839844 73.695312 41.375 75.371094 42.589844 76.730469 C 43.792969 78.089844 45.398438 78.808594 47.222656 78.808594 Z M 92.832031 84.160156 C 91.957031 85.136719 90.847656 85.632812 89.539062 85.632812 L 68.65625 85.632812 C 67.347656 85.632812 66.238281 85.140625 65.363281 84.160156 C 64.488281 83.183594 64.121094 82.023438 64.265625 80.722656 C 64.992188 74.269531 70.4375 69.40625 76.933594 69.40625 L 81.261719 69.40625 C 87.757812 69.40625 93.203125 74.269531 93.929688 80.722656 C 94.074219 82.023438 93.707031 83.183594 92.832031 84.160156 Z M 102.726562 48.40625 C 105.871094 48.40625 108.429688 50.964844 108.429688 54.109375 C 108.429688 57.253906 105.871094 59.8125 102.726562 59.8125 C 99.582031 59.8125 97.023438 57.253906 97.023438 54.109375 C 97.023438 50.964844 99.582031 48.40625 102.726562 48.40625 Z M 101.015625 63.574219 L 104.4375 63.574219 C 109.398438 63.574219 113.5625 67.296875 114.121094 72.226562 C 114.226562 73.171875 113.96875 73.980469 113.332031 74.691406 C 112.699219 75.398438 111.925781 75.746094 110.972656 75.746094 L 95.714844 75.746094 C 94.789062 73.652344 93.429688 71.804688 91.75 70.316406 C 93.039062 66.359375 96.796875 63.574219 101.015625 63.574219 Z M 71.464844 57.824219 C 71.464844 53.617188 74.890625 50.191406 79.097656 50.191406 C 83.308594 50.191406 86.730469 53.617188 86.730469 57.824219 C 86.730469 62.035156 83.308594 65.457031 79.097656 65.457031 C 74.890625 65.457031 71.464844 62.03125 71.464844 57.824219 Z M 55.46875 48.40625 C 58.613281 48.40625 61.171875 50.964844 61.171875 54.109375 C 61.171875 57.253906 58.613281 59.8125 55.46875 59.8125 C 52.324219 59.8125 49.765625 57.253906 49.765625 54.109375 C 49.765625 50.964844 52.320312 48.40625 55.46875 48.40625 Z M 44.074219 72.226562 C 44.628906 67.296875 48.792969 63.574219 53.757812 63.574219 L 57.179688 63.574219 C 61.398438 63.574219 65.15625 66.359375 66.445312 70.316406 C 64.765625 71.808594 63.40625 73.65625 62.480469 75.75 L 47.222656 75.75 C 46.269531 75.75 45.496094 75.40625 44.863281 74.691406 C 44.226562 73.980469 43.96875 73.175781 44.074219 72.226562 Z M 124.910156 93.554688 C 122.523438 88.976562 116.859375 87.191406 112.28125 89.578125 L 88.023438 102.222656 C 88.046875 102 88.066406 101.773438 88.074219 101.550781 C 88.183594 99.058594 87.3125 96.671875 85.617188 94.824219 C 83.921875 92.980469 81.621094 91.902344 79.128906 91.796875 L 57.515625 90.859375 C 55.898438 90.789062 54.472656 91.105469 53.03125 91.855469 L 38.832031 99.257812 L 37.347656 96.410156 C 36.914062 95.582031 36.1875 94.964844 35.289062 94.683594 C 34.390625 94.402344 33.441406 94.484375 32.613281 94.917969 L 25.460938 98.640625 C 24.632812 99.074219 24.015625 99.804688 23.738281 100.703125 C 23.453125 101.597656 23.539062 102.550781 23.96875 103.378906 L 40.363281 134.839844 C 40.988281 136.042969 42.214844 136.730469 43.484375 136.730469 C 44.03125 136.730469 44.582031 136.601562 45.101562 136.332031 L 52.25 132.605469 C 53.082031 132.171875 53.695312 131.441406 53.976562 130.542969 C 54.257812 129.648438 54.175781 128.695312 53.746094 127.863281 L 52.257812 125.015625 L 53.523438 124.355469 C 54.007812 124.101562 54.535156 124.09375 55.605469 124.324219 L 71.597656 127.753906 C 72.929688 128.039062 74.367188 128.300781 75.859375 128.300781 C 77.414062 128.300781 79.03125 128.015625 80.644531 127.175781 L 120.9375 106.175781 C 123.144531 105.027344 124.777344 103.074219 125.53125 100.683594 C 126.28125 98.300781 126.0625 95.765625 124.910156 93.554688 Z M 50.832031 129.890625 L 43.683594 133.617188 C 43.539062 133.691406 43.40625 133.667969 43.339844 133.648438 C 43.273438 133.625 43.148438 133.566406 43.074219 133.425781 L 26.679688 101.964844 C 26.605469 101.824219 26.632812 101.691406 26.652344 101.621094 C 26.671875 101.554688 26.730469 101.429688 26.871094 101.355469 L 34.023438 97.628906 C 34.09375 97.589844 34.164062 97.582031 34.222656 97.582031 C 34.28125 97.582031 34.332031 97.589844 34.363281 97.601562 C 34.429688 97.621094 34.554688 97.679688 34.628906 97.820312 L 36.820312 102.023438 L 48.832031 125.074219 L 51.023438 129.277344 C 51.140625 129.5 51.050781 129.78125 50.832031 129.890625 Z M 122.609375 99.773438 C 122.101562 101.382812 121.003906 102.695312 119.519531 103.472656 L 79.230469 124.46875 C 77.191406 125.53125 75.042969 125.371094 72.238281 124.769531 L 56.246094 121.339844 C 54.941406 121.058594 53.539062 120.902344 52.109375 121.648438 L 50.84375 122.308594 L 40.246094 101.972656 L 54.445312 94.574219 C 55.402344 94.074219 56.304688 93.875 57.382812 93.921875 L 78.996094 94.855469 C 80.671875 94.925781 82.21875 95.652344 83.363281 96.898438 C 84.5 98.140625 85.089844 99.75 85.019531 101.421875 C 84.949219 103.097656 84.222656 104.644531 82.976562 105.789062 C 81.730469 106.925781 80.125 107.519531 78.449219 107.445312 L 63.90625 106.816406 C 63.0625 106.78125 62.347656 107.433594 62.3125 108.28125 C 62.277344 109.125 62.929688 109.839844 63.777344 109.875 L 78.320312 110.503906 C 80.800781 110.609375 83.199219 109.738281 85.046875 108.042969 C 85.546875 107.582031 85.992188 107.078125 86.375 106.535156 L 113.695312 92.296875 C 116.777344 90.691406 120.589844 91.890625 122.195312 94.972656 C 122.96875 96.457031 123.117188 98.160156 122.609375 99.773438 Z M 78.015625 40.195312 C 78.3125 40.492188 78.707031 40.644531 79.097656 40.644531 C 79.488281 40.644531 79.878906 40.492188 80.179688 40.195312 L 92.632812 27.742188 C 95.824219 24.546875 95.824219 19.355469 92.632812 16.160156 C 89.441406 12.96875 84.246094 12.96875 81.050781 16.160156 L 79.09375 18.117188 L 77.136719 16.160156 C 73.941406 12.964844 68.75 12.96875 65.554688 16.160156 C 62.363281 19.355469 62.363281 24.546875 65.554688 27.742188 Z M 67.722656 18.324219 C 69.722656 16.324219 72.976562 16.324219 74.976562 18.324219 L 78.015625 21.363281 C 78.304688 21.648438 78.691406 21.8125 79.097656 21.8125 C 79.5 21.8125 79.890625 21.652344 80.179688 21.363281 L 83.214844 18.324219 C 85.214844 16.324219 88.46875 16.324219 90.46875 18.324219 C 92.46875 20.324219 92.46875 23.578125 90.46875 25.578125 L 79.097656 36.949219 L 67.722656 25.578125 C 65.726562 23.574219 65.726562 20.324219 67.722656 18.324219 Z M 67.722656 18.324219 "/></g></g></svg>