<svg xmlns="http://www.w3.org/2000/svg" xmlns:xlink="http://www.w3.org/1999/xlink" width="200" zoomAndPan="magnify" viewBox="0 0 150 149.999998" height="200" preserveAspectRatio="xMidYMid meet" version="1.2"><g id="188c3439db"><path style=" stroke:none;fill-rule:nonzero;fill:#ffffff;fill-opacity:1;" d="M 74.988281 47.542969 L 74.382812 15.617188 C 74.375 15.28125 74.640625 15.007812 74.976562 15 C 75.3125 14.992188 75.585938 15.261719 75.59375 15.59375 C 75.59375 15.601562 75.59375 15.613281 75.59375 15.617188 Z M 74.988281 47.542969 "/><path style=" stroke:none;fill-rule:nonzero;fill:#ffffff;fill-opacity:1;" d="M 72.738281 49.296875 L 69.523438 19.46875 C 69.484375 19.132812 69.726562 18.835938 70.0625 18.796875 C 70.394531 18.761719 70.695312 19.003906 70.730469 19.339844 C 70.730469 19.34375 70.734375 19.355469 70.734375 19.363281 Z M 72.738281 49.296875 "/><path style=" stroke:none;fill-rule:nonzero;fill:#ffffff;fill-opacity:1;" d="M 70.828125 51.390625 L 65.390625 24.046875 C 65.324219 23.71875 65.539062 23.398438 65.867188 23.332031 C 66.195312 23.269531 66.519531 23.480469 66.582031 23.8125 C 66.585938 23.816406 66.585938 23.832031 66.585938 23.835938 Z M 70.828125 51.390625 "/><path style=" stroke:none;fill-rule:nonzero;fill:#ffffff;fill-opacity:1;" d="M 68.609375 51.183594 L 60.605469 23.65625 C 60.511719 23.335938 60.695312 22.996094 61.019531 22.902344 C 61.339844 22.808594 61.679688 22.996094 61.769531 23.316406 C 61.773438 23.324219 61.777344 23.332031 61.777344 23.339844 Z M 68.609375 51.183594 "/><path style=" stroke:none;fill-rule:nonzero;fill:#ffffff;fill-opacity:1;" d="M 65.785156 49.703125 L 54.507812 20.5 C 54.386719 20.1875 54.542969 19.835938 54.855469 19.710938 C 55.167969 19.59375 55.519531 19.75 55.644531 20.0625 C 55.644531 20.066406 55.648438 20.074219 55.648438 20.082031 Z M 65.785156 49.703125 "/><path style=" stroke:none;fill-rule:nonzero;fill:#ffffff;fill-opacity:1;" d="M 63.609375 50.589844 L 49.824219 22.46875 C 49.675781 22.164062 49.800781 21.800781 50.101562 21.652344 C 50.40625 21.503906 50.765625 21.628906 50.917969 21.933594 C 50.917969 21.9375 50.921875 21.945312 50.925781 21.953125 Z M 63.609375 50.589844 "/><path style=" stroke:none;fill-rule:nonzero;fill:#ffffff;fill-opacity:1;" d="M 62.660156 53.632812 L 47.792969 29.105469 C 47.621094 28.816406 47.710938 28.445312 48 28.269531 C 48.285156 28.097656 48.65625 28.1875 48.832031 28.472656 C 48.839844 28.480469 48.84375 28.488281 48.84375 28.496094 Z M 62.660156 53.632812 "/><path style=" stroke:none;fill-rule:nonzero;fill:#ffffff;fill-opacity:1;" d="M 61.246094 55.363281 L 44.765625 32.886719 C 44.566406 32.617188 44.625 32.238281 44.898438 32.039062 C 45.167969 31.839844 45.546875 31.898438 45.746094 32.171875 C 45.753906 32.179688 45.757812 32.183594 45.761719 32.191406 Z M 61.246094 55.363281 "/><path style=" stroke:none;fill-rule:nonzero;fill:#ffffff;fill-opacity:1;" d="M 58.429688 55.253906 L 38.703125 32.695312 C 38.484375 32.441406 38.511719 32.058594 38.761719 31.835938 C 39.015625 31.617188 39.398438 31.644531 39.617188 31.894531 C 39.625 31.898438 39.632812 31.90625 39.636719 31.914062 Z M 58.429688 55.253906 "/><path style=" stroke:none;fill-rule:nonzero;fill:#ffffff;fill-opacity:1;" d="M 55.582031 55.582031 L 32.578125 33.4375 C 32.335938 33.207031 32.328125 32.820312 32.5625 32.578125 C 32.792969 32.335938 33.179688 32.328125 33.421875 32.5625 C 33.425781 32.566406 33.433594 32.574219 33.4375 32.578125 Z M 55.582031 55.582031 "/><path style=" stroke:none;fill-rule:nonzero;fill:#ffffff;fill-opacity:1;" d="M 55.253906 58.429688 L 31.910156 39.636719 C 31.648438 39.425781 31.609375 39.042969 31.820312 38.78125 C 32.03125 38.519531 32.414062 38.480469 32.675781 38.691406 C 32.679688 38.695312 32.6875 38.703125 32.695312 38.707031 Z M 55.253906 58.429688 "/><path style=" stroke:none;fill-rule:nonzero;fill:#ffffff;fill-opacity:1;" d="M 55.363281 61.246094 L 32.191406 45.761719 C 31.914062 45.574219 31.835938 45.199219 32.023438 44.917969 C 32.210938 44.640625 32.589844 44.566406 32.867188 44.75 C 32.875 44.757812 32.882812 44.761719 32.886719 44.765625 Z M 55.363281 61.246094 "/><path style=" stroke:none;fill-rule:nonzero;fill:#ffffff;fill-opacity:1;" d="M 53.632812 62.660156 L 28.496094 48.847656 C 28.199219 48.6875 28.09375 48.316406 28.253906 48.023438 C 28.414062 47.726562 28.785156 47.621094 29.082031 47.78125 C 29.085938 47.785156 29.097656 47.792969 29.101562 47.792969 Z M 53.632812 62.660156 "/><path style=" stroke:none;fill-rule:nonzero;fill:#ffffff;fill-opacity:1;" d="M 50.589844 63.609375 L 21.953125 50.929688 C 21.644531 50.792969 21.503906 50.433594 21.640625 50.125 C 21.777344 49.820312 22.136719 49.679688 22.441406 49.816406 C 22.449219 49.820312 22.457031 49.824219 22.464844 49.828125 Z M 50.589844 63.609375 "/><path style=" stroke:none;fill-rule:nonzero;fill:#ffffff;fill-opacity:1;" d="M 49.703125 65.785156 L 20.082031 55.648438 C 19.765625 55.542969 19.59375 55.195312 19.703125 54.878906 C 19.8125 54.5625 20.15625 54.390625 20.476562 54.5 C 20.484375 54.5 20.492188 54.503906 20.496094 54.503906 Z M 49.703125 65.785156 "/><path style=" stroke:none;fill-rule:nonzero;fill:#ffffff;fill-opacity:1;" d="M 51.183594 68.609375 L 23.34375 61.777344 C 23.015625 61.699219 22.816406 61.371094 22.898438 61.042969 C 22.976562 60.71875 23.308594 60.519531 23.632812 60.597656 C 23.636719 60.601562 23.648438 60.601562 23.65625 60.605469 Z M 51.183594 68.609375 "/><path style=" stroke:none;fill-rule:nonzero;fill:#ffffff;fill-opacity:1;" d="M 51.390625 70.828125 L 23.835938 66.585938 C 23.507812 66.535156 23.277344 66.222656 23.328125 65.890625 C 23.378906 65.558594 23.691406 65.332031 24.023438 65.382812 C 24.03125 65.386719 24.042969 65.386719 24.046875 65.386719 Z M 51.390625 70.828125 "/><path style=" stroke:none;fill-rule:nonzero;fill:#ffffff;fill-opacity:1;" d="M 49.296875 72.738281 L 19.363281 70.730469 C 19.027344 70.710938 18.773438 70.417969 18.796875 70.082031 C 18.816406 69.746094 19.109375 69.496094 19.445312 69.515625 C 19.449219 69.515625 19.460938 69.519531 19.46875 69.519531 Z M 49.296875 72.738281 "/><path style=" stroke:none;fill-rule:nonzero;fill:#ffffff;fill-opacity:1;" d="M 47.542969 74.988281 L 15.617188 75.59375 C 15.28125 75.601562 15.007812 75.332031 15 75 C 14.992188 74.664062 15.261719 74.386719 15.59375 74.382812 C 15.601562 74.382812 15.613281 74.382812 15.617188 74.382812 Z M 47.542969 74.988281 "/><path style=" stroke:none;fill-rule:nonzero;fill:#ffffff;fill-opacity:1;" d="M 49.296875 77.238281 L 19.46875 80.453125 C 19.132812 80.488281 18.835938 80.246094 18.796875 79.914062 C 18.761719 79.582031 19.003906 79.28125 19.339844 79.246094 C 19.34375 79.246094 19.355469 79.242188 19.363281 79.242188 Z M 49.296875 77.238281 "/><path style=" stroke:none;fill-rule:nonzero;fill:#ffffff;fill-opacity:1;" d="M 51.390625 79.148438 L 24.046875 84.585938 C 23.71875 84.652344 23.398438 84.4375 23.332031 84.109375 C 23.269531 83.78125 23.480469 83.457031 23.8125 83.394531 C 23.816406 83.390625 23.832031 83.390625 23.835938 83.390625 Z M 51.390625 79.148438 "/><path style=" stroke:none;fill-rule:nonzero;fill:#ffffff;fill-opacity:1;" d="M 51.183594 81.367188 L 23.65625 89.371094 C 23.335938 89.464844 22.996094 89.28125 22.902344 88.957031 C 22.808594 88.636719 22.996094 88.296875 23.316406 88.203125 C 23.324219 88.203125 23.332031 88.199219 23.339844 88.199219 Z M 51.183594 81.367188 "/><path style=" stroke:none;fill-rule:nonzero;fill:#ffffff;fill-opacity:1;" d="M 49.703125 84.191406 L 20.5 95.46875 C 20.1875 95.585938 19.835938 95.433594 19.710938 95.121094 C 19.59375 94.808594 19.75 94.457031 20.0625 94.332031 C 20.066406 94.332031 20.074219 94.328125 20.082031 94.324219 Z M 49.703125 84.191406 "/><path style=" stroke:none;fill-rule:nonzero;fill:#ffffff;fill-opacity:1;" d="M 50.589844 86.367188 L 22.46875 100.152344 C 22.164062 100.300781 21.800781 100.175781 21.652344 99.875 C 21.503906 99.570312 21.628906 99.207031 21.933594 99.058594 C 21.9375 99.058594 21.945312 99.054688 21.953125 99.050781 Z M 50.589844 86.367188 "/><path style=" stroke:none;fill-rule:nonzero;fill:#ffffff;fill-opacity:1;" d="M 53.632812 87.316406 L 29.105469 102.183594 C 28.816406 102.355469 28.445312 102.261719 28.269531 101.976562 C 28.097656 101.691406 28.1875 101.316406 28.472656 101.144531 C 28.480469 101.136719 28.488281 101.132812 28.496094 101.128906 Z M 53.632812 87.316406 "/><path style=" stroke:none;fill-rule:nonzero;fill:#ffffff;fill-opacity:1;" d="M 55.363281 88.730469 L 32.886719 105.210938 C 32.617188 105.410156 32.238281 105.347656 32.039062 105.078125 C 31.839844 104.808594 31.898438 104.425781 32.171875 104.230469 C 32.179688 104.222656 32.183594 104.21875 32.191406 104.214844 Z M 55.363281 88.730469 "/><path style=" stroke:none;fill-rule:nonzero;fill:#ffffff;fill-opacity:1;" d="M 55.253906 91.546875 L 32.695312 111.269531 C 32.441406 111.492188 32.058594 111.464844 31.835938 111.214844 C 31.617188 110.960938 31.644531 110.578125 31.894531 110.355469 C 31.898438 110.351562 31.90625 110.34375 31.914062 110.339844 Z M 55.253906 91.546875 "/><path style=" stroke:none;fill-rule:nonzero;fill:#ffffff;fill-opacity:1;" d="M 55.582031 94.394531 L 33.4375 117.398438 C 33.207031 117.640625 32.820312 117.648438 32.578125 117.414062 C 32.335938 117.179688 32.328125 116.796875 32.5625 116.554688 C 32.566406 116.550781 32.574219 116.542969 32.578125 116.539062 Z M 55.582031 94.394531 "/><path style=" stroke:none;fill-rule:nonzero;fill:#ffffff;fill-opacity:1;" d="M 58.429688 94.722656 L 39.636719 118.0625 C 39.425781 118.324219 39.042969 118.367188 38.78125 118.15625 C 38.519531 117.945312 38.480469 117.5625 38.691406 117.300781 C 38.695312 117.296875 38.703125 117.285156 38.707031 117.28125 Z M 58.429688 94.722656 "/><path style=" stroke:none;fill-rule:nonzero;fill:#ffffff;fill-opacity:1;" d="M 61.246094 94.609375 L 45.761719 117.785156 C 45.574219 118.0625 45.199219 118.136719 44.917969 117.953125 C 44.640625 117.765625 44.566406 117.386719 44.75 117.109375 C 44.757812 117.101562 44.761719 117.09375 44.765625 117.085938 Z M 61.246094 94.609375 "/><path style=" stroke:none;fill-rule:nonzero;fill:#ffffff;fill-opacity:1;" d="M 62.660156 96.339844 L 48.847656 121.480469 C 48.6875 121.777344 48.316406 121.882812 48.023438 121.722656 C 47.726562 121.558594 47.621094 121.191406 47.78125 120.894531 C 47.785156 120.886719 47.792969 120.878906 47.792969 120.875 Z M 62.660156 96.339844 "/><path style=" stroke:none;fill-rule:nonzero;fill:#ffffff;fill-opacity:1;" d="M 63.609375 99.386719 L 50.925781 128.023438 C 50.789062 128.332031 50.429688 128.472656 50.125 128.335938 C 49.816406 128.199219 49.679688 127.839844 49.816406 127.53125 C 49.816406 127.527344 49.820312 127.519531 49.824219 127.511719 Z M 63.609375 99.386719 "/><path style=" stroke:none;fill-rule:nonzero;fill:#ffffff;fill-opacity:1;" d="M 65.785156 100.273438 L 55.648438 129.894531 C 55.542969 130.210938 55.195312 130.382812 54.878906 130.273438 C 54.5625 130.164062 54.390625 129.820312 54.5 129.5 C 54.5 129.492188 54.503906 129.484375 54.503906 129.480469 Z M 65.785156 100.273438 "/><path style=" stroke:none;fill-rule:nonzero;fill:#ffffff;fill-opacity:1;" d="M 68.609375 98.792969 L 61.777344 126.632812 C 61.699219 126.960938 61.371094 127.160156 61.042969 127.078125 C 60.71875 127 60.519531 126.667969 60.597656 126.34375 C 60.601562 126.335938 60.601562 126.328125 60.605469 126.320312 Z M 68.609375 98.792969 "/><path style=" stroke:none;fill-rule:nonzero;fill:#ffffff;fill-opacity:1;" d="M 70.828125 98.585938 L 66.585938 126.136719 C 66.535156 126.46875 66.222656 126.695312 65.890625 126.644531 C 65.558594 126.59375 65.332031 126.28125 65.382812 125.953125 C 65.386719 125.945312 65.386719 125.933594 65.386719 125.925781 Z M 70.828125 98.585938 "/><path style=" stroke:none;fill-rule:nonzero;fill:#ffffff;fill-opacity:1;" d="M 72.738281 100.679688 L 70.730469 130.613281 C 70.710938 130.949219 70.417969 131.203125 70.082031 131.179688 C 69.746094 131.160156 69.496094 130.867188 69.515625 130.53125 C 69.515625 130.523438 69.519531 130.515625 69.519531 130.507812 Z M 72.738281 100.679688 "/><path style=" stroke:none;fill-rule:nonzero;fill:#ffffff;fill-opacity:1;" d="M 74.382812 134.355469 L 74.988281 102.433594 L 75.59375 134.355469 C 75.601562 134.691406 75.332031 134.96875 75 134.976562 C 74.664062 134.984375 74.386719 134.714844 74.382812 134.382812 C 74.382812 134.375 74.382812 134.363281 74.382812 134.355469 Z M 74.382812 134.355469 "/><path style=" stroke:none;fill-rule:nonzero;fill:#ffffff;fill-opacity:1;" d="M 79.246094 130.613281 L 77.238281 100.679688 L 80.457031 130.507812 C 80.492188 130.839844 80.25 131.140625 79.917969 131.175781 C 79.582031 131.214844 79.28125 130.972656 79.246094 130.636719 C 79.246094 130.628906 79.246094 130.621094 79.246094 130.613281 Z M 79.246094 130.613281 "/><path style=" stroke:none;fill-rule:nonzero;fill:#ffffff;fill-opacity:1;" d="M 83.390625 126.136719 L 79.148438 98.585938 L 84.585938 125.925781 C 84.652344 126.257812 84.4375 126.578125 84.109375 126.640625 C 83.78125 126.707031 83.457031 126.492188 83.394531 126.164062 C 83.394531 126.15625 83.390625 126.144531 83.390625 126.136719 Z M 83.390625 126.136719 "/><path style=" stroke:none;fill-rule:nonzero;fill:#ffffff;fill-opacity:1;" d="M 88.199219 126.632812 L 81.367188 98.792969 L 89.371094 126.320312 C 89.464844 126.640625 89.28125 126.976562 88.957031 127.070312 C 88.636719 127.164062 88.296875 126.980469 88.203125 126.660156 C 88.203125 126.648438 88.199219 126.640625 88.199219 126.632812 Z M 88.199219 126.632812 "/><path style=" stroke:none;fill-rule:nonzero;fill:#ffffff;fill-opacity:1;" d="M 84.191406 100.273438 L 95.46875 129.476562 C 95.585938 129.789062 95.433594 130.140625 95.121094 130.261719 C 94.808594 130.382812 94.457031 130.226562 94.332031 129.914062 C 94.332031 129.910156 94.328125 129.902344 94.324219 129.894531 Z M 84.191406 100.273438 "/><path style=" stroke:none;fill-rule:nonzero;fill:#ffffff;fill-opacity:1;" d="M 99.046875 128.023438 L 86.363281 99.386719 L 100.148438 127.507812 C 100.296875 127.8125 100.171875 128.171875 99.871094 128.320312 C 99.570312 128.472656 99.207031 128.347656 99.058594 128.042969 C 99.054688 128.039062 99.054688 128.03125 99.046875 128.023438 Z M 99.046875 128.023438 "/><path style=" stroke:none;fill-rule:nonzero;fill:#ffffff;fill-opacity:1;" d="M 101.128906 121.480469 L 87.316406 96.339844 L 102.183594 120.875 C 102.355469 121.160156 102.261719 121.535156 101.976562 121.710938 C 101.691406 121.882812 101.316406 121.789062 101.144531 121.503906 C 101.136719 121.496094 101.132812 121.484375 101.128906 121.480469 Z M 101.128906 121.480469 "/><path style=" stroke:none;fill-rule:nonzero;fill:#ffffff;fill-opacity:1;" d="M 104.210938 117.785156 L 88.726562 94.613281 L 105.207031 117.089844 C 105.40625 117.359375 105.347656 117.738281 105.074219 117.9375 C 104.804688 118.136719 104.425781 118.078125 104.226562 117.808594 C 104.222656 117.800781 104.214844 117.792969 104.210938 117.785156 Z M 104.210938 117.785156 "/><path style=" stroke:none;fill-rule:nonzero;fill:#ffffff;fill-opacity:1;" d="M 110.339844 118.0625 L 91.546875 94.722656 L 111.269531 117.28125 C 111.492188 117.535156 111.464844 117.917969 111.214844 118.136719 C 110.960938 118.359375 110.578125 118.332031 110.355469 118.082031 C 110.351562 118.078125 110.34375 118.070312 110.339844 118.0625 Z M 110.339844 118.0625 "/><path style=" stroke:none;fill-rule:nonzero;fill:#ffffff;fill-opacity:1;" d="M 116.539062 117.398438 L 94.394531 94.394531 L 117.398438 116.539062 C 117.640625 116.769531 117.648438 117.15625 117.414062 117.398438 C 117.179688 117.640625 116.796875 117.648438 116.554688 117.414062 C 116.550781 117.410156 116.542969 117.402344 116.539062 117.398438 Z M 116.539062 117.398438 "/><path style=" stroke:none;fill-rule:nonzero;fill:#ffffff;fill-opacity:1;" d="M 117.28125 111.269531 L 94.722656 91.546875 L 118.0625 110.339844 C 118.324219 110.550781 118.367188 110.933594 118.15625 111.195312 C 117.945312 111.457031 117.5625 111.496094 117.300781 111.285156 C 117.296875 111.28125 117.289062 111.277344 117.28125 111.269531 Z M 117.28125 111.269531 "/><path style=" stroke:none;fill-rule:nonzero;fill:#ffffff;fill-opacity:1;" d="M 117.085938 105.207031 L 94.609375 88.726562 L 117.785156 104.210938 C 118.0625 104.398438 118.136719 104.777344 117.953125 105.054688 C 117.765625 105.332031 117.386719 105.410156 117.109375 105.222656 C 117.105469 105.21875 117.09375 105.210938 117.085938 105.207031 Z M 117.085938 105.207031 "/><path style=" stroke:none;fill-rule:nonzero;fill:#ffffff;fill-opacity:1;" d="M 120.871094 102.183594 L 96.339844 87.316406 L 121.480469 101.128906 C 121.773438 101.289062 121.878906 101.660156 121.71875 101.953125 C 121.558594 102.25 121.1875 102.355469 120.894531 102.195312 C 120.886719 102.1875 120.878906 102.183594 120.871094 102.183594 Z M 120.871094 102.183594 "/><path style=" stroke:none;fill-rule:nonzero;fill:#ffffff;fill-opacity:1;" d="M 127.511719 100.148438 L 99.390625 86.363281 L 128.027344 99.046875 C 128.335938 99.183594 128.472656 99.542969 128.335938 99.847656 C 128.199219 100.15625 127.84375 100.296875 127.535156 100.160156 C 127.527344 100.15625 127.519531 100.152344 127.511719 100.148438 Z M 127.511719 100.148438 "/><path style=" stroke:none;fill-rule:nonzero;fill:#ffffff;fill-opacity:1;" d="M 100.273438 84.191406 L 129.894531 94.324219 C 130.210938 94.433594 130.382812 94.777344 130.273438 95.097656 C 130.164062 95.414062 129.820312 95.585938 129.5 95.476562 C 129.492188 95.476562 129.484375 95.472656 129.480469 95.46875 Z M 100.273438 84.191406 "/><path style=" stroke:none;fill-rule:nonzero;fill:#ffffff;fill-opacity:1;" d="M 126.320312 89.371094 L 98.792969 81.367188 L 126.632812 88.199219 C 126.960938 88.277344 127.160156 88.609375 127.078125 88.929688 C 127 89.257812 126.667969 89.457031 126.34375 89.378906 C 126.335938 89.375 126.324219 89.375 126.320312 89.371094 Z M 126.320312 89.371094 "/><path style=" stroke:none;fill-rule:nonzero;fill:#ffffff;fill-opacity:1;" d="M 125.925781 84.585938 L 98.585938 79.148438 L 126.136719 83.390625 C 126.46875 83.441406 126.695312 83.753906 126.644531 84.085938 C 126.59375 84.414062 126.28125 84.644531 125.953125 84.59375 C 125.945312 84.589844 125.933594 84.589844 125.925781 84.585938 Z M 125.925781 84.585938 "/><path style=" stroke:none;fill-rule:nonzero;fill:#ffffff;fill-opacity:1;" d="M 130.507812 80.453125 L 100.679688 77.234375 L 130.613281 79.242188 C 130.949219 79.265625 131.203125 79.554688 131.179688 79.890625 C 131.160156 80.226562 130.867188 80.476562 130.53125 80.457031 C 130.523438 80.457031 130.515625 80.457031 130.507812 80.453125 Z M 130.507812 80.453125 "/><path style=" stroke:none;fill-rule:nonzero;fill:#ffffff;fill-opacity:1;" d="M 134.355469 75.59375 L 102.433594 74.988281 L 134.355469 74.382812 C 134.691406 74.375 134.96875 74.640625 134.976562 74.976562 C 134.984375 75.3125 134.714844 75.585938 134.382812 75.59375 C 134.375 75.59375 134.363281 75.59375 134.355469 75.59375 Z M 134.355469 75.59375 "/><path style=" stroke:none;fill-rule:nonzero;fill:#ffffff;fill-opacity:1;" d="M 130.613281 70.730469 L 100.679688 72.738281 L 130.507812 69.519531 C 130.839844 69.484375 131.140625 69.726562 131.175781 70.058594 C 131.214844 70.394531 130.972656 70.691406 130.636719 70.730469 C 130.628906 70.730469 130.621094 70.730469 130.613281 70.730469 Z M 130.613281 70.730469 "/><path style=" stroke:none;fill-rule:nonzero;fill:#ffffff;fill-opacity:1;" d="M 126.136719 66.585938 L 98.585938 70.828125 L 125.925781 65.390625 C 126.257812 65.324219 126.578125 65.539062 126.640625 65.867188 C 126.707031 66.195312 126.492188 66.519531 126.164062 66.582031 C 126.15625 66.582031 126.144531 66.585938 126.136719 66.585938 Z M 126.136719 66.585938 "/><path style=" stroke:none;fill-rule:nonzero;fill:#ffffff;fill-opacity:1;" d="M 126.632812 61.777344 L 98.792969 68.609375 L 126.320312 60.605469 C 126.640625 60.511719 126.976562 60.695312 127.070312 61.019531 C 127.164062 61.339844 126.980469 61.679688 126.660156 61.769531 C 126.648438 61.773438 126.640625 61.777344 126.632812 61.777344 Z M 126.632812 61.777344 "/><path style=" stroke:none;fill-rule:nonzero;fill:#ffffff;fill-opacity:1;" d="M 100.273438 65.785156 L 129.476562 54.507812 C 129.789062 54.386719 130.140625 54.542969 130.261719 54.855469 C 130.382812 55.167969 130.226562 55.519531 129.914062 55.644531 C 129.910156 55.644531 129.902344 55.648438 129.894531 55.648438 Z M 100.273438 65.785156 "/><path style=" stroke:none;fill-rule:nonzero;fill:#ffffff;fill-opacity:1;" d="M 128.023438 50.929688 L 99.386719 63.613281 L 127.507812 49.828125 C 127.8125 49.679688 128.171875 49.800781 128.320312 50.105469 C 128.472656 50.40625 128.347656 50.769531 128.042969 50.917969 C 128.039062 50.921875 128.03125 50.921875 128.023438 50.929688 Z M 128.023438 50.929688 "/><path style=" stroke:none;fill-rule:nonzero;fill:#ffffff;fill-opacity:1;" d="M 121.480469 48.847656 L 96.339844 62.660156 L 120.875 47.792969 C 121.160156 47.621094 121.535156 47.710938 121.710938 48 C 121.882812 48.285156 121.789062 48.65625 121.503906 48.832031 C 121.496094 48.839844 121.484375 48.84375 121.480469 48.847656 Z M 121.480469 48.847656 "/><path style=" stroke:none;fill-rule:nonzero;fill:#ffffff;fill-opacity:1;" d="M 117.785156 45.765625 L 94.613281 61.25 L 117.089844 44.769531 C 117.359375 44.570312 117.738281 44.628906 117.9375 44.902344 C 118.136719 45.171875 118.078125 45.550781 117.808594 45.75 C 117.800781 45.753906 117.792969 45.757812 117.785156 45.765625 Z M 117.785156 45.765625 "/><path style=" stroke:none;fill-rule:nonzero;fill:#ffffff;fill-opacity:1;" d="M 118.0625 39.636719 L 94.722656 58.429688 L 117.28125 38.703125 C 117.535156 38.484375 117.917969 38.511719 118.136719 38.761719 C 118.359375 39.015625 118.332031 39.398438 118.082031 39.617188 C 118.078125 39.625 118.070312 39.632812 118.0625 39.636719 Z M 118.0625 39.636719 "/><path style=" stroke:none;fill-rule:nonzero;fill:#ffffff;fill-opacity:1;" d="M 117.398438 33.4375 L 94.394531 55.582031 L 116.539062 32.578125 C 116.769531 32.335938 117.15625 32.328125 117.398438 32.5625 C 117.640625 32.792969 117.648438 33.179688 117.414062 33.421875 C 117.410156 33.425781 117.402344 33.433594 117.398438 33.4375 Z M 117.398438 33.4375 "/><path style=" stroke:none;fill-rule:nonzero;fill:#ffffff;fill-opacity:1;" d="M 111.269531 32.695312 L 91.546875 55.253906 L 110.339844 31.910156 C 110.550781 31.648438 110.933594 31.609375 111.195312 31.820312 C 111.457031 32.03125 111.496094 32.414062 111.285156 32.675781 C 111.28125 32.679688 111.277344 32.6875 111.269531 32.695312 Z M 111.269531 32.695312 "/><path style=" stroke:none;fill-rule:nonzero;fill:#ffffff;fill-opacity:1;" d="M 105.207031 32.886719 L 88.726562 55.363281 L 104.210938 32.191406 C 104.398438 31.914062 104.777344 31.835938 105.054688 32.023438 C 105.332031 32.210938 105.410156 32.589844 105.222656 32.867188 C 105.21875 32.871094 105.210938 32.882812 105.207031 32.886719 Z M 105.207031 32.886719 "/><path style=" stroke:none;fill-rule:nonzero;fill:#ffffff;fill-opacity:1;" d="M 102.183594 29.105469 L 87.316406 53.636719 L 101.128906 28.496094 C 101.289062 28.203125 101.660156 28.097656 101.953125 28.257812 C 102.25 28.417969 102.355469 28.789062 102.195312 29.082031 C 102.1875 29.085938 102.183594 29.097656 102.183594 29.105469 Z M 102.183594 29.105469 "/><path style=" stroke:none;fill-rule:nonzero;fill:#ffffff;fill-opacity:1;" d="M 100.148438 22.464844 L 86.363281 50.585938 L 99.046875 21.949219 C 99.183594 21.640625 99.542969 21.503906 99.847656 21.640625 C 100.15625 21.777344 100.296875 22.132812 100.160156 22.441406 C 100.15625 22.449219 100.152344 22.457031 100.148438 22.464844 Z M 100.148438 22.464844 "/><path style=" stroke:none;fill-rule:nonzero;fill:#ffffff;fill-opacity:1;" d="M 84.191406 49.703125 L 94.324219 20.082031 C 94.433594 19.765625 94.777344 19.59375 95.097656 19.703125 C 95.414062 19.8125 95.585938 20.15625 95.476562 20.476562 C 95.476562 20.484375 95.472656 20.492188 95.46875 20.496094 Z M 84.191406 49.703125 "/><path style=" stroke:none;fill-rule:nonzero;fill:#ffffff;fill-opacity:1;" d="M 89.371094 23.65625 L 81.367188 51.183594 L 88.199219 23.34375 C 88.277344 23.015625 88.609375 22.816406 88.929688 22.898438 C 89.253906 22.976562 89.457031 23.308594 89.378906 23.632812 C 89.375 23.640625 89.375 23.648438 89.371094 23.65625 Z M 89.371094 23.65625 "/><path style=" stroke:none;fill-rule:nonzero;fill:#ffffff;fill-opacity:1;" d="M 84.585938 24.046875 L 79.148438 51.390625 L 83.390625 23.839844 C 83.441406 23.507812 83.753906 23.28125 84.085938 23.332031 C 84.414062 23.382812 84.644531 23.695312 84.59375 24.023438 C 84.589844 24.03125 84.589844 24.042969 84.585938 24.046875 Z M 84.585938 24.046875 "/><path style=" stroke:none;fill-rule:nonzero;fill:#ffffff;fill-opacity:1;" d="M 80.453125 19.46875 L 77.234375 49.296875 L 79.242188 19.363281 C 79.265625 19.027344 79.554688 18.773438 79.890625 18.796875 C 80.226562 18.816406 80.476562 19.109375 80.457031 19.445312 C 80.457031 19.449219 80.457031 19.460938 80.453125 19.46875 Z M 80.453125 19.46875 "/></g></svg>