<svg width="50" height="50" viewBox="0 0 50 50" fill="none" xmlns="http://www.w3.org/2000/svg">
<mask id="mask0_990_3517" style="mask-type:luminance" maskUnits="userSpaceOnUse" x="24" y="0" width="2" height="14">
<path d="M24.5166 0H25.4622V13.6414H24.5166V0Z" fill="white"/>
</mask>
<g mask="url(#mask0_990_3517)">
<path d="M24.9816 13.5528L24.7286 0.258658C24.7249 0.118292 24.8376 0.00378194 24.9761 8.83253e-05C25.1165 -0.00360576 25.231 0.109057 25.2347 0.247577C25.2347 0.251271 25.2347 0.254964 25.2347 0.258658L24.9816 13.5528Z" fill="white"/>
</g>
<path d="M24.0454 14.2823L22.7046 1.85988C22.6898 1.72136 22.7914 1.59761 22.9299 1.58284C23.0684 1.56621 23.194 1.6678 23.2088 1.80632C23.2088 1.81001 23.2106 1.8137 23.2106 1.8174L24.0454 14.2823Z" fill="white"/>
<path d="M23.2499 15.1535L20.9855 3.76719C20.9578 3.63052 21.0465 3.49754 21.1832 3.46984C21.3217 3.44213 21.4547 3.53263 21.4824 3.6693C21.4824 3.67115 21.4824 3.67669 21.4842 3.68039L23.2499 15.1535Z" fill="white"/>
<path d="M22.3253 15.0696L18.9916 3.60571C18.9528 3.47274 19.0285 3.33052 19.1633 3.29174C19.2963 3.25295 19.4385 3.33052 19.4773 3.4635C19.4773 3.4672 19.4792 3.47089 19.4792 3.47458L22.3253 15.0696Z" fill="white"/>
<path d="M21.1472 14.4502L16.4524 2.29004C16.4025 2.16075 16.4671 2.013 16.5983 1.96313C16.7276 1.91326 16.8735 1.97791 16.9252 2.10719C16.927 2.11089 16.927 2.11273 16.9289 2.11643L21.1472 14.4502Z" fill="white"/>
<path d="M20.2423 14.8214L14.5021 3.11002C14.4412 2.98443 14.4929 2.83298 14.6185 2.77018C14.7441 2.70924 14.8955 2.76095 14.9565 2.88654C14.9583 2.89024 14.9602 2.89208 14.9602 2.89578L20.2423 14.8214Z" fill="white"/>
<path d="M19.8463 16.0886L13.6554 5.87324C13.5834 5.75319 13.6222 5.59805 13.7404 5.52602C13.8604 5.45399 14.0156 5.49278 14.0894 5.61098C14.0913 5.61467 14.0931 5.61652 14.0931 5.62021L19.8463 16.0886Z" fill="white"/>
<path d="M19.2585 16.8092L12.3972 7.44898C12.314 7.33631 12.3381 7.17932 12.4507 7.09621C12.5634 7.0131 12.7222 7.03896 12.8053 7.15162C12.8072 7.15347 12.809 7.15716 12.8109 7.16086L19.2585 16.8092Z" fill="white"/>
<path d="M18.0845 16.7628L9.87128 7.36932C9.77893 7.26405 9.79002 7.10337 9.89529 7.01102C10.0006 6.92052 10.1594 6.9316 10.2517 7.03503C10.2536 7.03872 10.2573 7.04057 10.2591 7.04426L18.0845 16.7628Z" fill="white"/>
<path d="M16.8998 16.8994L7.32172 7.67768C7.22014 7.58164 7.21644 7.42096 7.31433 7.32123C7.41037 7.21965 7.57105 7.21595 7.67263 7.31384C7.67448 7.31569 7.67632 7.31938 7.67817 7.32123L16.8998 16.8994Z" fill="white"/>
<path d="M16.7625 18.0849L7.04218 10.2595C6.93321 10.1708 6.91659 10.012 7.00524 9.90302C7.09204 9.79405 7.25088 9.77743 7.35985 9.86608C7.36169 9.86792 7.36723 9.86977 7.36908 9.87162L16.7625 18.0849Z" fill="white"/>
<path d="M16.8087 19.2585L7.16044 12.8108C7.04408 12.7333 7.01084 12.5763 7.09026 12.4599C7.16783 12.3436 7.32481 12.3122 7.44117 12.3897C7.44302 12.3916 7.44671 12.3934 7.44856 12.3971L16.8087 19.2585Z" fill="white"/>
<path d="M16.0884 19.8473L5.6201 14.096C5.49635 14.0295 5.45203 13.8743 5.52036 13.7524C5.58685 13.6287 5.74015 13.5844 5.86389 13.6527C5.86574 13.6545 5.87128 13.6564 5.87313 13.6564L16.0884 19.8473Z" fill="white"/>
<path d="M14.8212 20.2426L2.8938 14.9622C2.76636 14.905 2.7091 14.7554 2.76636 14.6279C2.82177 14.5005 2.97137 14.4432 3.0988 14.4987C3.1025 14.5005 3.10619 14.5024 3.10804 14.5042L14.8212 20.2426Z" fill="white"/>
<path d="M14.45 21.1474L2.11626 16.929C1.98513 16.8829 1.9131 16.7388 1.95743 16.6058C2.0036 16.4747 2.14766 16.4045 2.28064 16.4488C2.28248 16.4507 2.28618 16.4507 2.28987 16.4525L14.45 21.1474Z" fill="white"/>
<path d="M15.0682 22.3252L3.47327 19.4791C3.33844 19.4477 3.25533 19.3092 3.28857 19.1743C3.31997 19.0377 3.45849 18.9545 3.59332 18.9878C3.59701 18.9896 3.6007 18.9896 3.6044 18.9915L15.0682 22.3252Z" fill="white"/>
<path d="M15.154 23.2488L3.68097 21.4813C3.54245 21.461 3.44826 21.3299 3.46857 21.1932C3.48889 21.0547 3.62002 20.9605 3.75669 20.9808C3.76039 20.9826 3.76593 20.9826 3.76778 20.9826L15.154 23.2488Z" fill="white"/>
<path d="M14.2819 24.0454L1.81705 23.2088C1.67668 23.1995 1.57141 23.0795 1.58064 22.9391C1.58988 22.7988 1.70993 22.6935 1.85029 22.7027C1.85399 22.7027 1.85768 22.7046 1.85953 22.7046L14.2819 24.0454Z" fill="white"/>
<mask id="mask1_990_3517" style="mask-type:luminance" maskUnits="userSpaceOnUse" x="0" y="24" width="14" height="2">
<path d="M0 24.5161H13.6413V25.4617H0V24.5161Z" fill="white"/>
</mask>
<g mask="url(#mask1_990_3517)">
<path d="M13.5528 24.9815L0.258657 25.2346C0.118291 25.2364 0.00378192 25.1256 8.83248e-05 24.9871C-0.00360575 24.8467 0.109056 24.7322 0.247575 24.7285C0.251269 24.7285 0.254963 24.7285 0.258657 24.7285L13.5528 24.9815Z" fill="white"/>
</g>
<path d="M14.2813 25.9175L1.8589 27.2565C1.72038 27.2713 1.59664 27.1715 1.58186 27.033C1.56524 26.8927 1.66682 26.7689 1.80534 26.7541C1.80903 26.7541 1.81272 26.7523 1.81642 26.7523L14.2813 25.9175Z" fill="white"/>
<path d="M15.1544 26.7144L3.76817 28.9787C3.63149 29.0064 3.49852 28.9159 3.47081 28.7792C3.44311 28.6425 3.53361 28.5096 3.67028 28.4819C3.67213 28.4819 3.67767 28.4819 3.68136 28.48L15.1544 26.7144Z" fill="white"/>
<path d="M15.069 27.6372L3.60522 30.9709C3.47225 31.0097 3.33003 30.9321 3.29125 30.7991C3.25246 30.6643 3.33003 30.524 3.46301 30.4852C3.46671 30.4833 3.4704 30.4833 3.47409 30.4815L15.069 27.6372Z" fill="white"/>
<path d="M14.4501 28.814L2.29004 33.5107C2.16075 33.5606 2.013 33.4941 1.96313 33.3648C1.91326 33.2355 1.97791 33.0878 2.10719 33.0379C2.11088 33.036 2.11273 33.036 2.11643 33.0342L14.4501 28.814Z" fill="white"/>
<path d="M14.8218 29.7188L3.11051 35.4608C2.98492 35.5218 2.83347 35.4701 2.77067 35.3445C2.70972 35.2189 2.76144 35.0674 2.88703 35.0047C2.89072 35.0047 2.89257 35.0028 2.89626 35.001L14.8218 29.7188Z" fill="white"/>
<path d="M16.0881 30.1162L5.87275 36.3053C5.7527 36.3773 5.59756 36.3404 5.52553 36.2203C5.4535 36.1003 5.49229 35.947 5.61049 35.8731C5.61418 35.8712 5.61603 35.8694 5.61973 35.8675L16.0881 30.1162Z" fill="white"/>
<path d="M16.8087 30.7036L7.44849 37.5668C7.33582 37.6499 7.17884 37.6259 7.09572 37.5114C7.01261 37.3987 7.03847 37.2417 7.15113 37.1586C7.15298 37.1568 7.15667 37.1549 7.16037 37.1531L16.8087 30.7036Z" fill="white"/>
<path d="M16.7623 31.8784L7.36883 40.0917C7.26356 40.184 7.10288 40.173 7.01053 40.0677C6.92003 39.9624 6.93111 39.8017 7.03454 39.7112C7.03823 39.7094 7.04008 39.7057 7.04378 39.7038L16.7623 31.8784Z" fill="white"/>
<path d="M16.8998 33.064L7.67817 42.6421C7.58213 42.7437 7.42145 42.7456 7.32172 42.6495C7.22014 42.5516 7.21644 42.3928 7.31433 42.2912C7.31617 42.2894 7.31987 42.2857 7.32172 42.2838L16.8998 33.064Z" fill="white"/>
<path d="M18.0853 33.1982L10.26 42.9186C10.1713 43.0276 10.0125 43.0461 9.9035 42.9574C9.79454 42.8688 9.77791 42.7099 9.86657 42.6009C9.86841 42.5991 9.87026 42.5954 9.87211 42.5936L18.0853 33.1982Z" fill="white"/>
<path d="M19.257 33.1523L12.8094 42.8025C12.7318 42.9189 12.5748 42.9503 12.4585 42.8727C12.3421 42.7951 12.3107 42.6382 12.3883 42.5218C12.3901 42.5181 12.392 42.5163 12.3957 42.5126L19.257 33.1523Z" fill="white"/>
<path d="M19.8468 33.873L14.0955 44.3433C14.029 44.4652 13.8738 44.5095 13.7519 44.443C13.6282 44.3765 13.5839 44.2214 13.6522 44.0995C13.654 44.0958 13.6559 44.0921 13.6559 44.0902L19.8468 33.873Z" fill="white"/>
<path d="M20.2427 35.1416L14.9605 47.0672C14.9051 47.1965 14.7555 47.2537 14.628 47.1965C14.4987 47.1392 14.4415 46.9915 14.4987 46.8622C14.4987 46.8604 14.5024 46.8567 14.5024 46.853L20.2427 35.1416Z" fill="white"/>
<path d="M21.1474 35.5107L16.929 47.8464C16.8829 47.9775 16.7388 48.0495 16.6058 48.0034C16.4747 47.959 16.4045 47.815 16.4488 47.682C16.4507 47.6783 16.4507 47.6746 16.4525 47.6728L21.1474 35.5107Z" fill="white"/>
<path d="M22.3261 34.8936L19.48 46.4867C19.4486 46.6234 19.3101 46.7065 19.1753 46.6733C19.0386 46.64 18.9555 46.5033 18.9888 46.3685C18.9906 46.3648 18.9906 46.3611 18.9925 46.3574L22.3261 34.8936Z" fill="white"/>
<path d="M23.2493 34.8071L21.4818 46.2802C21.4615 46.4188 21.3303 46.5148 21.1937 46.4926C21.0551 46.4723 20.961 46.3412 20.9813 46.2045C20.9831 46.2008 20.9831 46.1953 20.9831 46.1934L23.2493 34.8071Z" fill="white"/>
<path d="M24.0454 35.6807L23.2088 48.1456C23.1995 48.2859 23.0795 48.3912 22.9391 48.382C22.7988 48.3727 22.6935 48.2508 22.7027 48.1123C22.7027 48.1086 22.7046 48.1049 22.7046 48.1012L24.0454 35.6807Z" fill="white"/>
<mask id="mask2_990_3517" style="mask-type:luminance" maskUnits="userSpaceOnUse" x="24" y="36" width="2" height="14">
<path d="M24.5166 36.3364H25.4622V50H24.5166V36.3364Z" fill="white"/>
</mask>
<g mask="url(#mask2_990_3517)">
<path d="M24.7285 49.7048L24.9815 36.4106L25.2346 49.7048C25.2364 49.8452 25.1256 49.9597 24.9871 49.9634C24.8467 49.9652 24.7322 49.8544 24.7285 49.7141C24.7285 49.7122 24.7285 49.7085 24.7285 49.7048Z" fill="white"/>
</g>
<path d="M26.7546 48.1456L25.918 35.6807L27.2588 48.1012C27.2736 48.2398 27.172 48.3654 27.0335 48.3801C26.895 48.3949 26.7694 48.2952 26.7546 48.1548C26.7546 48.153 26.7546 48.1493 26.7546 48.1456Z" fill="white"/>
<path d="M28.4804 46.2822L26.7129 34.8091L28.9772 46.1935C29.0049 46.3321 28.9144 46.465 28.7777 46.4927C28.6411 46.5186 28.5081 46.4299 28.4804 46.2933C28.4804 46.2896 28.4804 46.2859 28.4804 46.2822Z" fill="white"/>
<path d="M30.4819 46.4867L27.6377 34.8936L30.9714 46.3574C31.0102 46.4904 30.9326 46.6308 30.7996 46.6696C30.6648 46.7102 30.5244 46.6326 30.4856 46.4978C30.4838 46.4941 30.4838 46.4904 30.4819 46.4867Z" fill="white"/>
<path d="M28.8135 35.5107L33.5102 47.6728C33.5601 47.802 33.4936 47.9479 33.3643 47.9997C33.235 48.0495 33.0872 47.9849 33.0374 47.8556C33.0355 47.8519 33.0355 47.8482 33.0337 47.8464L28.8135 35.5107Z" fill="white"/>
<path d="M35.0009 47.0672L29.7188 35.1416L35.459 46.853C35.5218 46.9786 35.47 47.13 35.3426 47.191C35.217 47.2537 35.0656 47.202 35.0046 47.0764C35.0028 47.0746 35.0028 47.0709 35.0009 47.0672Z" fill="white"/>
<path d="M35.8665 44.3433L30.1152 33.873L36.3043 44.0902C36.3763 44.2103 36.3393 44.3654 36.2193 44.4375C36.0992 44.5095 35.946 44.4726 35.8721 44.3525C35.8702 44.3488 35.8684 44.3451 35.8665 44.3433Z" fill="white"/>
<path d="M37.1507 42.804L30.7031 33.1538L37.5663 42.514C37.6494 42.6267 37.6235 42.7837 37.5109 42.8668C37.3982 42.9499 37.2394 42.9259 37.1563 42.8132C37.1563 42.8095 37.1526 42.8058 37.1507 42.804Z" fill="white"/>
<path d="M39.7023 42.9186L31.877 33.1982L40.0902 42.5936C40.1825 42.6988 40.1715 42.8577 40.0662 42.95C39.9609 43.0424 39.8002 43.0313 39.7097 42.926C39.706 42.9242 39.7042 42.9223 39.7023 42.9186Z" fill="white"/>
<path d="M42.2833 42.6421L33.0635 33.064L42.6416 42.2838C42.7432 42.3817 42.745 42.5405 42.649 42.6421C42.5511 42.7437 42.3923 42.7456 42.2907 42.6495C42.2888 42.6477 42.2851 42.644 42.2833 42.6421Z" fill="white"/>
<path d="M42.5945 40.0917L33.1992 31.8784L42.9195 39.7038C43.0285 39.7907 43.047 39.9513 42.9583 40.0585C42.8697 40.1674 42.7108 40.1859 42.6019 40.0972C42.6 40.0954 42.5982 40.0935 42.5945 40.0917Z" fill="white"/>
<path d="M42.5115 37.5668L33.1514 30.7036L42.8015 37.1512C42.9179 37.2288 42.9493 37.3858 42.8717 37.5022C42.7941 37.6185 42.6371 37.6499 42.5208 37.5723C42.5189 37.5705 42.5152 37.5686 42.5115 37.5668Z" fill="white"/>
<path d="M44.0874 36.3053L33.8721 30.1162L44.3404 35.8675C44.4641 35.934 44.5085 36.0873 44.4401 36.2111C44.3736 36.3348 44.2203 36.3773 44.0966 36.3108C44.0948 36.309 44.0911 36.3071 44.0874 36.3053Z" fill="white"/>
<path d="M46.853 35.459L35.1436 29.7188L47.0691 35.001C47.1965 35.0582 47.2538 35.206 47.1984 35.3334C47.1411 35.4627 46.9915 35.5199 46.8641 35.4627C46.8604 35.4627 46.8567 35.4608 46.853 35.459Z" fill="white"/>
<path d="M35.5107 28.814L47.8463 33.0342C47.9774 33.0785 48.0495 33.2226 48.0033 33.3556C47.959 33.4885 47.8149 33.5587 47.6819 33.5144C47.6782 33.5125 47.6745 33.5125 47.6727 33.5107L35.5107 28.814Z" fill="white"/>
<path d="M46.3583 30.9709L34.8945 27.6372L46.4876 30.4815C46.6243 30.5147 46.7074 30.6532 46.6742 30.7881C46.6409 30.9229 46.5043 31.006 46.3694 30.9728C46.3639 30.9728 46.3602 30.9709 46.3583 30.9709Z" fill="white"/>
<path d="M46.1929 28.9787L34.8066 26.7144L46.2797 28.4819C46.4182 28.5022 46.5142 28.6315 46.4921 28.77C46.4718 28.9085 46.3406 29.0027 46.204 28.9824C46.2021 28.9805 46.1966 28.9805 46.1929 28.9787Z" fill="white"/>
<path d="M48.1012 27.2574L35.6807 25.9165L48.1455 26.7532C48.2859 26.7624 48.3911 26.8824 48.3819 27.0228C48.3727 27.1632 48.2508 27.2685 48.1123 27.2592C48.1086 27.2592 48.1049 27.2592 48.1012 27.2574Z" fill="white"/>
<mask id="mask3_990_3517" style="mask-type:luminance" maskUnits="userSpaceOnUse" x="36" y="24" width="14" height="2">
<path d="M36.3359 24.5161H49.9994V25.4617H36.3359V24.5161Z" fill="white"/>
</mask>
<g mask="url(#mask3_990_3517)">
<path d="M49.7033 25.2347L36.4092 24.9816L49.7033 24.7286C49.8437 24.7249 49.9582 24.8376 49.9619 24.9761C49.9637 25.1165 49.8529 25.231 49.7125 25.2347C49.7107 25.2347 49.707 25.2347 49.7033 25.2347Z" fill="white"/>
</g>
<path d="M48.1455 23.2083L35.6807 24.045L48.1012 22.7041C48.2397 22.6893 48.3653 22.789 48.3801 22.9294C48.3948 23.0679 48.2951 23.1917 48.1547 23.2083C48.1529 23.2083 48.1492 23.2083 48.1455 23.2083Z" fill="white"/>
<path d="M46.2816 21.4814L34.8086 23.2489L46.193 20.9846C46.3315 20.9569 46.4645 21.0455 46.4922 21.1822C46.518 21.3207 46.4294 21.4537 46.2927 21.4814C46.289 21.4814 46.2853 21.4814 46.2816 21.4814Z" fill="white"/>
<path d="M46.4876 19.4797L34.8945 22.3258L46.3583 18.9921C46.4913 18.9533 46.6317 19.029 46.6705 19.1638C46.7111 19.2968 46.6335 19.439 46.4987 19.4778C46.495 19.4778 46.4913 19.4797 46.4876 19.4797Z" fill="white"/>
<path d="M35.5107 21.1473L47.6727 16.4524C47.802 16.4025 47.9479 16.4671 47.9996 16.5983C48.0495 16.7276 47.9848 16.8735 47.8555 16.9252C47.8518 16.927 47.8481 16.927 47.8463 16.9289L35.5107 21.1473Z" fill="white"/>
<path d="M47.0662 14.9623L35.1406 20.2445L46.8519 14.5043C46.9775 14.4415 47.129 14.4932 47.1899 14.6188C47.2527 14.7462 47.201 14.8958 47.0754 14.9586C47.0736 14.9586 47.0699 14.9605 47.0662 14.9623Z" fill="white"/>
<path d="M44.3422 14.096L33.8721 19.8473L44.0892 13.6564C44.2093 13.5844 44.3644 13.6231 44.4364 13.7414C44.5085 13.8614 44.4715 14.0165 44.3515 14.0904C44.3478 14.0923 44.3441 14.0941 44.3422 14.096Z" fill="white"/>
<path d="M42.8044 12.8121L33.1543 19.2597L42.5145 12.3965C42.6271 12.3134 42.7841 12.3393 42.8672 12.4519C42.9503 12.5646 42.9263 12.7216 42.8137 12.8047C42.81 12.8065 42.8063 12.8102 42.8044 12.8121Z" fill="white"/>
<path d="M42.9195 10.2596L33.1992 18.0851L42.5945 9.87177C42.6998 9.77942 42.8586 9.7905 42.9509 9.89578C43.0433 10.0011 43.0322 10.1599 42.9269 10.2522C42.9251 10.2559 42.9232 10.2578 42.9195 10.2596Z" fill="white"/>
<path d="M42.6416 7.67768L33.0635 16.8994L42.2833 7.32123C42.3812 7.21965 42.54 7.21595 42.6416 7.31384C42.7432 7.40988 42.745 7.57056 42.649 7.67214C42.6471 7.67399 42.6434 7.67584 42.6416 7.67768Z" fill="white"/>
<path d="M40.0902 7.36908L31.877 16.7626L39.7023 7.04218C39.7891 6.93321 39.9498 6.91659 40.0569 7.00524C40.1659 7.09204 40.1844 7.25088 40.0957 7.35985C40.0939 7.36169 40.092 7.36539 40.0902 7.36908Z" fill="white"/>
<path d="M37.5663 7.44905L30.7031 16.8093L37.1507 7.16093C37.2283 7.04457 37.3853 7.01133 37.5016 7.09074C37.618 7.16831 37.6494 7.3253 37.5718 7.44166C37.57 7.44351 37.5681 7.4472 37.5663 7.44905Z" fill="white"/>
<path d="M36.3043 5.87339L30.1152 16.0906L35.8665 5.62036C35.933 5.49847 36.0863 5.45414 36.2101 5.52063C36.3338 5.58712 36.3763 5.74226 36.3098 5.86416C36.3079 5.86601 36.3061 5.87155 36.3043 5.87339Z" fill="white"/>
<path d="M35.459 3.10811L29.7188 14.8195L35.0009 2.89387C35.0582 2.76643 35.2059 2.70733 35.3334 2.76458C35.4627 2.82184 35.5199 2.97144 35.4627 3.09888C35.4627 3.10257 35.4608 3.10626 35.459 3.10811Z" fill="white"/>
<path d="M28.8135 14.4505L33.0337 2.11675C33.078 1.98562 33.2221 1.91359 33.355 1.95792C33.488 2.00409 33.5582 2.14815 33.5139 2.28113C33.512 2.28297 33.512 2.28667 33.5102 2.29036L28.8135 14.4505Z" fill="white"/>
<path d="M30.9714 3.60538L27.6377 15.0692L30.4819 3.47424C30.5152 3.33942 30.6537 3.25631 30.7885 3.28955C30.9234 3.32095 31.0065 3.45947 30.9732 3.59429C30.9732 3.59799 30.9714 3.60168 30.9714 3.60538Z" fill="white"/>
<path d="M28.9772 3.76782L26.7129 15.1541L28.4804 3.68102C28.5007 3.54435 28.63 3.44831 28.7685 3.47047C28.907 3.49079 29.0012 3.62007 28.9809 3.75859C28.9791 3.76044 28.9791 3.76598 28.9772 3.76782Z" fill="white"/>
<path d="M27.2559 1.86002L25.915 14.2824L26.7517 1.81754C26.7609 1.67717 26.881 1.5719 27.0213 1.58113C27.1617 1.59036 27.267 1.71042 27.2577 1.85078C27.2577 1.85448 27.2577 1.85817 27.2559 1.86002Z" fill="white"/>
</svg>
