<svg xmlns="http://www.w3.org/2000/svg" xmlns:xlink="http://www.w3.org/1999/xlink" width="200" zoomAndPan="magnify" viewBox="0 0 150 149.999998" height="200" preserveAspectRatio="xMidYMid meet" version="1.2"><g id="dbdf9db0b4"><path style=" stroke:none;fill-rule:nonzero;fill:#ffffff;fill-opacity:1;" d="M 74.984375 40.679688 L 74.226562 0.773438 C 74.21875 0.355469 74.554688 0.0078125 74.96875 0 C 75.390625 -0.0078125 75.734375 0.328125 75.742188 0.742188 C 75.742188 0.753906 75.742188 0.765625 75.742188 0.773438 Z M 74.984375 40.679688 "/><path style=" stroke:none;fill-rule:nonzero;fill:#ffffff;fill-opacity:1;" d="M 72.175781 42.871094 L 68.152344 5.585938 C 68.105469 5.167969 68.410156 4.792969 68.828125 4.75 C 69.246094 4.703125 69.617188 5.007812 69.664062 5.421875 C 69.664062 5.433594 69.667969 5.445312 69.667969 5.453125 Z M 72.175781 42.871094 "/><path style=" stroke:none;fill-rule:nonzero;fill:#ffffff;fill-opacity:1;" d="M 69.785156 45.488281 L 62.988281 11.3125 C 62.90625 10.898438 63.171875 10.496094 63.585938 10.417969 C 63.996094 10.335938 64.398438 10.601562 64.476562 11.015625 C 64.480469 11.023438 64.480469 11.039062 64.484375 11.046875 Z M 69.785156 45.488281 "/><path style=" stroke:none;fill-rule:nonzero;fill:#ffffff;fill-opacity:1;" d="M 67.011719 45.230469 L 57.007812 10.820312 C 56.890625 10.417969 57.121094 9.996094 57.523438 9.878906 C 57.925781 9.761719 58.347656 9.992188 58.464844 10.394531 C 58.46875 10.40625 58.46875 10.417969 58.472656 10.425781 Z M 67.011719 45.230469 "/><path style=" stroke:none;fill-rule:nonzero;fill:#ffffff;fill-opacity:1;" d="M 63.480469 43.378906 L 49.386719 6.875 C 49.234375 6.484375 49.429688 6.042969 49.820312 5.890625 C 50.210938 5.742188 50.652344 5.9375 50.804688 6.324219 C 50.808594 6.335938 50.808594 6.34375 50.8125 6.351562 Z M 63.480469 43.378906 "/><path style=" stroke:none;fill-rule:nonzero;fill:#ffffff;fill-opacity:1;" d="M 60.761719 44.488281 L 43.53125 9.335938 C 43.34375 8.957031 43.5 8.503906 43.878906 8.316406 C 44.257812 8.132812 44.710938 8.289062 44.894531 8.664062 C 44.898438 8.675781 44.902344 8.683594 44.90625 8.691406 Z M 60.761719 44.488281 "/><path style=" stroke:none;fill-rule:nonzero;fill:#ffffff;fill-opacity:1;" d="M 59.574219 48.292969 L 40.992188 17.628906 C 40.777344 17.269531 40.890625 16.804688 41.246094 16.585938 C 41.609375 16.371094 42.074219 16.484375 42.292969 16.839844 C 42.296875 16.851562 42.304688 16.859375 42.304688 16.867188 Z M 59.574219 48.292969 "/><path style=" stroke:none;fill-rule:nonzero;fill:#ffffff;fill-opacity:1;" d="M 57.808594 50.457031 L 37.207031 22.359375 C 36.957031 22.023438 37.035156 21.546875 37.371094 21.296875 C 37.710938 21.050781 38.183594 21.125 38.433594 21.464844 C 38.441406 21.472656 38.445312 21.480469 38.453125 21.492188 Z M 57.808594 50.457031 "/><path style=" stroke:none;fill-rule:nonzero;fill:#ffffff;fill-opacity:1;" d="M 54.285156 50.316406 L 29.632812 22.117188 C 29.355469 21.800781 29.386719 21.324219 29.703125 21.046875 C 30.019531 20.769531 30.496094 20.804688 30.773438 21.117188 C 30.78125 21.125 30.789062 21.132812 30.792969 21.144531 Z M 54.285156 50.316406 "/><path style=" stroke:none;fill-rule:nonzero;fill:#ffffff;fill-opacity:1;" d="M 50.726562 50.726562 L 21.972656 23.046875 C 21.671875 22.757812 21.660156 22.277344 21.953125 21.972656 C 22.242188 21.671875 22.722656 21.660156 23.027344 21.953125 C 23.03125 21.957031 23.042969 21.96875 23.046875 21.972656 Z M 50.726562 50.726562 "/><path style=" stroke:none;fill-rule:nonzero;fill:#ffffff;fill-opacity:1;" d="M 50.316406 54.285156 L 21.140625 30.792969 C 20.8125 30.53125 20.761719 30.054688 21.027344 29.726562 C 21.289062 29.398438 21.765625 29.347656 22.09375 29.613281 C 22.097656 29.617188 22.113281 29.628906 22.117188 29.632812 Z M 50.316406 54.285156 "/><path style=" stroke:none;fill-rule:nonzero;fill:#ffffff;fill-opacity:1;" d="M 50.457031 57.808594 L 21.492188 38.453125 C 21.144531 38.21875 21.046875 37.746094 21.28125 37.398438 C 21.515625 37.050781 21.984375 36.957031 22.332031 37.191406 C 22.34375 37.195312 22.351562 37.203125 22.359375 37.207031 Z M 50.457031 57.808594 "/><path style=" stroke:none;fill-rule:nonzero;fill:#ffffff;fill-opacity:1;" d="M 48.292969 59.574219 L 16.867188 42.308594 C 16.5 42.109375 16.367188 41.648438 16.570312 41.277344 C 16.769531 40.910156 17.230469 40.777344 17.601562 40.976562 C 17.609375 40.984375 17.621094 40.988281 17.628906 40.992188 Z M 48.292969 59.574219 "/><path style=" stroke:none;fill-rule:nonzero;fill:#ffffff;fill-opacity:1;" d="M 44.488281 60.761719 L 8.6875 44.910156 C 8.304688 44.738281 8.132812 44.292969 8.300781 43.910156 C 8.472656 43.523438 8.921875 43.351562 9.304688 43.519531 C 9.3125 43.523438 9.320312 43.53125 9.332031 43.535156 Z M 44.488281 60.761719 "/><path style=" stroke:none;fill-rule:nonzero;fill:#ffffff;fill-opacity:1;" d="M 43.378906 63.480469 L 6.351562 50.8125 C 5.957031 50.679688 5.742188 50.246094 5.878906 49.847656 C 6.015625 49.449219 6.445312 49.238281 6.84375 49.375 C 6.855469 49.375 6.867188 49.378906 6.871094 49.382812 Z M 43.378906 63.480469 "/><path style=" stroke:none;fill-rule:nonzero;fill:#ffffff;fill-opacity:1;" d="M 45.230469 67.011719 L 10.429688 58.472656 C 10.019531 58.375 9.773438 57.964844 9.871094 57.554688 C 9.96875 57.148438 10.382812 56.898438 10.789062 56.996094 C 10.796875 57 10.808594 57.003906 10.820312 57.007812 Z M 45.230469 67.011719 "/><path style=" stroke:none;fill-rule:nonzero;fill:#ffffff;fill-opacity:1;" d="M 45.488281 69.785156 L 11.046875 64.480469 C 10.632812 64.417969 10.347656 64.027344 10.410156 63.613281 C 10.472656 63.199219 10.863281 62.914062 11.277344 62.976562 C 11.285156 62.980469 11.300781 62.980469 11.3125 62.984375 Z M 45.488281 69.785156 "/><path style=" stroke:none;fill-rule:nonzero;fill:#ffffff;fill-opacity:1;" d="M 42.871094 72.175781 L 5.453125 69.664062 C 5.03125 69.636719 4.71875 69.273438 4.746094 68.855469 C 4.773438 68.433594 5.136719 68.121094 5.554688 68.144531 C 5.5625 68.144531 5.574219 68.148438 5.585938 68.148438 Z M 42.871094 72.175781 "/><path style=" stroke:none;fill-rule:nonzero;fill:#ffffff;fill-opacity:1;" d="M 40.679688 74.984375 L 0.773438 75.742188 C 0.355469 75.753906 0.0078125 75.417969 0 75 C -0.0078125 74.582031 0.328125 74.234375 0.742188 74.226562 C 0.753906 74.226562 0.765625 74.226562 0.773438 74.226562 Z M 40.679688 74.984375 "/><path style=" stroke:none;fill-rule:nonzero;fill:#ffffff;fill-opacity:1;" d="M 42.871094 77.796875 L 5.585938 81.816406 C 5.167969 81.863281 4.792969 81.558594 4.75 81.144531 C 4.703125 80.726562 5.007812 80.351562 5.421875 80.304688 C 5.433594 80.304688 5.445312 80.304688 5.453125 80.304688 Z M 42.871094 77.796875 "/><path style=" stroke:none;fill-rule:nonzero;fill:#ffffff;fill-opacity:1;" d="M 45.488281 80.1875 L 11.3125 86.984375 C 10.898438 87.0625 10.496094 86.796875 10.417969 86.386719 C 10.335938 85.976562 10.601562 85.574219 11.015625 85.492188 C 11.023438 85.488281 11.039062 85.488281 11.046875 85.484375 Z M 45.488281 80.1875 "/><path style=" stroke:none;fill-rule:nonzero;fill:#ffffff;fill-opacity:1;" d="M 45.230469 82.957031 L 10.820312 92.964844 C 10.417969 93.082031 9.996094 92.847656 9.878906 92.449219 C 9.761719 92.046875 9.992188 91.621094 10.394531 91.503906 C 10.40625 91.503906 10.417969 91.5 10.425781 91.496094 Z M 45.230469 82.957031 "/><path style=" stroke:none;fill-rule:nonzero;fill:#ffffff;fill-opacity:1;" d="M 43.378906 86.492188 L 6.875 100.585938 C 6.484375 100.734375 6.042969 100.539062 5.890625 100.148438 C 5.742188 99.761719 5.9375 99.320312 6.324219 99.167969 C 6.335938 99.164062 6.34375 99.160156 6.351562 99.15625 Z M 43.378906 86.492188 "/><path style=" stroke:none;fill-rule:nonzero;fill:#ffffff;fill-opacity:1;" d="M 44.488281 89.207031 L 9.335938 106.441406 C 8.957031 106.625 8.503906 106.46875 8.316406 106.089844 C 8.132812 105.714844 8.289062 105.261719 8.664062 105.074219 C 8.675781 105.070312 8.683594 105.066406 8.691406 105.0625 Z M 44.488281 89.207031 "/><path style=" stroke:none;fill-rule:nonzero;fill:#ffffff;fill-opacity:1;" d="M 48.292969 90.394531 L 17.628906 108.976562 C 17.269531 109.191406 16.804688 109.078125 16.585938 108.722656 C 16.371094 108.363281 16.484375 107.898438 16.839844 107.679688 C 16.851562 107.671875 16.859375 107.667969 16.867188 107.664062 Z M 48.292969 90.394531 "/><path style=" stroke:none;fill-rule:nonzero;fill:#ffffff;fill-opacity:1;" d="M 50.457031 92.164062 L 22.359375 112.761719 C 22.023438 113.011719 21.546875 112.9375 21.296875 112.597656 C 21.050781 112.257812 21.125 111.785156 21.464844 111.535156 C 21.472656 111.53125 21.480469 111.523438 21.492188 111.519531 Z M 50.457031 92.164062 "/><path style=" stroke:none;fill-rule:nonzero;fill:#ffffff;fill-opacity:1;" d="M 50.316406 95.683594 L 22.117188 120.339844 C 21.800781 120.613281 21.324219 120.582031 21.046875 120.265625 C 20.769531 119.953125 20.804688 119.472656 21.117188 119.195312 C 21.125 119.191406 21.132812 119.179688 21.144531 119.175781 Z M 50.316406 95.683594 "/><path style=" stroke:none;fill-rule:nonzero;fill:#ffffff;fill-opacity:1;" d="M 50.726562 99.246094 L 23.046875 127.996094 C 22.757812 128.300781 22.277344 128.308594 21.972656 128.015625 C 21.671875 127.726562 21.660156 127.246094 21.953125 126.945312 C 21.957031 126.9375 21.96875 126.929688 21.972656 126.921875 Z M 50.726562 99.246094 "/><path style=" stroke:none;fill-rule:nonzero;fill:#ffffff;fill-opacity:1;" d="M 54.285156 99.652344 L 30.792969 128.832031 C 30.53125 129.15625 30.054688 129.207031 29.726562 128.945312 C 29.398438 128.679688 29.347656 128.203125 29.613281 127.875 C 29.617188 127.871094 29.628906 127.859375 29.632812 127.851562 Z M 54.285156 99.652344 "/><path style=" stroke:none;fill-rule:nonzero;fill:#ffffff;fill-opacity:1;" d="M 57.808594 99.515625 L 38.453125 128.480469 C 38.21875 128.828125 37.746094 128.921875 37.398438 128.6875 C 37.050781 128.457031 36.957031 127.984375 37.191406 127.636719 C 37.195312 127.628906 37.203125 127.617188 37.207031 127.609375 Z M 57.808594 99.515625 "/><path style=" stroke:none;fill-rule:nonzero;fill:#ffffff;fill-opacity:1;" d="M 59.574219 101.675781 L 42.308594 133.101562 C 42.109375 133.46875 41.648438 133.601562 41.277344 133.402344 C 40.910156 133.199219 40.777344 132.738281 40.976562 132.371094 C 40.984375 132.359375 40.988281 132.347656 40.992188 132.34375 Z M 59.574219 101.675781 "/><path style=" stroke:none;fill-rule:nonzero;fill:#ffffff;fill-opacity:1;" d="M 60.761719 105.484375 L 44.90625 141.28125 C 44.734375 141.664062 44.289062 141.839844 43.90625 141.667969 C 43.519531 141.496094 43.347656 141.050781 43.519531 140.664062 C 43.519531 140.65625 43.527344 140.648438 43.53125 140.640625 Z M 60.761719 105.484375 "/><path style=" stroke:none;fill-rule:nonzero;fill:#ffffff;fill-opacity:1;" d="M 63.480469 106.59375 L 50.8125 143.617188 C 50.679688 144.011719 50.246094 144.226562 49.847656 144.089844 C 49.449219 143.957031 49.238281 143.523438 49.375 143.125 C 49.375 143.117188 49.378906 143.105469 49.382812 143.097656 Z M 63.480469 106.59375 "/><path style=" stroke:none;fill-rule:nonzero;fill:#ffffff;fill-opacity:1;" d="M 67.011719 104.738281 L 58.472656 139.542969 C 58.375 139.949219 57.964844 140.199219 57.554688 140.097656 C 57.148438 140 56.898438 139.585938 56.996094 139.179688 C 57 139.171875 57.003906 139.160156 57.007812 139.152344 Z M 67.011719 104.738281 "/><path style=" stroke:none;fill-rule:nonzero;fill:#ffffff;fill-opacity:1;" d="M 69.785156 104.480469 L 64.480469 138.921875 C 64.417969 139.335938 64.027344 139.617188 63.613281 139.554688 C 63.199219 139.492188 62.914062 139.101562 62.976562 138.6875 C 62.980469 138.679688 62.980469 138.664062 62.984375 138.65625 Z M 69.785156 104.480469 "/><path style=" stroke:none;fill-rule:nonzero;fill:#ffffff;fill-opacity:1;" d="M 72.175781 107.097656 L 69.664062 144.515625 C 69.636719 144.9375 69.273438 145.25 68.855469 145.226562 C 68.433594 145.199219 68.121094 144.835938 68.144531 144.414062 C 68.144531 144.40625 68.148438 144.394531 68.148438 144.386719 Z M 72.175781 107.097656 "/><path style=" stroke:none;fill-rule:nonzero;fill:#ffffff;fill-opacity:1;" d="M 74.226562 149.195312 L 74.984375 109.292969 L 75.742188 149.195312 C 75.753906 149.617188 75.417969 149.960938 75 149.96875 C 74.582031 149.980469 74.234375 149.644531 74.226562 149.226562 C 74.226562 149.21875 74.226562 149.207031 74.226562 149.195312 Z M 74.226562 149.195312 "/><path style=" stroke:none;fill-rule:nonzero;fill:#ffffff;fill-opacity:1;" d="M 80.304688 144.515625 L 77.796875 107.097656 L 81.820312 144.386719 C 81.867188 144.800781 81.5625 145.175781 81.144531 145.222656 C 80.730469 145.265625 80.355469 144.964844 80.308594 144.546875 C 80.304688 144.539062 80.304688 144.527344 80.304688 144.515625 Z M 80.304688 144.515625 "/><path style=" stroke:none;fill-rule:nonzero;fill:#ffffff;fill-opacity:1;" d="M 85.488281 138.921875 L 80.1875 104.484375 L 86.984375 138.660156 C 87.0625 139.070312 86.796875 139.472656 86.386719 139.554688 C 85.976562 139.632812 85.574219 139.367188 85.492188 138.957031 C 85.492188 138.945312 85.488281 138.933594 85.488281 138.921875 Z M 85.488281 138.921875 "/><path style=" stroke:none;fill-rule:nonzero;fill:#ffffff;fill-opacity:1;" d="M 91.496094 139.542969 L 82.957031 104.738281 L 92.964844 139.148438 C 93.082031 139.550781 92.847656 139.972656 92.449219 140.089844 C 92.046875 140.207031 91.621094 139.976562 91.503906 139.574219 C 91.503906 139.5625 91.5 139.550781 91.496094 139.542969 Z M 91.496094 139.542969 "/><path style=" stroke:none;fill-rule:nonzero;fill:#ffffff;fill-opacity:1;" d="M 86.492188 106.59375 L 100.585938 143.09375 C 100.734375 143.484375 100.539062 143.925781 100.148438 144.078125 C 99.761719 144.230469 99.320312 144.035156 99.167969 143.644531 C 99.164062 143.636719 99.160156 143.625 99.15625 143.617188 Z M 86.492188 106.59375 "/><path style=" stroke:none;fill-rule:nonzero;fill:#ffffff;fill-opacity:1;" d="M 105.058594 141.28125 L 89.207031 105.484375 L 106.4375 140.636719 C 106.621094 141.015625 106.464844 141.464844 106.089844 141.652344 C 105.710938 141.839844 105.257812 141.683594 105.070312 141.304688 C 105.070312 141.296875 105.066406 141.289062 105.058594 141.28125 Z M 105.058594 141.28125 "/><path style=" stroke:none;fill-rule:nonzero;fill:#ffffff;fill-opacity:1;" d="M 107.660156 133.101562 L 90.394531 101.675781 L 108.976562 132.34375 C 109.191406 132.703125 109.078125 133.167969 108.722656 133.386719 C 108.363281 133.601562 107.898438 133.488281 107.679688 133.132812 C 107.671875 133.121094 107.667969 133.105469 107.660156 133.101562 Z M 107.660156 133.101562 "/><path style=" stroke:none;fill-rule:nonzero;fill:#ffffff;fill-opacity:1;" d="M 111.515625 128.480469 L 92.160156 99.515625 L 112.757812 127.613281 C 113.007812 127.953125 112.933594 128.425781 112.59375 128.675781 C 112.253906 128.921875 111.78125 128.847656 111.53125 128.507812 C 111.53125 128.5 111.519531 128.492188 111.515625 128.480469 Z M 111.515625 128.480469 "/><path style=" stroke:none;fill-rule:nonzero;fill:#ffffff;fill-opacity:1;" d="M 119.175781 128.832031 L 95.683594 99.652344 L 120.339844 127.851562 C 120.613281 128.167969 120.582031 128.648438 120.265625 128.921875 C 119.953125 129.199219 119.472656 129.167969 119.195312 128.851562 C 119.1875 128.84375 119.179688 128.835938 119.175781 128.832031 Z M 119.175781 128.832031 "/><path style=" stroke:none;fill-rule:nonzero;fill:#ffffff;fill-opacity:1;" d="M 126.921875 127.996094 L 99.246094 99.246094 L 127.996094 126.921875 C 128.300781 127.214844 128.308594 127.695312 128.015625 127.996094 C 127.726562 128.300781 127.246094 128.308594 126.945312 128.015625 C 126.9375 128.011719 126.929688 128.003906 126.921875 127.996094 Z M 126.921875 127.996094 "/><path style=" stroke:none;fill-rule:nonzero;fill:#ffffff;fill-opacity:1;" d="M 127.851562 120.339844 L 99.652344 95.683594 L 128.832031 119.175781 C 129.15625 119.4375 129.207031 119.914062 128.945312 120.242188 C 128.679688 120.570312 128.203125 120.621094 127.875 120.355469 C 127.871094 120.355469 127.863281 120.34375 127.851562 120.339844 Z M 127.851562 120.339844 "/><path style=" stroke:none;fill-rule:nonzero;fill:#ffffff;fill-opacity:1;" d="M 127.609375 112.757812 L 99.515625 92.160156 L 128.480469 111.515625 C 128.828125 111.75 128.921875 112.21875 128.6875 112.566406 C 128.457031 112.914062 127.984375 113.011719 127.636719 112.777344 C 127.628906 112.773438 127.617188 112.765625 127.609375 112.757812 Z M 127.609375 112.757812 "/><path style=" stroke:none;fill-rule:nonzero;fill:#ffffff;fill-opacity:1;" d="M 132.339844 108.976562 L 101.671875 90.394531 L 133.097656 107.660156 C 133.46875 107.863281 133.597656 108.324219 133.398438 108.691406 C 133.199219 109.0625 132.734375 109.191406 132.367188 108.992188 C 132.359375 108.984375 132.347656 108.980469 132.339844 108.976562 Z M 132.339844 108.976562 "/><path style=" stroke:none;fill-rule:nonzero;fill:#ffffff;fill-opacity:1;" d="M 140.640625 106.4375 L 105.484375 89.207031 L 141.285156 105.058594 C 141.667969 105.230469 141.839844 105.679688 141.671875 106.0625 C 141.5 106.445312 141.054688 106.621094 140.667969 106.449219 C 140.65625 106.445312 140.648438 106.441406 140.640625 106.4375 Z M 140.640625 106.4375 "/><path style=" stroke:none;fill-rule:nonzero;fill:#ffffff;fill-opacity:1;" d="M 106.59375 86.492188 L 143.617188 99.15625 C 144.011719 99.292969 144.226562 99.722656 144.089844 100.121094 C 143.957031 100.519531 143.523438 100.730469 143.125 100.597656 C 143.117188 100.59375 143.105469 100.589844 143.097656 100.585938 Z M 106.59375 86.492188 "/><path style=" stroke:none;fill-rule:nonzero;fill:#ffffff;fill-opacity:1;" d="M 139.148438 92.964844 L 104.738281 82.957031 L 139.542969 91.496094 C 139.949219 91.59375 140.199219 92.007812 140.097656 92.414062 C 140 92.824219 139.585938 93.070312 139.179688 92.972656 C 139.167969 92.96875 139.15625 92.964844 139.148438 92.964844 Z M 139.148438 92.964844 "/><path style=" stroke:none;fill-rule:nonzero;fill:#ffffff;fill-opacity:1;" d="M 138.660156 86.984375 L 104.480469 80.1875 L 138.921875 85.488281 C 139.335938 85.550781 139.617188 85.941406 139.554688 86.355469 C 139.492188 86.769531 139.101562 87.054688 138.6875 86.992188 C 138.683594 86.988281 138.667969 86.984375 138.660156 86.984375 Z M 138.660156 86.984375 "/><path style=" stroke:none;fill-rule:nonzero;fill:#ffffff;fill-opacity:1;" d="M 144.386719 81.816406 L 107.097656 77.792969 L 144.515625 80.304688 C 144.9375 80.328125 145.25 80.691406 145.226562 81.113281 C 145.199219 81.53125 144.835938 81.847656 144.414062 81.820312 C 144.40625 81.820312 144.394531 81.820312 144.386719 81.816406 Z M 144.386719 81.816406 "/><path style=" stroke:none;fill-rule:nonzero;fill:#ffffff;fill-opacity:1;" d="M 149.195312 75.742188 L 109.292969 74.984375 L 149.195312 74.226562 C 149.617188 74.21875 149.960938 74.554688 149.96875 74.96875 C 149.980469 75.390625 149.644531 75.734375 149.226562 75.742188 C 149.21875 75.742188 149.207031 75.742188 149.195312 75.742188 Z M 149.195312 75.742188 "/><path style=" stroke:none;fill-rule:nonzero;fill:#ffffff;fill-opacity:1;" d="M 144.515625 69.664062 L 107.097656 72.175781 L 144.386719 68.148438 C 144.800781 68.105469 145.175781 68.40625 145.222656 68.824219 C 145.265625 69.242188 144.964844 69.617188 144.546875 69.660156 C 144.539062 69.664062 144.527344 69.664062 144.515625 69.664062 Z M 144.515625 69.664062 "/><path style=" stroke:none;fill-rule:nonzero;fill:#ffffff;fill-opacity:1;" d="M 138.921875 64.480469 L 104.484375 69.785156 L 138.660156 62.988281 C 139.070312 62.90625 139.472656 63.171875 139.554688 63.585938 C 139.632812 63.996094 139.367188 64.398438 138.957031 64.476562 C 138.945312 64.476562 138.933594 64.480469 138.921875 64.480469 Z M 138.921875 64.480469 "/><path style=" stroke:none;fill-rule:nonzero;fill:#ffffff;fill-opacity:1;" d="M 139.542969 58.472656 L 104.738281 67.011719 L 139.148438 57.007812 C 139.550781 56.890625 139.972656 57.121094 140.089844 57.523438 C 140.207031 57.925781 139.976562 58.347656 139.574219 58.464844 C 139.5625 58.46875 139.550781 58.46875 139.542969 58.472656 Z M 139.542969 58.472656 "/><path style=" stroke:none;fill-rule:nonzero;fill:#ffffff;fill-opacity:1;" d="M 106.59375 63.480469 L 143.09375 49.386719 C 143.484375 49.234375 143.925781 49.429688 144.078125 49.820312 C 144.230469 50.210938 144.035156 50.652344 143.644531 50.804688 C 143.636719 50.808594 143.625 50.808594 143.617188 50.8125 Z M 106.59375 63.480469 "/><path style=" stroke:none;fill-rule:nonzero;fill:#ffffff;fill-opacity:1;" d="M 141.28125 44.910156 L 105.484375 60.765625 L 140.636719 43.535156 C 141.015625 43.347656 141.464844 43.503906 141.652344 43.882812 C 141.839844 44.257812 141.683594 44.710938 141.304688 44.898438 C 141.296875 44.902344 141.289062 44.902344 141.28125 44.910156 Z M 141.28125 44.910156 "/><path style=" stroke:none;fill-rule:nonzero;fill:#ffffff;fill-opacity:1;" d="M 133.101562 42.308594 L 101.675781 59.574219 L 132.34375 40.992188 C 132.703125 40.777344 133.167969 40.890625 133.386719 41.246094 C 133.601562 41.609375 133.488281 42.074219 133.132812 42.292969 C 133.121094 42.296875 133.105469 42.304688 133.101562 42.308594 Z M 133.101562 42.308594 "/><path style=" stroke:none;fill-rule:nonzero;fill:#ffffff;fill-opacity:1;" d="M 128.480469 38.457031 L 99.515625 57.808594 L 127.613281 37.210938 C 127.953125 36.960938 128.425781 37.035156 128.675781 37.375 C 128.921875 37.714844 128.847656 38.1875 128.507812 38.4375 C 128.5 38.441406 128.492188 38.449219 128.480469 38.457031 Z M 128.480469 38.457031 "/><path style=" stroke:none;fill-rule:nonzero;fill:#ffffff;fill-opacity:1;" d="M 128.832031 30.792969 L 99.652344 54.285156 L 127.851562 29.632812 C 128.167969 29.355469 128.648438 29.386719 128.921875 29.703125 C 129.199219 30.019531 129.167969 30.496094 128.851562 30.773438 C 128.84375 30.78125 128.835938 30.789062 128.832031 30.792969 Z M 128.832031 30.792969 "/><path style=" stroke:none;fill-rule:nonzero;fill:#ffffff;fill-opacity:1;" d="M 127.996094 23.046875 L 99.246094 50.726562 L 126.921875 21.972656 C 127.214844 21.671875 127.695312 21.660156 127.996094 21.953125 C 128.300781 22.242188 128.308594 22.722656 128.015625 23.027344 C 128.011719 23.03125 128.003906 23.042969 127.996094 23.046875 Z M 127.996094 23.046875 "/><path style=" stroke:none;fill-rule:nonzero;fill:#ffffff;fill-opacity:1;" d="M 120.339844 22.117188 L 95.683594 50.316406 L 119.175781 21.140625 C 119.4375 20.8125 119.914062 20.761719 120.242188 21.027344 C 120.570312 21.289062 120.621094 21.765625 120.355469 22.09375 C 120.355469 22.097656 120.34375 22.109375 120.339844 22.117188 Z M 120.339844 22.117188 "/><path style=" stroke:none;fill-rule:nonzero;fill:#ffffff;fill-opacity:1;" d="M 112.757812 22.359375 L 92.160156 50.457031 L 111.515625 21.492188 C 111.75 21.144531 112.21875 21.046875 112.566406 21.28125 C 112.914062 21.515625 113.011719 21.984375 112.777344 22.332031 C 112.773438 22.339844 112.765625 22.351562 112.757812 22.359375 Z M 112.757812 22.359375 "/><path style=" stroke:none;fill-rule:nonzero;fill:#ffffff;fill-opacity:1;" d="M 108.976562 17.628906 L 90.394531 48.296875 L 107.660156 16.871094 C 107.863281 16.503906 108.324219 16.371094 108.691406 16.570312 C 109.0625 16.773438 109.191406 17.234375 108.992188 17.601562 C 108.984375 17.609375 108.980469 17.621094 108.976562 17.628906 Z M 108.976562 17.628906 "/><path style=" stroke:none;fill-rule:nonzero;fill:#ffffff;fill-opacity:1;" d="M 106.4375 9.332031 L 89.207031 44.484375 L 105.058594 8.6875 C 105.230469 8.300781 105.679688 8.128906 106.0625 8.300781 C 106.445312 8.46875 106.621094 8.917969 106.449219 9.300781 C 106.445312 9.3125 106.441406 9.320312 106.4375 9.332031 Z M 106.4375 9.332031 "/><path style=" stroke:none;fill-rule:nonzero;fill:#ffffff;fill-opacity:1;" d="M 86.492188 43.378906 L 99.15625 6.351562 C 99.292969 5.957031 99.722656 5.742188 100.121094 5.878906 C 100.519531 6.015625 100.730469 6.445312 100.597656 6.84375 C 100.59375 6.855469 100.589844 6.867188 100.585938 6.871094 Z M 86.492188 43.378906 "/><path style=" stroke:none;fill-rule:nonzero;fill:#ffffff;fill-opacity:1;" d="M 92.964844 10.820312 L 82.957031 45.230469 L 91.496094 10.429688 C 91.59375 10.019531 92.007812 9.773438 92.414062 9.871094 C 92.820312 9.96875 93.070312 10.382812 92.972656 10.789062 C 92.96875 10.800781 92.964844 10.8125 92.964844 10.820312 Z M 92.964844 10.820312 "/><path style=" stroke:none;fill-rule:nonzero;fill:#ffffff;fill-opacity:1;" d="M 86.984375 11.3125 L 80.1875 45.488281 L 85.488281 11.050781 C 85.550781 10.636719 85.941406 10.351562 86.355469 10.414062 C 86.769531 10.476562 87.054688 10.867188 86.992188 11.28125 C 86.988281 11.285156 86.984375 11.300781 86.984375 11.3125 Z M 86.984375 11.3125 "/><path style=" stroke:none;fill-rule:nonzero;fill:#ffffff;fill-opacity:1;" d="M 81.816406 5.585938 L 77.792969 42.871094 L 80.304688 5.453125 C 80.328125 5.03125 80.691406 4.71875 81.113281 4.746094 C 81.53125 4.773438 81.847656 5.136719 81.820312 5.554688 C 81.820312 5.5625 81.820312 5.574219 81.816406 5.585938 Z M 81.816406 5.585938 "/></g></svg>