<svg xmlns="http://www.w3.org/2000/svg" xmlns:xlink="http://www.w3.org/1999/xlink" width="200" zoomAndPan="magnify" viewBox="0 0 150 149.999998" height="200" preserveAspectRatio="xMidYMid meet" version="1.2"><defs><clipPath id="7c4b4ac8b7"><path d="M 25.59375 0 L 124.59375 0 L 124.59375 150 L 25.59375 150 Z M 25.59375 0 "/></clipPath></defs><g id="1995dbd539"><g clip-rule="nonzero" clip-path="url(#7c4b4ac8b7)"><path style=" stroke:none;fill-rule:nonzero;fill:#ffffff;fill-opacity:1;" d="M 123.984375 43.144531 L 124.316406 42.015625 L 123.128906 42.015625 C 123.054688 42.015625 118.140625 41.976562 113.941406 40.496094 C 117.738281 37.191406 120.808594 33.265625 122.890625 28.9375 L 123.292969 28.097656 L 122.453125 27.730469 C 118.359375 25.996094 113.847656 25.101562 109.210938 24.992188 C 111.601562 20.132812 112.972656 14.925781 113.082031 9.777344 L 113.101562 8.863281 L 112.1875 8.882812 C 106.324219 9.007812 100.386719 10.746094 94.980469 13.792969 C 94.507812 9.996094 93.484375 6.324219 91.894531 2.980469 L 91.492188 2.140625 L 90.691406 2.582031 C 87.308594 4.371094 84.222656 6.800781 81.503906 9.703125 C 79.914062 6.523438 77.902344 3.640625 75.53125 1.136719 L 74.910156 0.496094 L 74.269531 1.171875 C 71.96875 3.585938 70.03125 6.359375 68.460938 9.429688 C 65.59375 6.214844 62.269531 3.546875 58.617188 1.59375 L 57.8125 1.15625 L 57.410156 1.996094 C 55.730469 5.539062 54.671875 9.449219 54.25 13.519531 C 48.992188 10.652344 43.273438 9.027344 37.613281 8.917969 L 36.699219 8.898438 L 36.71875 9.8125 C 36.828125 14.964844 38.195312 20.152344 40.589844 25.007812 C 35.785156 25.046875 31.089844 25.960938 26.871094 27.75 L 26.03125 28.113281 L 26.433594 28.953125 C 28.535156 33.339844 31.65625 37.320312 35.511719 40.644531 C 31.402344 42.015625 26.746094 42.03125 26.691406 42.03125 L 25.503906 42.03125 L 25.832031 43.164062 C 25.867188 43.292969 29.777344 55.730469 46.980469 55.730469 C 47.96875 55.730469 48.898438 55.710938 49.792969 55.65625 L 50.671875 55.601562 L 50.617188 54.707031 L 50.5625 53.847656 L 49.683594 53.902344 C 48.828125 53.957031 47.914062 53.976562 46.964844 53.976562 C 33.902344 53.976562 29.246094 46.617188 27.933594 43.765625 C 29.886719 43.65625 33.722656 43.273438 37.0625 41.960938 C 37.375 41.832031 37.683594 41.703125 37.976562 41.558594 C 38.289062 41.410156 38.578125 41.265625 38.855469 41.101562 C 39.621094 40.679688 40.332031 40.207031 40.9375 39.640625 C 42.234375 38.453125 45.339844 37.210938 49.15625 36.71875 C 49.539062 36.664062 49.902344 36.625 50.304688 36.589844 C 50.707031 36.550781 51.109375 36.515625 51.53125 36.515625 C 51.894531 36.496094 52.261719 36.496094 52.644531 36.496094 C 54.398438 36.496094 56.570312 36.679688 58.890625 37.300781 C 59.273438 37.410156 59.675781 37.519531 60.058594 37.648438 C 60.480469 37.792969 60.917969 37.941406 61.355469 38.125 C 62.890625 38.746094 64.425781 39.566406 65.902344 40.699219 C 66.34375 41.027344 66.761719 41.375 67.183594 41.757812 C 67.710938 42.25 68.242188 42.78125 68.734375 43.367188 C 69.375 44.113281 69.976562 44.917969 70.5625 45.832031 C 70.761719 46.140625 70.964844 46.46875 71.144531 46.800781 C 71.238281 46.945312 71.308594 47.109375 71.402344 47.253906 C 71.476562 47.382812 71.53125 47.511719 71.601562 47.640625 C 71.621094 47.675781 71.640625 47.710938 71.65625 47.75 C 71.695312 47.804688 71.710938 47.875 71.75 47.929688 C 71.875 48.1875 72.003906 48.460938 72.132812 48.734375 C 72.261719 49.007812 72.371094 49.265625 72.480469 49.558594 C 72.570312 49.792969 72.664062 50.015625 72.773438 50.25 L 72.773438 50.289062 L 72.917969 50.855469 L 73.101562 51.546875 L 73.394531 52.644531 C 73.28125 52.570312 73.191406 52.515625 73.101562 52.460938 C 73.0625 52.441406 73.027344 52.425781 72.992188 52.386719 C 72.496094 52.078125 72.003906 51.804688 71.53125 51.585938 C 71.402344 51.53125 71.292969 51.476562 71.164062 51.421875 C 69.886719 50.871094 68.625 50.617188 67.328125 50.617188 C 67.054688 50.617188 66.78125 50.652344 66.523438 50.671875 C 66.304688 50.691406 66.085938 50.707031 65.867188 50.726562 C 64.441406 50.910156 62.980469 51.328125 61.355469 51.804688 L 60.1875 52.132812 L 60.664062 53.8125 L 61.832031 53.484375 C 63.96875 52.863281 65.667969 52.386719 67.308594 52.386719 C 69.429688 52.386719 71.421875 53.246094 73.886719 55.21875 L 73.339844 57.320312 L 74.015625 56.753906 L 74.015625 57.171875 C 74.015625 61.503906 72.734375 65.59375 70.414062 68.972656 C 67.621094 67.253906 65.832031 66.289062 64.753906 66.050781 L 64.242188 65.976562 L 64.242188 65.996094 C 61.722656 66.25 59.75 68.386719 59.75 70.980469 C 59.75 73.738281 61.996094 75.984375 64.753906 75.984375 C 65.519531 75.984375 66.46875 75.476562 67.859375 74.34375 C 68.953125 73.429688 69.957031 72.425781 70.855469 71.328125 C 72.386719 72.296875 73.996094 73.339844 75.402344 74.25 C 76.1875 74.761719 76.917969 75.238281 77.613281 75.675781 C 76.953125 76.261719 76.441406 76.71875 76.1875 76.972656 L 66.542969 84.371094 C 61.320312 81.429688 58.636719 80.078125 57.613281 80.078125 C 54.378906 80.078125 51.75 82.707031 51.75 85.941406 C 51.75 89.171875 54.378906 91.804688 57.613281 91.804688 C 60.625 91.804688 65.921875 87.128906 66.46875 86.632812 L 66.707031 86.453125 C 68.679688 87.566406 70.746094 88.773438 72.664062 89.867188 C 75.21875 91.347656 77.464844 92.644531 79.421875 93.738281 C 76.332031 96.332031 72.71875 99.328125 69.101562 102.03125 C 61.300781 98.617188 54.195312 97.300781 53.59375 97.210938 L 53.449219 97.191406 C 49.429688 97.191406 46.179688 100.460938 46.179688 104.460938 C 46.179688 108.460938 49.449219 111.730469 53.449219 111.730469 C 57.667969 111.730469 63.457031 108.371094 69.28125 104.113281 C 77.027344 107.65625 85.171875 113.320312 87.621094 121.867188 C 90.289062 131.253906 87.65625 137.449219 84.992188 140.992188 C 81.628906 145.449219 76.644531 147.765625 73.464844 147.765625 C 66.507812 147.765625 60.828125 142.105469 60.828125 135.128906 C 60.828125 128.570312 65.738281 123.164062 72.242188 122.5625 C 76.113281 122.195312 79.53125 124.644531 80.042969 128.152344 L 80.917969 128.023438 L 80.078125 128.332031 C 80.40625 131.054688 78.707031 132.773438 77.007812 133.464844 C 75.273438 134.160156 72.625 134.160156 70.855469 131.820312 L 70.085938 130.816406 L 68.679688 131.875 L 69.449219 132.882812 C 71.65625 135.804688 75.164062 136.097656 77.667969 135.089844 C 80.570312 133.921875 82.214844 131.183594 81.832031 128.132812 L 81.792969 127.894531 C 81.136719 123.476562 76.863281 120.351562 72.078125 120.808594 C 64.664062 121.519531 59.054688 127.675781 59.054688 135.144531 C 59.054688 143.089844 65.519531 149.539062 73.449219 149.539062 C 76.953125 149.539062 82.507812 147.199219 86.378906 142.066406 C 89.300781 138.195312 92.167969 131.476562 89.300781 121.390625 C 86.761719 112.480469 78.746094 106.617188 70.945312 102.890625 C 74.46875 100.222656 77.957031 97.300781 81.082031 94.691406 C 86.195312 97.539062 89.007812 98.925781 90.140625 98.925781 C 93.722656 98.925781 96.625 96.023438 96.625 92.441406 C 96.625 88.863281 93.722656 85.957031 90.140625 85.957031 C 88.882812 85.957031 86.691406 87.675781 80.882812 92.570312 C 78.433594 91.199219 75.859375 89.703125 73.558594 88.386719 C 71.585938 87.238281 69.8125 86.234375 68.242188 85.335938 L 77.355469 78.34375 C 77.921875 77.8125 78.542969 77.265625 79.199219 76.699219 C 83.859375 79.65625 86.378906 81.082031 87.566406 81.082031 C 90.800781 81.082031 93.429688 78.453125 93.429688 75.21875 C 93.429688 71.984375 90.800781 69.355469 87.566406 69.355469 C 85.59375 69.355469 81.757812 72.261719 79.035156 74.523438 C 78.125 73.941406 77.226562 73.355469 76.40625 72.828125 C 74.726562 71.730469 73.246094 70.78125 71.949219 69.957031 C 74.453125 66.304688 75.820312 61.886719 75.820312 57.226562 L 75.820312 56.808594 L 76.496094 57.375 L 75.949219 55.273438 C 80.71875 51.457031 83.21875 52.167969 88.023438 53.539062 C 91.546875 54.5625 95.929688 55.820312 102.871094 55.820312 C 120.039062 55.710938 123.949219 43.273438 123.984375 43.144531 Z M 66.746094 72.917969 C 65.265625 74.140625 64.773438 74.160156 64.753906 74.160156 C 62.964844 74.160156 61.503906 72.699219 61.503906 70.925781 C 61.503906 69.265625 62.78125 67.875 64.386719 67.710938 C 65.15625 67.859375 67.074219 68.953125 69.339844 70.34375 C 68.570312 71.273438 67.710938 72.132812 66.746094 72.917969 Z M 57.613281 89.996094 C 55.347656 89.996094 53.503906 88.152344 53.503906 85.886719 C 53.503906 83.621094 55.347656 81.777344 57.613281 81.777344 C 58.359375 81.8125 61.410156 83.4375 65.0625 85.484375 C 62.925781 87.328125 59.292969 89.996094 57.613281 89.996094 Z M 53.410156 109.941406 C 50.378906 109.941406 47.894531 107.476562 47.894531 104.425781 C 47.894531 101.410156 50.324219 98.964844 53.320312 98.910156 C 54.085938 99.054688 60.332031 100.296875 67.347656 103.238281 C 62.125 107.019531 56.972656 109.941406 53.410156 109.941406 Z M 90.105469 87.640625 C 92.71875 87.640625 94.835938 89.757812 94.835938 92.371094 C 94.835938 94.980469 92.71875 97.101562 90.105469 97.101562 C 89.320312 97.101562 86.214844 95.492188 82.488281 93.410156 C 85.8125 90.632812 89.28125 87.765625 90.105469 87.640625 Z M 87.53125 71.019531 C 89.792969 71.019531 91.640625 72.863281 91.640625 75.128906 C 91.640625 77.394531 89.792969 79.238281 87.53125 79.238281 C 86.746094 79.238281 83.75 77.449219 80.570312 75.4375 C 83.382812 73.117188 86.359375 71.019531 87.53125 71.019531 Z M 88.460938 51.730469 C 86.945312 51.292969 85.59375 50.925781 84.277344 50.707031 C 83.675781 50.617188 83.074219 50.542969 82.488281 50.542969 C 82.453125 50.542969 82.414062 50.542969 82.378906 50.542969 C 81.613281 50.542969 80.84375 50.652344 80.058594 50.855469 C 79.585938 50.980469 79.109375 51.144531 78.617188 51.347656 C 78.03125 51.601562 77.410156 51.929688 76.789062 52.316406 C 76.660156 52.386719 76.535156 52.480469 76.386719 52.550781 L 76.460938 52.296875 L 76.789062 51.035156 L 76.863281 50.78125 L 76.992188 50.269531 C 77.082031 50.03125 77.171875 49.832031 77.265625 49.613281 C 77.375 49.339844 77.484375 49.0625 77.613281 48.789062 C 77.738281 48.515625 77.867188 48.242188 78.015625 47.96875 C 78.070312 47.859375 78.105469 47.765625 78.160156 47.65625 C 78.324219 47.328125 78.507812 47.019531 78.671875 46.707031 C 78.855469 46.378906 79.054688 46.050781 79.253906 45.738281 C 79.820312 44.863281 80.40625 44.078125 81.027344 43.367188 C 81.539062 42.78125 82.050781 42.25 82.578125 41.757812 C 83 41.375 83.421875 41.007812 83.859375 40.664062 C 85.394531 39.476562 86.980469 38.617188 88.515625 37.996094 C 88.9375 37.832031 89.335938 37.683594 89.757812 37.539062 C 90.160156 37.410156 90.542969 37.300781 90.925781 37.191406 C 91.109375 37.136719 91.308594 37.082031 91.492188 37.046875 C 93.8125 36.496094 96.113281 36.332031 98.25 36.425781 C 98.671875 36.441406 99.074219 36.480469 99.476562 36.496094 C 99.859375 36.535156 100.242188 36.570312 100.625 36.625 C 104.535156 37.136719 107.621094 38.433594 108.84375 39.546875 C 109.394531 40.042969 109.996094 40.460938 110.652344 40.84375 C 110.925781 41.007812 111.21875 41.15625 111.511719 41.300781 C 111.804688 41.449219 112.113281 41.574219 112.40625 41.703125 C 115.839844 43.144531 119.859375 43.546875 121.867188 43.65625 C 120.550781 46.507812 115.894531 53.867188 102.835938 53.867188 C 96.132812 53.941406 91.875 52.71875 88.460938 51.730469 Z M 52.679688 34.707031 C 51.695312 34.707031 50.746094 34.761719 49.8125 34.855469 C 47.382812 32.425781 45.300781 29.722656 43.601562 26.855469 C 43.421875 26.542969 43.253906 26.234375 43.074219 25.941406 C 42.910156 25.648438 42.726562 25.339844 42.578125 25.046875 C 40.1875 20.480469 38.78125 15.585938 38.523438 10.707031 C 43.839844 10.980469 49.191406 12.644531 54.105469 15.4375 C 54.398438 15.601562 54.671875 15.765625 54.945312 15.933594 C 55.238281 16.113281 55.53125 16.277344 55.804688 16.460938 C 58.25 18.03125 60.570312 19.875 62.671875 21.996094 C 63.21875 22.542969 63.75 23.128906 64.277344 23.695312 C 64.132812 25.171875 64.042969 26.652344 64.042969 28.152344 C 64.042969 29.464844 64.097656 30.78125 64.222656 32.078125 C 64.261719 32.460938 64.316406 32.84375 64.351562 33.226562 C 64.40625 33.628906 64.441406 34.03125 64.515625 34.414062 C 64.699219 35.621094 64.917969 36.828125 65.210938 37.996094 C 63.53125 36.972656 61.8125 36.242188 60.132812 35.75 C 59.75 35.640625 59.367188 35.53125 59 35.4375 C 58.632812 35.347656 58.269531 35.273438 57.921875 35.199219 C 55.988281 34.816406 54.179688 34.707031 52.679688 34.707031 Z M 47.65625 35.144531 C 44.042969 35.785156 41.171875 37.0625 39.785156 38.304688 C 39.089844 38.925781 38.25 39.4375 37.355469 39.875 C 33.613281 36.808594 30.523438 33.101562 28.425781 29.007812 C 32.480469 27.4375 36.953125 26.671875 41.519531 26.746094 C 43.164062 29.738281 45.246094 32.570312 47.65625 35.144531 Z M 67.640625 11.144531 C 66.195312 14.359375 65.171875 17.832031 64.589844 21.429688 C 64.371094 21.210938 64.152344 20.972656 63.929688 20.734375 C 61.484375 18.289062 58.78125 16.1875 55.929688 14.453125 C 56.242188 10.636719 57.136719 6.945312 58.617188 3.585938 C 61.976562 5.519531 65.027344 8.078125 67.640625 11.144531 Z M 66.578125 36.042969 C 66.488281 35.601562 66.414062 35.144531 66.34375 34.707031 C 66.269531 34.289062 66.214844 33.886719 66.160156 33.464844 C 65.941406 31.730469 65.8125 29.960938 65.8125 28.167969 C 65.8125 27.3125 65.847656 26.46875 65.902344 25.628906 C 65.921875 25.191406 65.957031 24.773438 65.996094 24.332031 C 66.03125 23.933594 66.070312 23.53125 66.125 23.128906 C 66.578125 19.476562 67.511719 15.949219 68.882812 12.699219 C 69.007812 12.386719 69.15625 12.078125 69.28125 11.785156 C 69.410156 11.492188 69.558594 11.183594 69.703125 10.890625 C 71.089844 8.023438 72.84375 5.375 74.910156 3.074219 C 77.046875 5.449219 78.835938 8.167969 80.242188 11.144531 C 80.371094 11.4375 80.515625 11.730469 80.644531 12.023438 C 80.773438 12.332031 80.917969 12.625 81.046875 12.9375 C 82.359375 16.132812 83.253906 19.546875 83.695312 23.109375 C 83.75 23.511719 83.785156 23.914062 83.820312 24.316406 C 83.859375 24.753906 83.894531 25.171875 83.914062 25.613281 C 83.96875 26.453125 84.003906 27.3125 84.003906 28.152344 C 84.003906 29.792969 83.894531 31.4375 83.710938 33.046875 C 83.65625 33.449219 83.601562 33.847656 83.546875 34.269531 C 83.476562 34.707031 83.421875 35.128906 83.328125 35.546875 C 83.074219 36.953125 82.746094 38.324219 82.34375 39.675781 C 80.9375 40.828125 79.585938 42.25 78.359375 43.988281 C 77.902344 44.625 77.484375 45.320312 77.0625 46.050781 C 77.046875 46.085938 77.027344 46.105469 77.007812 46.140625 C 77.007812 46.140625 77.007812 46.160156 76.992188 46.160156 C 76.84375 46.433594 76.699219 46.707031 76.550781 46.980469 C 76.535156 47.019531 76.515625 47.074219 76.480469 47.109375 C 76.460938 47.164062 76.425781 47.199219 76.40625 47.253906 C 76.351562 47.347656 76.316406 47.4375 76.261719 47.53125 C 76.207031 47.640625 76.152344 47.765625 76.078125 47.875 C 76.003906 48.023438 75.929688 48.1875 75.875 48.351562 C 75.859375 48.371094 75.859375 48.386719 75.859375 48.40625 C 75.75 48.644531 75.640625 48.898438 75.546875 49.15625 C 75.457031 49.355469 75.382812 49.558594 75.292969 49.757812 L 74.910156 51.382812 L 74.671875 50.488281 L 74.46875 49.683594 C 74.378906 49.464844 74.289062 49.246094 74.195312 49.027344 C 74.140625 48.898438 74.105469 48.789062 74.050781 48.664062 C 73.976562 48.515625 73.921875 48.351562 73.847656 48.207031 C 73.792969 48.097656 73.757812 47.988281 73.703125 47.894531 C 73.648438 47.765625 73.59375 47.640625 73.519531 47.511719 C 73.503906 47.476562 73.484375 47.4375 73.464844 47.402344 C 73.394531 47.253906 73.320312 47.128906 73.265625 46.980469 C 73.210938 46.871094 73.15625 46.761719 73.101562 46.652344 C 73.101562 46.636719 73.082031 46.617188 73.082031 46.597656 C 72.992188 46.414062 72.882812 46.234375 72.789062 46.050781 C 72.71875 45.921875 72.644531 45.792969 72.570312 45.667969 C 72.296875 45.210938 72.023438 44.753906 71.75 44.332031 C 71.402344 43.804688 71.035156 43.3125 70.652344 42.835938 C 69.648438 41.574219 68.570312 40.496094 67.457031 39.585938 C 67.109375 38.453125 66.816406 37.246094 66.578125 36.042969 Z M 90.707031 4.609375 C 92.097656 7.785156 92.972656 11.21875 93.335938 14.800781 C 90.691406 16.460938 88.1875 18.453125 85.886719 20.734375 C 85.667969 20.953125 85.449219 21.191406 85.226562 21.429688 C 84.679688 17.941406 83.695312 14.582031 82.324219 11.4375 C 84.789062 8.699219 87.621094 6.378906 90.707031 4.609375 Z M 111.292969 10.691406 C 111.035156 15.546875 109.628906 20.460938 107.238281 25.007812 C 107.089844 25.300781 106.910156 25.59375 106.746094 25.886719 C 106.578125 26.195312 106.398438 26.488281 106.234375 26.800781 C 104.535156 29.667969 102.433594 32.386719 99.984375 34.835938 C 97.429688 34.578125 94.632812 34.652344 91.839844 35.21875 C 91.585938 35.273438 91.328125 35.3125 91.074219 35.382812 C 90.980469 35.402344 90.871094 35.4375 90.78125 35.457031 C 90.414062 35.546875 90.050781 35.65625 89.667969 35.765625 C 88.042969 36.261719 86.324219 36.992188 84.589844 38.050781 C 84.898438 36.734375 85.15625 35.402344 85.355469 34.03125 C 85.410156 33.648438 85.449219 33.246094 85.503906 32.863281 C 85.539062 32.496094 85.59375 32.132812 85.613281 31.75 C 85.722656 30.5625 85.777344 29.355469 85.777344 28.152344 C 85.777344 26.652344 85.683594 25.15625 85.539062 23.695312 C 86.050781 23.109375 86.578125 22.542969 87.144531 21.996094 C 89.117188 20.042969 91.238281 18.304688 93.503906 16.808594 C 93.792969 16.625 94.070312 16.425781 94.359375 16.261719 C 94.632812 16.078125 94.925781 15.914062 95.199219 15.75 C 100.222656 12.753906 105.777344 10.980469 111.292969 10.691406 Z M 110.011719 38.304688 C 108.644531 37.046875 105.738281 35.804688 102.140625 35.144531 C 104.570312 32.570312 106.632812 29.738281 108.296875 26.746094 C 112.699219 26.726562 116.972656 27.476562 120.898438 29.007812 C 118.816406 33.046875 115.820312 36.679688 112.152344 39.730469 C 111.363281 39.328125 110.632812 38.871094 110.011719 38.304688 Z M 110.011719 38.304688 "/></g></g></svg>