<svg xmlns="http://www.w3.org/2000/svg" xmlns:xlink="http://www.w3.org/1999/xlink" width="200" zoomAndPan="magnify" viewBox="0 0 150 149.999998" height="200" preserveAspectRatio="xMidYMid meet" version="1.2"><defs><clipPath id="fda931076a"><path d="M 26.289062 82 L 123 82 L 123 138.945312 L 26.289062 138.945312 Z M 26.289062 82 "/></clipPath><clipPath id="ecdb37dff5"><path d="M 72 10.695312 L 77 10.695312 L 77 19 L 72 19 Z M 72 10.695312 "/></clipPath></defs><g id="62167fc264"><path style=" stroke:none;fill-rule:nonzero;fill:#7450a5;fill-opacity:1;" d="M 56.878906 37.148438 C 56.878906 38.851562 57.179688 40.453125 57.882812 42.058594 C 57.882812 42.058594 57.882812 42.15625 57.984375 42.15625 L 58.183594 42.558594 C 58.183594 42.558594 58.183594 42.660156 58.285156 42.660156 L 59.183594 44.0625 C 59.183594 44.0625 59.285156 44.160156 59.285156 44.160156 C 59.285156 44.160156 59.386719 44.261719 59.386719 44.261719 L 73.011719 59.992188 C 73.511719 60.59375 74.214844 60.894531 74.914062 60.894531 C 75.617188 60.894531 76.320312 60.59375 76.820312 59.992188 L 90.445312 44.261719 C 90.546875 44.160156 90.546875 44.160156 90.644531 44.0625 L 91.546875 42.660156 C 91.546875 42.660156 91.546875 42.558594 91.648438 42.558594 L 91.847656 42.15625 C 91.847656 42.15625 91.847656 42.058594 91.949219 42.058594 C 92.648438 40.554688 93.050781 38.851562 92.949219 37.148438 C 92.851562 31.636719 88.34375 27.027344 82.730469 26.726562 C 79.523438 26.527344 76.820312 28.128906 74.914062 30.132812 C 72.910156 28.128906 70.207031 26.527344 67.101562 26.726562 C 61.488281 27.027344 56.980469 31.535156 56.878906 37.148438 Z M 73.210938 34.441406 C 73.613281 35.042969 74.214844 35.34375 74.914062 35.34375 C 75.617188 35.34375 76.21875 35.042969 76.617188 34.441406 C 77.820312 32.640625 80.125 30.636719 82.628906 30.734375 C 86.039062 30.9375 88.941406 33.839844 89.042969 37.246094 C 89.042969 38.25 88.84375 39.25 88.441406 40.253906 L 87.539062 41.65625 L 74.914062 55.984375 L 62.492188 41.65625 L 61.691406 40.453125 L 61.589844 40.253906 C 61.1875 39.351562 60.988281 38.351562 60.988281 37.246094 C 61.089844 33.839844 63.894531 30.9375 67.402344 30.734375 C 69.804688 30.636719 72.011719 32.640625 73.210938 34.441406 Z M 73.210938 34.441406 "/><path style=" stroke:none;fill-rule:nonzero;fill:#7450a5;fill-opacity:1;" d="M 60.886719 80.832031 C 60.886719 88.546875 67.199219 94.859375 74.914062 94.859375 C 82.628906 94.859375 88.941406 88.546875 88.941406 80.832031 C 88.941406 73.117188 82.628906 66.804688 74.914062 66.804688 C 67.199219 66.804688 60.886719 73.117188 60.886719 80.832031 Z M 84.933594 80.832031 C 84.933594 86.34375 80.425781 90.851562 74.914062 90.851562 C 69.40625 90.851562 64.894531 86.34375 64.894531 80.832031 C 64.894531 75.320312 69.40625 70.8125 74.914062 70.8125 C 80.425781 70.8125 84.933594 75.320312 84.933594 80.832031 Z M 84.933594 80.832031 "/><g clip-rule="nonzero" clip-path="url(#fda931076a)"><path style=" stroke:none;fill-rule:nonzero;fill:#7450a5;fill-opacity:1;" d="M 122.707031 87.746094 L 121.40625 84.640625 C 120.90625 83.4375 119.902344 82.535156 118.601562 82.234375 C 117.296875 81.933594 115.996094 82.234375 114.992188 83.136719 C 92.550781 102.574219 59.585938 102.875 34.835938 83.738281 C 33.835938 82.9375 32.632812 82.738281 31.332031 83.039062 C 30.128906 83.335938 29.125 84.140625 28.625 85.242188 L 27.121094 88.546875 C 26.421875 90.152344 26.820312 92.15625 28.226562 93.257812 C 36.941406 100.570312 47.5625 105.679688 58.882812 108.1875 L 58.882812 136.941406 C 58.882812 138.042969 59.785156 138.945312 60.886719 138.945312 C 61.992188 138.945312 62.890625 138.042969 62.890625 136.941406 L 62.890625 106.882812 C 62.890625 106.582031 62.792969 106.28125 62.691406 105.980469 C 62.492188 105.378906 61.890625 104.78125 61.1875 104.679688 C 49.867188 102.375 39.445312 97.464844 30.828125 90.25 L 32.332031 86.945312 C 58.582031 107.183594 93.753906 106.882812 117.699219 86.242188 L 119 89.347656 C 110.785156 97.066406 100.265625 102.375 88.640625 104.679688 C 87.941406 104.78125 87.339844 105.378906 87.140625 105.980469 C 87.039062 106.28125 86.9375 106.582031 86.9375 106.882812 L 86.9375 136.941406 C 86.9375 138.042969 87.839844 138.945312 88.941406 138.945312 C 90.046875 138.945312 90.945312 138.042969 90.945312 136.941406 L 90.945312 108.285156 C 102.667969 105.679688 113.289062 100.171875 121.707031 92.253906 C 122.910156 91.054688 123.308594 89.347656 122.707031 87.746094 Z M 122.707031 87.746094 "/></g><path style=" stroke:none;fill-rule:nonzero;fill:#7450a5;fill-opacity:1;" d="M 69.605469 83.335938 C 68.804688 84.039062 68.703125 85.339844 69.40625 86.144531 C 70.90625 87.847656 73.011719 88.847656 75.117188 88.847656 C 77.121094 88.847656 79.023438 87.945312 80.425781 86.34375 C 81.128906 85.542969 81.027344 84.238281 80.226562 83.539062 C 79.425781 82.835938 78.121094 82.9375 77.421875 83.738281 C 76.117188 85.242188 73.8125 85.140625 72.410156 83.539062 C 71.710938 82.738281 70.40625 82.636719 69.605469 83.335938 Z M 69.605469 83.335938 "/><g clip-rule="nonzero" clip-path="url(#ecdb37dff5)"><path style=" stroke:none;fill-rule:nonzero;fill:#7450a5;fill-opacity:1;" d="M 76.917969 16.707031 L 76.917969 12.699219 C 76.917969 11.597656 76.019531 10.695312 74.914062 10.695312 C 73.8125 10.695312 72.910156 11.597656 72.910156 12.699219 L 72.910156 16.707031 C 72.910156 17.808594 73.8125 18.710938 74.914062 18.710938 C 76.019531 18.710938 76.917969 17.808594 76.917969 16.707031 Z M 76.917969 16.707031 "/></g><path style=" stroke:none;fill-rule:nonzero;fill:#7450a5;fill-opacity:1;" d="M 93.050781 19.8125 L 90.246094 22.621094 C 89.445312 23.421875 89.445312 24.625 90.246094 25.425781 C 90.644531 25.824219 91.148438 26.027344 91.648438 26.027344 C 92.148438 26.027344 92.648438 25.824219 93.050781 25.425781 L 95.855469 22.621094 C 96.65625 21.816406 96.65625 20.617188 95.855469 19.8125 C 95.054688 19.011719 93.753906 19.011719 93.050781 19.8125 Z M 93.050781 19.8125 "/><path style=" stroke:none;fill-rule:nonzero;fill:#7450a5;fill-opacity:1;" d="M 98.261719 43.058594 L 102.269531 43.058594 C 103.371094 43.058594 104.273438 42.15625 104.273438 41.054688 C 104.273438 39.953125 103.371094 39.050781 102.269531 39.050781 L 98.261719 39.050781 C 97.160156 39.050781 96.257812 39.953125 96.257812 41.054688 C 96.257812 42.15625 97.058594 43.058594 98.261719 43.058594 Z M 98.261719 43.058594 "/><path style=" stroke:none;fill-rule:nonzero;fill:#7450a5;fill-opacity:1;" d="M 50.667969 42.058594 C 51.769531 42.058594 52.671875 41.15625 52.671875 40.054688 C 52.671875 38.953125 51.769531 38.050781 50.667969 38.050781 L 46.660156 38.050781 C 45.558594 38.050781 44.65625 38.953125 44.65625 40.054688 C 44.65625 41.15625 45.558594 42.058594 46.660156 42.058594 Z M 50.667969 42.058594 "/><path style=" stroke:none;fill-rule:nonzero;fill:#7450a5;fill-opacity:1;" d="M 56.480469 19.113281 C 55.679688 18.3125 54.476562 18.3125 53.675781 19.113281 C 52.871094 19.914062 52.871094 21.117188 53.675781 21.917969 L 56.480469 24.722656 C 56.878906 25.125 57.382812 25.324219 57.882812 25.324219 C 58.382812 25.324219 58.882812 25.125 59.285156 24.722656 C 60.085938 23.921875 60.085938 22.71875 59.285156 21.917969 Z M 56.480469 19.113281 "/></g></svg>